<svg xmlns="http://www.w3.org/2000/svg" viewBox="0 0 15 15">
  <defs>
    <style>
      .cls-1 {
        fill: #98a0b2;
      }
    </style>
  </defs>
  <g id="Symbol_11_1" data-name="Symbol 11 – 1" transform="translate(-1026 -414)">
    <rect id="Rectangle_335" data-name="Rectangle 335" class="cls-1" width="15" height="2" rx="1" transform="translate(1026 414)"/>
    <circle id="Ellipse_173" data-name="Ellipse 173" class="cls-1" cx="1.5" cy="1.5" r="1.5" transform="translate(1026 418)"/>
    <circle id="Ellipse_174" data-name="Ellipse 174" class="cls-1" cx="1.5" cy="1.5" r="1.5" transform="translate(1030 418)"/>
    <circle id="Ellipse_175" data-name="Ellipse 175" class="cls-1" cx="1.5" cy="1.5" r="1.5" transform="translate(1034 418)"/>
    <circle id="Ellipse_176" data-name="Ellipse 176" class="cls-1" cx="1.5" cy="1.5" r="1.5" transform="translate(1038 418)"/>
    <circle id="Ellipse_177" data-name="Ellipse 177" class="cls-1" cx="1.5" cy="1.5" r="1.5" transform="translate(1026 422)"/>
    <circle id="Ellipse_178" data-name="Ellipse 178" class="cls-1" cx="1.5" cy="1.5" r="1.5" transform="translate(1030 422)"/>
    <circle id="Ellipse_179" data-name="Ellipse 179" class="cls-1" cx="1.5" cy="1.5" r="1.5" transform="translate(1034 422)"/>
    <circle id="Ellipse_180" data-name="Ellipse 180" class="cls-1" cx="1.5" cy="1.5" r="1.5" transform="translate(1038 422)"/>
    <circle id="Ellipse_181" data-name="Ellipse 181" class="cls-1" cx="1.5" cy="1.5" r="1.5" transform="translate(1026 426)"/>
    <circle id="Ellipse_182" data-name="Ellipse 182" class="cls-1" cx="1.5" cy="1.5" r="1.5" transform="translate(1030 426)"/>
    <circle id="Ellipse_183" data-name="Ellipse 183" class="cls-1" cx="1.5" cy="1.5" r="1.5" transform="translate(1034 426)"/>
    <circle id="Ellipse_184" data-name="Ellipse 184" class="cls-1" cx="1.5" cy="1.5" r="1.5" transform="translate(1038 426)"/>
  </g>
</svg>
