<svg class="sd-svg sd-svg--certification" width="62" height="56" xmlns="http://www.w3.org/2000/svg" viewBox="949.463 -2972.504 61.504 55.224">
  <defs>
    <style>
      .sd-svg--certification .cls-1 {
        fill: #eef1f6;
      }

      .sd-svg--certification .cls-2 {
        fill: #1f2740;
      }

      .sd-svg--certification .cls-3 {
        fill: #ffd629;
      }

      .sd-svg--certification .cls-4 {
        fill: #fff;
      }

      .sd-svg--certification .cls-5 {
        fill: #f9dd67;
      }
    </style>
  </defs>
  <g id="Asset_7" data-name="Asset 7" transform="translate(110.013 710)">
    <g id="Layer_1" data-name="Layer 1" transform="translate(839.449 -3682.504)">
      <path id="Path_195" data-name="Path 195" class="cls-1" d="M60.178,4.737H46.442a8.074,8.074,0,0,0-6.723-2.445,10.133,10.133,0,0,0-1.415,0A14.025,14.025,0,0,0,30.2.266a13.9,13.9,0,0,0-8.074,2.123,10.583,10.583,0,0,0-1.448,0,8.171,8.171,0,0,0-6.723,2.445H.25V49.385h13.7a8.17,8.17,0,0,0,6.723,2.445,10.582,10.582,0,0,0,1.448,0A13.9,13.9,0,0,0,30.2,53.953,14.025,14.025,0,0,0,38.3,51.83a10.132,10.132,0,0,0,1.415,0,8.074,8.074,0,0,0,6.723-2.445H60.178ZM54.388,43.6H5.879V10.527H54.13Z" transform="translate(0.554 0.549)"/>
      <path id="Path_196" data-name="Path 196" class="cls-2" d="M30.752,55.206a15.28,15.28,0,0,1-8.235-2.091H21.295a9.65,9.65,0,0,1-7.141-2.445H.8a.8.8,0,0,1-.8-.74V5.283a.8.8,0,0,1,.8-.8H14.089A9.65,9.65,0,0,1,21.23,2.034l1.287.064A15.279,15.279,0,0,1,30.752.007,15.408,15.408,0,0,1,39.083,2.1h1.19a9.393,9.393,0,0,1,7.141,2.445H60.732a.8.8,0,0,1,.772.8V49.931a.8.8,0,0,1-.772.8H47.415a9.393,9.393,0,0,1-7.141,2.445h-1.19A15.408,15.408,0,0,1,30.752,55.206Zm-8.074-3.731a.965.965,0,0,1,.483.161A13.349,13.349,0,0,0,30.752,53.6a13.446,13.446,0,0,0,7.624-1.962,1.094,1.094,0,0,1,.547-.161,9.651,9.651,0,0,0,1.351,0,7.5,7.5,0,0,0,6.015-2.027A.836.836,0,0,1,47,49.03H59.863V6.087H47a.836.836,0,0,1-.708-.418,7.5,7.5,0,0,0-6.015-2.027H38.922a.8.8,0,0,1-.547,0,13.446,13.446,0,0,0-7.624-2.027A13.349,13.349,0,0,0,23.16,3.578a.9.9,0,0,1-.579,0H21.23A7.559,7.559,0,0,0,15.215,5.6a.772.772,0,0,1-.708.418H1.608v43.1H14.475a.772.772,0,0,1,.708.418,7.559,7.559,0,0,0,6.047,1.93,8.91,8.91,0,0,0,1.287,0Zm32.167-6.433H6.433a.8.8,0,0,1-.8-.8V11.073a.8.8,0,0,1,.8-.8H54.684a.8.8,0,0,1,.8.8V44.141a.8.8,0,0,1-.547.9ZM7.27,43.433H54.138V11.877H7.366Z" transform="translate(0 0.003)"/>
      <rect id="Rectangle_113" data-name="Rectangle 113" class="cls-3" width="48.38" height="33.068" transform="translate(6.562 11.076)"/>
      <path id="Path_197" data-name="Path 197" class="cls-2" d="M51.062,37.963H2.554a.8.8,0,0,1-.8-.8V3.994a.8.8,0,0,1,.8-.8H50.805a.8.8,0,0,1,.8.8V37.062A.8.8,0,0,1,51.062,37.963ZM3.487,36.354H50.258V4.8H3.487Z" transform="translate(3.879 7.082)"/>
      <path id="Path_198" data-name="Path 198" class="cls-4" d="M41.4,30.825H6.307A3.217,3.217,0,0,0,3.09,27.608h0V7.7h0A3.217,3.217,0,0,0,6.307,4.48H41.4A3.217,3.217,0,0,0,44.618,7.7V27.608h0A3.217,3.217,0,0,0,41.4,30.825Z" transform="translate(6.85 9.941)"/>
      <path id="Path_199" data-name="Path 199" class="cls-2" d="M41.955,32.161H6.861a.8.8,0,0,1-.8-.8,2.413,2.413,0,0,0-2.413-2.413.8.8,0,0,1-.8-.8V8.229a.836.836,0,0,1,.8-.8,2.38,2.38,0,0,0,2.413-2.38.8.8,0,0,1,.8-.8H41.955a.8.8,0,0,1,.8.8,2.413,2.413,0,0,0,2.413,2.38.8.8,0,0,1,.8.8V28.14a.8.8,0,0,1-.8.8,2.445,2.445,0,0,0-2.413,2.413A.8.8,0,0,1,41.955,32.161ZM7.5,30.553h33.84a3.989,3.989,0,0,1,3.217-3.217V8.969a4.021,4.021,0,0,1-3.217-3.217H7.6A4.085,4.085,0,0,1,4.384,8.969V27.433A4.021,4.021,0,0,1,7.6,30.553Z" transform="translate(6.296 9.409)"/>
      <line id="Line_67" data-name="Line 67" class="cls-5" x2="19.783" transform="translate(20.877 20.276)"/>
      <path id="Path_200" data-name="Path 200" class="cls-2" d="M26.827,7.658H7.044a.8.8,0,1,1,0-1.608H26.827a.8.8,0,1,1,0,1.608Z" transform="translate(13.832 13.422)"/>
      <line id="Line_68" data-name="Line 68" class="cls-5" x2="31.106" transform="translate(15.215 25.069)"/>
      <path id="Path_201" data-name="Path 201" class="cls-2" d="M36.39,9.108H5.284a.8.8,0,1,1,0-1.608H36.39a.8.8,0,0,1,.8.8A.836.836,0,0,1,36.39,9.108Z" transform="translate(9.931 16.636)"/>
      <line id="Line_69" data-name="Line 69" class="cls-5" x2="31.106" transform="translate(15.215 28.993)"/>
      <path id="Path_202" data-name="Path 202" class="cls-2" d="M36.39,10.368H5.284a.8.8,0,1,1,0-1.608H36.39a.8.8,0,0,1,0,1.608Z" transform="translate(9.931 19.429)"/>
      <line id="Line_70" data-name="Line 70" class="cls-5" x2="31.106" transform="translate(15.215 32.95)"/>
      <path id="Path_203" data-name="Path 203" class="cls-2" d="M36.39,11.6H5.284a.8.8,0,1,1,0-1.608H36.39a.8.8,0,0,1,0,1.608Z" transform="translate(9.931 22.155)"/>
    </g>
  </g>
</svg>
