<svg xmlns="http://www.w3.org/2000/svg" viewBox="0 0 22.411 20">
  <g id="Symbol_12_1" data-name="Symbol 12 – 1" transform="translate(-1280 -31)">
    <g id="Symbol_11_1" data-name="Symbol 11 – 1">
      <path id="Path_44" data-name="Path 44" class="cls-1" d="M22.411,8.482C22.277,3.839,17.5.134,11.384,0h-.357C5,0,.134,3.616,0,8.214v.134c0,2.634,1.652,5.179,4.42,6.786a13.418,13.418,0,0,1-.982,1.518c-.268.4-.536.8-.759,1.205l-.089.134a2.356,2.356,0,0,0-.357.982.983.983,0,0,0,.67.982h.045c.089,0,.179.045.268.045h0a3.271,3.271,0,0,0,1.339-.491l.268-.134c.58-.312,1.295-.759,1.964-1.161a11.291,11.291,0,0,1,.982-.58c.536-.312.938-.536,1.25-.714.179-.089.313-.134.4-.179h.045c.491.045.982.089,1.473.089h.313c6.071,0,10.893-3.616,11.027-8.214h0V8.571l.134-.089ZM5.089,17.232c.268-.4.536-.8.759-1.205l.045-.134a2.765,2.765,0,0,0,.357-1.071,1.012,1.012,0,0,0-.536-.938C3.17,12.589,1.652,10.491,1.652,8.259V8.17C1.7,4.509,5.893,1.562,11.027,1.562h.268c5.268.223,9.509,3.3,9.464,7.009v.134c-.045,3.616-4.241,6.607-9.375,6.607h-.312a13.519,13.519,0,0,1-1.384-.089H9.509a3.443,3.443,0,0,0-1.295.446l-.268.134c-.536.312-1.205.714-1.786,1.071-.357.223-.759.446-1.071.67-.045.045-.089.045-.134.089A.623.623,0,0,1,5.089,17.232Z" transform="translate(1280 31)"/>
    </g>
  </g>
</svg>
