<svg xmlns="http://www.w3.org/2000/svg" width="279.485" height="235.598" viewBox="0 0 279.485 235.598">
  <g id="Asset_4" data-name="Asset 4" transform="translate(0.011)">
    <g id="Layer_1" data-name="Layer 1" transform="translate(-0.011 0)">
      <line id="Line_18" data-name="Line 18" y2="12.314" transform="translate(174.033 112.994)" fill="#fff"/>
      <path id="Path_73" data-name="Path 73" d="M52.724,47.592a.834.834,0,0,1-.834-.834V34.444a.834.834,0,1,1,1.669,0V46.758A.834.834,0,0,1,52.724,47.592Z" transform="translate(121.309 78.549)" fill="#1f2740"/>
      <line id="Line_19" data-name="Line 19" y2="12.314" transform="translate(183.344 112.994)" fill="#fff"/>
      <path id="Path_74" data-name="Path 74" d="M55.514,47.592a.834.834,0,0,1-.834-.834V34.444a.834.834,0,1,1,1.669,0V46.758A.834.834,0,0,1,55.514,47.592Z" transform="translate(127.829 78.549)" fill="#1f2740"/>
      <line id="Line_20" data-name="Line 20" y2="12.314" transform="translate(192.654 112.994)" fill="#fff"/>
      <path id="Path_75" data-name="Path 75" d="M58.3,47.592a.834.834,0,0,1-.834-.834V34.444a.834.834,0,1,1,1.669,0V46.758A.834.834,0,0,1,58.3,47.592Z" transform="translate(134.35 78.549)" fill="#1f2740"/>
      <rect id="Rectangle_97" data-name="Rectangle 97" width="38.777" height="26.363" rx="0.95" transform="translate(163.955 83.527)" fill="#fff"/>
      <path id="Path_76" data-name="Path 76" d="M85.311,52.765H52.874a4,4,0,0,1-4-4V28.8a4,4,0,0,1,4-4H85.311a4,4,0,0,1,4.038,4V48.827a4,4,0,0,1-4.038,3.938ZM52.874,26.4a2.336,2.336,0,0,0-2.336,2.336V48.76A2.336,2.336,0,0,0,52.874,51.1H85.311a2.336,2.336,0,0,0,2.336-2.336V28.8a2.336,2.336,0,0,0-2.336-2.336Z" transform="translate(114.251 57.96)" fill="#1f2740"/>
      <path id="Path_611" data-name="Path 611" d="M.082,0H2.655a.082.082,0,0,1,.082.082V11.364a.082.082,0,0,1-.082.082H.082A.082.082,0,0,1,0,11.364V.082A.082.082,0,0,1,.082,0Z" transform="translate(181.975 101.547)" fill="#c088e6"/>
      <path id="Path_77" data-name="Path 77" d="M57.24,43.295H55.7A1.435,1.435,0,0,1,54.27,41.86V31.648A1.468,1.468,0,0,1,55.7,30.18H57.24a1.468,1.468,0,0,1,1.435,1.468V41.86A1.435,1.435,0,0,1,57.24,43.295Zm-1.3-1.669h1.068V31.849H55.939Z" transform="translate(126.871 70.533)" fill="#1f2740"/>
      <path id="Path_78" data-name="Path 78" d="M58.021,41.387a.834.834,0,0,1-.834-.834V30.241l-3.337-2.7a.868.868,0,0,1,0-1.2.834.834,0,0,1,1.168,0l3.337,2.97a.734.734,0,0,1,.3.634V40.62A.834.834,0,0,1,58.021,41.387Z" transform="translate(125.323 60.994)" fill="#1f2740"/>
      <path id="Path_612" data-name="Path 612" d="M.082,0H2.655a.082.082,0,0,1,.082.082V11.364a.082.082,0,0,1-.082.082H.082A.082.082,0,0,1,0,11.364V.082A.082.082,0,0,1,.082,0Z" transform="translate(191.286 101.547)" fill="#c088e6"/>
      <path id="Path_79" data-name="Path 79" d="M60.2,43.295H58.528A1.468,1.468,0,0,1,57.06,41.86V31.648a1.468,1.468,0,0,1,1.468-1.468H60.2a1.468,1.468,0,0,1,1.468,1.468V41.86A1.468,1.468,0,0,1,60.2,43.295Zm-1.3-1.669H60V31.849H58.9Z" transform="translate(133.392 70.533)" fill="#1f2740"/>
      <path id="Path_80" data-name="Path 80" d="M58.3,40.753a.834.834,0,0,1-.834-.834V27.2a.868.868,0,0,1,.834-.834.834.834,0,0,1,.834.834V39.919A.834.834,0,0,1,58.3,40.753Z" transform="translate(134.35 61.629)" fill="#1f2740"/>
      <rect id="Rectangle_100" data-name="Rectangle 100" width="2.736" height="11.446" rx="0.18" transform="translate(172.665 101.547)" fill="#c088e6"/>
      <path id="Path_81" data-name="Path 81" d="M54.45,43.295H52.915A1.435,1.435,0,0,1,51.48,41.86V31.648a1.468,1.468,0,0,1,1.435-1.468H54.45a1.468,1.468,0,0,1,1.435,1.468V41.86a1.435,1.435,0,0,1-1.435,1.435Zm-1.3-1.669h1.068V31.849h-1Z" transform="translate(120.351 70.533)" fill="#1f2740"/>
      <path id="Path_82" data-name="Path 82" d="M55.24,41.387a.834.834,0,0,1-.834-.834V30.241l-3.337-2.7a.838.838,0,1,1,1.168-1.2l3.337,2.97a.834.834,0,0,1,.3.634V40.62A.834.834,0,0,1,55.24,41.387Z" transform="translate(118.793 60.994)" fill="#1f2740"/>
      <circle id="Ellipse_20" data-name="Ellipse 20" cx="1.368" cy="1.368" r="1.368" transform="translate(191.286 87.465)" fill="#1f2740"/>
      <path id="Path_83" data-name="Path 83" d="M59.286,30.422a2.236,2.236,0,1,1,2.236-2.236,2.236,2.236,0,0,1-2.236,2.236Zm0-2.77a.567.567,0,0,0-.534.534c0,.6,1.1.6,1.1,0a.567.567,0,0,0-.567-.534Z" transform="translate(133.368 60.647)" fill="#1f2740"/>
      <path id="Path_84" data-name="Path 84" d="M69.784,110.482H63.11V24.652A20.022,20.022,0,0,1,83.132,4.63h43.382V11.3H83.132A13.348,13.348,0,0,0,69.784,24.652Z" transform="translate(147.531 10.821)" fill="#bbc1d1"/>
      <path id="Path_85" data-name="Path 85" d="M70.368,111.831H63.694A.834.834,0,0,1,62.86,111V25.167A20.79,20.79,0,0,1,83.617,4.41H127a.834.834,0,0,1,.834.834v6.674a.834.834,0,0,1-.834.834H83.617A12.581,12.581,0,0,0,71.036,25.334V111A.834.834,0,0,1,70.368,111.831ZM64.7,110.162h4.839v-85A14.283,14.283,0,0,1,83.783,10.917h42.381V6.079H83.783A19.121,19.121,0,0,0,64.7,25.167Z" transform="translate(146.947 10.307)" fill="#1f2740"/>
      <rect id="Rectangle_101" data-name="Rectangle 101" width="6.541" height="33.438" transform="translate(128.749 6.541)" fill="#bbc1d1"/>
      <path id="Path_86" data-name="Path 86" d="M45.778,36.723H39.1a.834.834,0,0,1-.834-.834V2.584A.834.834,0,0,1,39.1,1.75h6.674a.834.834,0,0,1,.834.834V35.955A.834.834,0,0,1,45.778,36.723Zm-5.673-1.669h4.839V3.285H40.105Z" transform="translate(89.478 4.09)" fill="#1f2740"/>
      <path id="Path_87" data-name="Path 87" d="M63.5,30.419H40.47a6.24,6.24,0,0,1-6.24-6.24V13.767A6.207,6.207,0,0,1,40.47,7.56H63.5A6.207,6.207,0,0,1,69.7,13.767V24.179a6.24,6.24,0,0,1-6.207,6.24ZM40.47,12.365a1.6,1.6,0,0,0-1.6,1.569V24.346a1.6,1.6,0,0,0,1.6,1.568H63.5a1.6,1.6,0,0,0,1.568-1.568V13.767a1.6,1.6,0,0,0-1.568-1.4Z" transform="translate(80.036 17.668)" fill="#98a0b2"/>
      <path id="Path_88" data-name="Path 88" d="M64.034,31.838H41.008A7.075,7.075,0,0,1,34,24.763V14.351A7.075,7.075,0,0,1,41.008,7.31H64.034a7.075,7.075,0,0,1,7.041,7.041V24.763a7.075,7.075,0,0,1-7.041,7.075ZM41.008,8.979A5.373,5.373,0,0,0,35.6,14.351V24.763a5.406,5.406,0,0,0,5.406,5.406H64.034a5.406,5.406,0,0,0,5.373-5.406V14.351a5.373,5.373,0,0,0-5.373-5.373ZM64.034,27.166H41.008a2.436,2.436,0,0,1-2.436-2.4V14.351a2.436,2.436,0,0,1,2.436-2.4H64.034a2.436,2.436,0,0,1,2.4,2.4V24.763a2.436,2.436,0,0,1-2.4,2.4ZM41.008,13.617a.8.8,0,0,0-.768.734V24.763a.768.768,0,0,0,.768.734H64.034a.767.767,0,0,0,.734-.734V14.351a.8.8,0,0,0-.734-.734Z" transform="translate(79.498 17.084)" fill="#1f2740"/>
      <path id="Path_613" data-name="Path 613" d="M0,0H140.892V6.541H0Z" transform="translate(133.921 3.27)" fill="#bbc1d1"/>
      <path id="Path_89" data-name="Path 89" d="M181.6,8.892H40.7a.834.834,0,0,1-.834-.834V1.584A.834.834,0,0,1,40.7.75H181.6a.834.834,0,0,1,.834.834V8.258A.834.834,0,0,1,181.6,8.892ZM41.438,7.224H180.762V2.352H41.539Z" transform="translate(93.217 1.753)" fill="#1f2740"/>
      <rect id="Rectangle_103" data-name="Rectangle 103" width="38.577" height="10.579" rx="0.74" transform="translate(112.731 45.818)" fill="#ffd629"/>
      <path id="Path_90" data-name="Path 90" d="M70.451,25.784h-33.6a3.337,3.337,0,0,1-3.337-3.337v-5.64a3.337,3.337,0,0,1,3.337-3.337h33.6a3.337,3.337,0,0,1,3.337,3.337v5.64A3.337,3.337,0,0,1,70.451,25.784Zm-33.6-10.545a1.635,1.635,0,0,0-1.635,1.635v5.64a1.635,1.635,0,0,0,1.635,1.669h33.6a1.635,1.635,0,0,0,1.635-1.669V16.807a1.635,1.635,0,0,0-1.635-1.635Z" transform="translate(78.353 31.48)" fill="#1f2740"/>
      <path id="Path_91" data-name="Path 91" d="M32.317,30.932l10.011-7.041H70.793L80.8,30.932V17.584A6.674,6.674,0,0,0,74.13,10.91H38.924a6.674,6.674,0,0,0-6.674,6.674V30.265" transform="translate(75.409 25.498)" fill="#eef1f6"/>
      <path id="Path_92" data-name="Path 92" d="M32.816,32.3a.868.868,0,0,1-.667-.367.768.768,0,0,1,0-.8.634.634,0,0,1,0-.334V18.122a7.442,7.442,0,0,1,7.442-7.442H74.763a7.442,7.442,0,0,1,7.442,7.442V31.47a.834.834,0,0,1-1.335.667L70.859,25.263h-27.7l-9.844,6.874a1,1,0,0,1-.5.167Zm10.011-8.71H71.293a1,1,0,0,1,.5,0L80.537,29.7V18.122a5.807,5.807,0,0,0-5.773-5.773H39.424a5.807,5.807,0,0,0-5.773,5.773V29.868l8.743-6.107a1,1,0,0,1,.5-.167Z" transform="translate(74.909 24.96)" fill="#1f2740"/>
      <rect id="Rectangle_104" data-name="Rectangle 104" width="7.709" height="23.66" rx="0.3" transform="translate(270.975 0.834)" fill="#eef1f6"/>
      <path id="Path_93" data-name="Path 93" d="M88.482,25.328h-5.74a1.8,1.8,0,0,1-1.8-1.8V1.835A1.835,1.835,0,0,1,82.742,0h5.739a1.835,1.835,0,0,1,1.8,1.835V23.526A1.8,1.8,0,0,1,88.482,25.328Zm-5.74-23.66V23.526h5.74V1.669Z" transform="translate(189.201 0)" fill="#1f2740"/>
      <rect id="Rectangle_105" data-name="Rectangle 105" width="11.012" height="11.413" rx="0.3" transform="translate(126.513 0.834)" fill="#eef1f6"/>
      <path id="Path_94" data-name="Path 94" d="M48.5,13.081H39.452a1.835,1.835,0,0,1-1.8-1.835V1.835A1.835,1.835,0,0,1,39.452,0H48.5a1.835,1.835,0,0,1,1.8,1.835v9.411a1.835,1.835,0,0,1-1.8,1.835ZM39.452,1.669v9.577H48.5V1.669Z" transform="translate(88.029 0)" fill="#1f2740"/>
      <path id="Path_95" data-name="Path 95" d="M122.1,152.218V40.526A5.206,5.206,0,0,0,116.9,35.32H49.956a5.206,5.206,0,0,0-5.206,5.206V152.218Z" transform="translate(104.622 82.546)" fill="#eef1f6"/>
      <path id="Path_96" data-name="Path 96" d="M122.688,153.636H45.334a.834.834,0,0,1-.834-.834V41.11a6.04,6.04,0,0,1,6.04-6.04h66.942a6.04,6.04,0,0,1,6.04,6.04V152.8A.834.834,0,0,1,122.688,153.636Zm-76.519-1.669h75.685V41.11a4.372,4.372,0,0,0-4.372-4.372H50.54a4.372,4.372,0,0,0-4.372,4.372Z" transform="translate(104.038 81.961)" fill="#1f2740"/>
      <line id="Line_21" data-name="Line 21" x2="77.354" transform="translate(149.372 127.977)" fill="#fff"/>
      <path id="Path_97" data-name="Path 97" d="M122.688,39.769H45.334a.834.834,0,1,1,0-1.669h77.354a.834.834,0,1,1,0,1.669Z" transform="translate(104.038 89.043)" fill="#1f2740"/>
      <rect id="Rectangle_106" data-name="Rectangle 106" width="66.475" height="24.795" transform="translate(154.812 133.417)" fill="#c3deff"/>
      <path id="Path_98" data-name="Path 98" d="M113.439,66.146H46.964a.834.834,0,0,1-.834-.834V40.584a.834.834,0,0,1,.834-.834h66.475a.834.834,0,0,1,.834.834V65.379A.834.834,0,0,1,113.439,66.146ZM47.8,64.478H112.6V41.352H47.8Z" transform="translate(107.847 92.899)" fill="#1f2740"/>
      <path id="Path_614" data-name="Path 614" d="M0,0H66.475V24.795H0Z" transform="translate(154.812 193.918)" fill="#c3deff"/>
      <path id="Path_99" data-name="Path 99" d="M113.439,84.323H46.964a.834.834,0,0,1-.834-.834V58.694a.834.834,0,0,1,.834-.834h66.475a.834.834,0,0,1,.834.834V83.489A.834.834,0,0,1,113.439,84.323ZM47.8,82.655H112.6V59.529H47.8Z" transform="translate(107.847 135.224)" fill="#1f2740"/>
      <rect id="Rectangle_108" data-name="Rectangle 108" width="66.475" height="24.795" transform="translate(154.812 163.65)" fill="#c3deff"/>
      <path id="Path_100" data-name="Path 100" d="M113.439,75.347H46.964a.834.834,0,0,1-.834-.834V49.584a.834.834,0,0,1,.834-.834h66.475a.834.834,0,0,1,.834.834V74.379a.834.834,0,0,1-.834.968ZM47.8,73.678H112.6V50.552H47.8Z" transform="translate(107.847 113.933)" fill="#1f2740"/>
      <circle id="Ellipse_21" data-name="Ellipse 21" cx="2.97" cy="2.97" r="2.97" transform="translate(185.079 142.86)" fill="#1f2740"/>
      <circle id="Ellipse_22" data-name="Ellipse 22" cx="2.97" cy="2.97" r="2.97" transform="translate(185.079 175.264)" fill="#1f2740"/>
      <circle id="Ellipse_23" data-name="Ellipse 23" cx="2.97" cy="2.97" r="2.97" transform="translate(185.079 203.328)" fill="#1f2740"/>
      <path id="Path_609" data-name="Path 609" d="M0,0H58.566V19.055H0Z" transform="translate(73.921 193.617)" fill="#bbc1d1"/>
      <path id="Path_101" data-name="Path 101" d="M81.29,78.607H22.724a.834.834,0,0,1-.834-.834V58.584a.834.834,0,0,1,.834-.834H81.29a.834.834,0,0,1,.834.834V77.639a.834.834,0,0,1-.834.968ZM23.559,76.938h56.73V59.485H23.559Z" transform="translate(51.196 134.966)" fill="#1f2740"/>
      <path id="Path_102" data-name="Path 102" d="M4.23,39.576,7.6,37.34h0Z" transform="translate(9.924 87.267)" fill="#fff"/>
      <path id="Path_103" data-name="Path 103" d="M4.785,41.01a.868.868,0,0,1-.768-.367,1.235,1.235,0,0,1,0-.5.834.834,0,0,1,.4-.7l3.337-2.236a.868.868,0,0,1,1.168.267.734.734,0,0,1,0,.434.868.868,0,0,1-.367.7L5.219,40.843a.767.767,0,0,1-.434.167Z" transform="translate(9.368 86.667)" fill="#1f2740"/>
      <path id="Path_104" data-name="Path 104" d="M19.628,57.342l-6.774,4.438L5.078,50V25.44H1.04v25.8l4.038,6.107,6.607,10.045,3.37-2.236,6.774-4.438Z" transform="translate(2.468 59.455)" fill="#bbc1d1"/>
      <path id="Path_105" data-name="Path 105" d="M12.178,68.806h-.167a.9.9,0,0,1-.534-.334L.865,52.254a.667.667,0,0,1,0-.434v-25.8A.834.834,0,0,1,1.7,25.19H5.6a.834.834,0,0,1,.834.834V50.352L13.58,61.264l6.073-4a.834.834,0,0,1,1.168.234l2.2,3.337A.834.834,0,0,1,22.79,62L12.779,68.672A.768.768,0,0,1,12.178,68.806ZM2.4,51.553,12.412,66.8l8.777-5.74-1.3-2-6.073,4a.8.8,0,0,1-1.168-.234L4.9,51.052a.768.768,0,0,1,0-.467V26.859H2.4Z" transform="translate(1.975 58.871)" fill="#1f2740"/>
      <line id="Line_22" data-name="Line 22" x2="38.176" transform="translate(80.962 202.694)" fill="#fff"/>
      <path id="Path_106" data-name="Path 106" d="M63.01,62.169H24.834a.834.834,0,0,1,0-1.669H63.01a.834.834,0,1,1,0,1.669Z" transform="translate(56.128 141.393)" fill="#1f2740"/>
      <line id="Line_23" data-name="Line 23" x2="38.176" transform="translate(80.962 206.599)" fill="#fff"/>
      <path id="Path_107" data-name="Path 107" d="M63.01,63.329H24.834a.834.834,0,1,1,0-1.669H63.01a.834.834,0,1,1,0,1.669Z" transform="translate(56.128 144.104)" fill="#1f2740"/>
      <path id="Path_108" data-name="Path 108" d="M83.311,67.77H22.643A8.61,8.61,0,0,0,14,76.38H83.311Z" transform="translate(32.757 158.384)" fill="#bbc1d1"/>
      <path id="Path_109" data-name="Path 109" d="M83.9,77.8H14.584a.834.834,0,0,1-.834-.834,9.444,9.444,0,0,1,9.444-9.444H83.9a.834.834,0,0,1,.834.834v8.61A.834.834,0,0,1,83.9,77.8ZM15.485,76.13H83.061V69.122H23.227a7.842,7.842,0,0,0-7.742,7.008Z" transform="translate(32.173 157.8)" fill="#1f2740"/>
      <path id="Path_110" data-name="Path 110" d="M59.816,57.6a13.749,13.749,0,0,0-12.481,8.009h0L30.65,100.081H108.3A42.548,42.548,0,0,0,65.723,57.6H58.515" transform="translate(71.669 134.616)" fill="#eef1f6"/>
      <path id="Path_111" data-name="Path 111" d="M108.957,101.514H31.17a.868.868,0,0,1-.7-.367.934.934,0,0,1,0-.834L47.154,65.841A14.683,14.683,0,0,1,58.667,57.4a.8.8,0,0,1,.4,0h7.275a43.382,43.382,0,0,1,43.382,43.382A.834.834,0,0,1,108.957,101.514ZM32.471,99.845h75.618A41.747,41.747,0,0,0,66.376,58.966H60.469a13.015,13.015,0,0,0-11.747,7.508Z" transform="translate(71.016 134.084)" fill="#1f2740"/>
      <circle id="Ellipse_24" data-name="Ellipse 24" cx="5.706" cy="5.706" r="5.706" transform="translate(125.779 200.258)" fill="#98a0b2"/>
      <path id="Path_112" data-name="Path 112" d="M44.064,73.028a6.674,6.674,0,1,1,6.674-6.674A6.674,6.674,0,0,1,44.064,73.028Zm0-11.379a4.839,4.839,0,1,0,3.443,1.405,4.872,4.872,0,0,0-3.443-1.405Z" transform="translate(87.421 139.477)" fill="#1f2740"/>
      <path id="Path_113" data-name="Path 113" d="M70.185,86.426a.868.868,0,0,1-.834-.634A33.137,33.137,0,0,0,43.489,61.8a.848.848,0,1,1,.3-1.669,34.973,34.973,0,0,1,27.2,25.262.834.834,0,0,1-.8,1.034Z" transform="translate(100.044 140.496)" fill="#1f2740"/>
      <path id="Path_114" data-name="Path 114" d="M18,50.68V81.114a13.949,13.949,0,1,0,27.9,0V50.68Z" transform="translate(42.105 118.443)" fill="#eef1f6"/>
      <path id="Path_115" data-name="Path 115" d="M32.493,96.448A14.783,14.783,0,0,1,17.71,81.7V51.264a.834.834,0,0,1,.834-.834h27.9a.834.834,0,0,1,.834.834V81.7a14.783,14.783,0,0,1-14.783,14.75ZM19.379,52.1V81.7a13.115,13.115,0,1,0,26.229,0V52.1Z" transform="translate(41.427 117.859)" fill="#1f2740"/>
      <circle id="Ellipse_25" data-name="Ellipse 25" cx="5.706" cy="5.706" r="5.706" transform="translate(68.214 193.851)" fill="#98a0b2"/>
      <path id="Path_116" data-name="Path 116" d="M26.814,71.1a6.674,6.674,0,1,1,6.674-6.674A6.674,6.674,0,0,1,26.814,71.1Zm0-11.379a4.872,4.872,0,1,0,4.872,4.872,4.872,4.872,0,0,0-4.872-4.872Z" transform="translate(47.107 134.966)" fill="#1f2740"/>
      <rect id="Rectangle_110" data-name="Rectangle 110" width="108.522" height="8.643" transform="translate(57.721 177.232) rotate(-15.18)" fill="#bbc1d1"/>
      <path id="Path_117" data-name="Path 117" d="M20.379,82.758a.834.834,0,0,1-.8-.6l-2.536-8.343a.868.868,0,0,1,0-.634.768.768,0,0,1,.5-.4l104.951-28.4a.834.834,0,0,1,1.035.6l2.269,8.209a.8.8,0,0,1,0,.634.767.767,0,0,1-.5.4L20.379,82.725Zm-1.235-8.576,1.835,6.674L123.829,52.925l-1.835-6.674Z" transform="translate(39.726 103.651)" fill="#1f2740"/>
      <path id="Path_608" data-name="Path 608" d="M0,0H65.774V8.643H0Z" transform="matrix(0.55, 0.835, -0.835, 0.55, 22.989, 109.786)" fill="#bbc1d1"/>
      <path id="Path_118" data-name="Path 118" d="M41.41,93.893h-.167a1.034,1.034,0,0,1-.534-.367L4.535,38.7a1.035,1.035,0,0,1,0-.634A.834.834,0,0,1,4.9,37.53l7.208-4.739a.834.834,0,0,1,1.168.234l36.04,54.928a.8.8,0,0,1-.234,1.135l-7.208,4.805A.767.767,0,0,1,41.41,93.893ZM6.4,38.464l35.24,53.393,5.84-3.838L12.244,34.627Z" transform="translate(10.52 76.298)" fill="#1f2740"/>
      <line id="Line_24" data-name="Line 24" y1="22.292" x2="82.159" transform="translate(62.842 157.977)" fill="#fff"/>
      <path id="Path_119" data-name="Path 119" d="M19.4,71.05a.833.833,0,0,1-.234-1.635l82.192-22.292a.8.8,0,0,1,1,.567.834.834,0,0,1-.567,1.034L19.6,71.016Z" transform="translate(43.438 110.054)" fill="#1f2740"/>
      <path id="Path_120" data-name="Path 120" d="M174.383,61.2,111.212,41.916a6.941,6.941,0,0,0-2.6-.267h0a3.9,3.9,0,0,0-.868,0h-.567L91.79,45.787h0L19.709,65.575a7.308,7.308,0,0,0,3.8,14.016l85.429-23.159,61.135,18.688a7.315,7.315,0,1,0,4.3-13.982Z" transform="translate(35.324 97.274)" fill="#0072ff"/>
      <path id="Path_121" data-name="Path 121" d="M22.744,81.179a8.149,8.149,0,0,1-2.1-16.018L92.422,45.672h0l15.384-4.138.339-.033h1.33a10.065,10.065,0,0,1,3.037.3l63.238,19.021h0a8.343,8.343,0,0,1,4.805,3.971,8.139,8.139,0,0,1-9.444,11.613L110.076,57.786,24.847,80.879A7.609,7.609,0,0,1,22.744,81.179ZM93.223,47.208h-.167L21.076,66.663a6.674,6.674,0,0,0-3.938,3,6.474,6.474,0,0,0,7.275,9.477l85.429-23.159a1.1,1.1,0,0,1,.467,0l61.135,18.688a6.674,6.674,0,0,0,4.939-.467,6.407,6.407,0,0,0,3.037-3.7,6.14,6.14,0,0,0-.467-4.906,6.307,6.307,0,0,0-3.8-3.337L112.111,43.3a8.647,8.647,0,0,0-2.329-.234c-.178-.006-.3,0-.308,0h-1.068Z" transform="translate(34.191 96.854)" fill="#1f2740"/>
      <path id="Path_122" data-name="Path 122" d="M46.831,89.355a7.308,7.308,0,0,0,2.1-10.011L19.234,34.26A7.308,7.308,0,1,0,7.02,42.269l29.6,44.984a7.308,7.308,0,0,0,10.211,2.1Z" transform="translate(13.274 71.793)" fill="#0072ff"/>
      <path id="Path_123" data-name="Path 123" d="M43.239,91.812a6.907,6.907,0,0,1-1.669-.2,8.042,8.042,0,0,1-5.172-3.5L6.8,43.158a8.142,8.142,0,0,1-1.168-6.14,8.309,8.309,0,0,1,3.337-5.139,8.142,8.142,0,0,1,6.14-1.168,8.309,8.309,0,0,1,5.139,3.5L49.847,79.2a8.176,8.176,0,0,1-2.336,11.279h0A8.142,8.142,0,0,1,43.239,91.812ZM13.606,32.079A6.485,6.485,0,0,0,8.2,42.09L37.8,87.074a6.47,6.47,0,1,0,10.812-7.108l-29.6-44.817a6.374,6.374,0,0,0-4.1-2.8,8.607,8.607,0,0,0-1.3-.267Zm33.7,57.7Z" transform="translate(12.794 71.371)" fill="#1f2740"/>
      <path id="Path_610" data-name="Path 610" d="M0,0H21.691V8.643H0Z" transform="translate(9.084 76.034) rotate(71.62)" fill="#bbc1d1"/>
      <path id="Path_124" data-name="Path 124" d="M7.7,47.507a.667.667,0,0,1-.367,0,.8.8,0,0,1-.434-.5L.026,26.417A.868.868,0,0,1,.56,25.349l8.209-2.7a.834.834,0,0,1,1.268.5l6.674,20.59a.834.834,0,0,1-.534,1.035L7.969,47.507ZM1.929,26.684,8.236,45.672l6.674-2.2L8.536,24.481Z" transform="translate(0.011 52.606)" fill="#1f2740"/>
      <path id="Path_125" data-name="Path 125" d="M16.355,53.134a7.46,7.46,0,0,0,4.236-3.892,8.219,8.219,0,0,0,.4-5.937L15.42,25.564a7.15,7.15,0,0,0-8.8-3.926,7.824,7.824,0,0,0-4.946,8.681L7.245,48.06A7.2,7.2,0,0,0,16.355,53.134Z" transform="translate(3.705 47.758)" fill="#0072ff"/>
      <path id="Path_126" data-name="Path 126" d="M15.047,53.782a8.343,8.343,0,0,1-3.671-.868A8.209,8.209,0,0,1,7.2,48.209L1.632,31.523a8.221,8.221,0,1,1,15.584-5.239L22.789,42.97a8.176,8.176,0,0,1-5.172,10.278A8.376,8.376,0,0,1,15.047,53.782ZM9.44,22.38a6.007,6.007,0,0,0-2,.334,6.441,6.441,0,0,0-4.1,8.176L8.907,47.575a6.274,6.274,0,0,0,3.337,3.738,6.674,6.674,0,0,0,4.972.467h0a6.474,6.474,0,0,0,4.1-8.176L15.714,26.918A6.441,6.441,0,0,0,9.44,22.38Z" transform="translate(2.844 48.333)" fill="#1f2740"/>
    </g>
  </g>
</svg>
