<svg xmlns="http://www.w3.org/2000/svg" viewBox="6266 -3051 129 96.336">
  <defs>
    <style>
      .cls-1 {
        fill: #e9e9ea;
      }

      .cls-2 {
        fill: #1f2740;
      }

      .cls-3 {
        fill: #fff;
      }

      .cls-4 {
        fill: #0072ff;
      }

      .cls-5 {
        fill: #d1d1d1;
      }

      .cls-6 {
        opacity: 0.85;
      }
    </style>
  </defs>
  <g id="Group_254" data-name="Group 254" transform="translate(6266 -3051)">
    <g id="Group_228" data-name="Group 228" transform="translate(19.433)">
      <path id="Path_565" data-name="Path 565" class="cls-1" d="M108.679,75.45H9.035A4.143,4.143,0,0,1,4.9,71.315V4.335A4.143,4.143,0,0,1,9.035.2h99.644a4.143,4.143,0,0,1,4.135,4.135V71.315C112.4,73.8,110.746,75.45,108.679,75.45Z" transform="translate(-4.073 0.627)"/>
      <path id="Path_566" data-name="Path 566" class="cls-2" d="M109.306,76.9H9.662A4.777,4.777,0,0,1,4.7,71.942V4.962A4.777,4.777,0,0,1,9.662,0h99.644a4.777,4.777,0,0,1,4.962,4.962V71.942A4.777,4.777,0,0,1,109.306,76.9ZM9.662,2.067A2.826,2.826,0,0,0,6.767,4.962V71.942a2.826,2.826,0,0,0,2.894,2.894h99.644a2.826,2.826,0,0,0,2.894-2.894V4.962a2.826,2.826,0,0,0-2.894-2.894H9.662Z" transform="translate(-4.7)"/>
    </g>
    <g id="Group_229" data-name="Group 229" transform="translate(61.835 74.837)">
      <path id="Path_567" data-name="Path 567" class="cls-1" d="M15.1,27.91l3.308-9.51H35.36l3.308,9.51Z" transform="translate(-14.503 -17.16)"/>
      <path id="Path_568" data-name="Path 568" class="cls-2" d="M39.12,30.09H15.966c-.413,0-.827,0-.827-.413s-.413-.413,0-.827l3.308-9.923a.889.889,0,0,1,.827-.827H35.812a.889.889,0,0,1,.827.827l3.308,9.923v.827A1.281,1.281,0,0,1,39.12,30.09ZM17.207,28.023H37.88L35.4,20.167H19.687Z" transform="translate(-14.956 -18.1)"/>
    </g>
    <g id="Group_230" data-name="Group 230" transform="translate(50.672 83.106)">
      <path id="Path_569" data-name="Path 569" class="cls-1" d="M55.5,20.2H14.567L12.5,24.748H57.567Z" transform="translate(-11.489 -19.787)"/>
      <path id="Path_570" data-name="Path 570" class="cls-2" d="M58.334,26.3H13.266c-.413,0-.827,0-.827-.413s-.413-.827,0-.827l2.067-4.548c0-.413.413-.413.827-.413H56.266a1.444,1.444,0,0,1,.827.413l2.067,4.548v.827C58.747,25.888,58.747,26.3,58.334,26.3ZM14.92,24.235H56.68l-1.24-2.481H15.747Z" transform="translate(-12.256 -20.1)"/>
    </g>
    <g id="Group_231" data-name="Group 231" transform="translate(25.221 6.202)">
      <path id="Path_571" data-name="Path 571" class="cls-3" d="M99.842,59.271H8.054A1.779,1.779,0,0,1,6.4,57.617V3.454A1.779,1.779,0,0,1,8.054,1.8H99.842A1.779,1.779,0,0,1,101.5,3.454V57.617C101.91,58.444,101.083,59.271,99.842,59.271Z" transform="translate(-5.16 -0.56)"/>
      <path id="Path_572" data-name="Path 572" class="cls-4" d="M100.783,61.038H8.994A2.826,2.826,0,0,1,6.1,58.144V4.394A2.826,2.826,0,0,1,8.994,1.5h91.788a2.826,2.826,0,0,1,2.894,2.894V58.558A2.765,2.765,0,0,1,100.783,61.038ZM8.994,3.567c-.413,0-.413.413-.413.827V58.558a.889.889,0,0,0,.827.827h91.375a.889.889,0,0,0,.827-.827V4.394a.889.889,0,0,0-.827-.827Z" transform="translate(-6.1 -1.5)"/>
    </g>
    <g id="Group_232" data-name="Group 232" transform="translate(31.01 11.99)">
      <circle id="Ellipse_123" data-name="Ellipse 123" class="cls-4" cx="1.24" cy="1.24" r="1.24"/>
      <path id="Path_607" data-name="Path 607" class="cls-4" d="M1.24,0A1.24,1.24,0,1,1,0,1.24,1.24,1.24,0,0,1,1.24,0Z" transform="translate(4.135)"/>
      <circle id="Ellipse_125" data-name="Ellipse 125" class="cls-4" cx="1.24" cy="1.24" r="1.24" transform="translate(7.856)"/>
    </g>
    <g id="Group_236" data-name="Group 236" transform="translate(29.356 17.365)">
      <g id="Group_233" data-name="Group 233">
        <path id="Path_573" data-name="Path 573" class="cls-1" d="M37.783,39.017H8.84a1.1,1.1,0,0,1-1.24-1.24V5.94A1.1,1.1,0,0,1,8.84,4.7H38.2a1.1,1.1,0,0,1,1.24,1.24V37.777A1.846,1.846,0,0,1,37.783,39.017Z" transform="translate(-5.533 -2.633)"/>
        <path id="Path_574" data-name="Path 574" class="cls-3" d="M39.35,6.267a1.1,1.1,0,0,1,1.24,1.24V39.344a1.1,1.1,0,0,1-1.24,1.24H10.408a1.1,1.1,0,0,1-1.24-1.24V7.508a1.1,1.1,0,0,1,1.24-1.24H39.35m0-2.067H10.408A3.261,3.261,0,0,0,7.1,7.508V39.344a3.261,3.261,0,0,0,3.308,3.308H39.763a3.261,3.261,0,0,0,3.308-3.308V7.508A3.975,3.975,0,0,0,39.35,4.2Z" transform="translate(-7.1 -4.2)"/>
      </g>
      <g id="Group_234" data-name="Group 234" transform="translate(5.375 5.788)">
        <path id="Path_575" data-name="Path 575" class="cls-3" d="M15.842,7.4a5.877,5.877,0,0,1-2.481.827A5.877,5.877,0,0,1,10.881,7.4C9.64,7.813,8.4,8.64,8.4,9.054v4.135a12.457,12.457,0,0,0,4.962,1.24,12.457,12.457,0,0,0,4.962-1.24V9.054C18.737,8.64,17.5,7.813,15.842,7.4Z" transform="translate(-8.4 0.042)"/>
        <path id="Path_576" data-name="Path 576" class="cls-3" d="M11.794,5.6A2.826,2.826,0,0,0,8.9,8.494v1.654a2.826,2.826,0,0,0,2.894,2.894,2.826,2.826,0,0,0,2.894-2.894V8.494C15.1,6.84,13.448,5.6,11.794,5.6Z" transform="translate(-6.833 -5.6)"/>
      </g>
      <g id="Group_235" data-name="Group 235" transform="translate(19.019 7.856)">
        <path id="Path_577" data-name="Path 577" class="cls-3" d="M21.623,9.954h-9.1a.889.889,0,0,1-.827-.827.889.889,0,0,1,.827-.827h9.1a.889.889,0,0,1,.827.827A.889.889,0,0,1,21.623,9.954Z" transform="translate(-11.7 0.796)"/>
        <path id="Path_578" data-name="Path 578" class="cls-3" d="M21.623,8.854h-9.1a.889.889,0,0,1-.827-.827.889.889,0,0,1,.827-.827h9.1a.889.889,0,0,1,.827.827A.889.889,0,0,1,21.623,8.854Z" transform="translate(-11.7 -2.652)"/>
        <path id="Path_579" data-name="Path 579" class="cls-3" d="M21.623,7.754h-9.1a.889.889,0,0,1-.827-.827.889.889,0,0,1,.827-.827h9.1a.889.889,0,0,1,.827.827A.889.889,0,0,1,21.623,7.754Z" transform="translate(-11.7 -6.1)"/>
      </g>
      <path id="Path_580" data-name="Path 580" class="cls-3" d="M31.654,11.754H9.327a.889.889,0,0,1-.827-.827.889.889,0,0,1,.827-.827H31.654a.889.889,0,0,1,.827.827A.889.889,0,0,1,31.654,11.754Z" transform="translate(-2.712 14.294)"/>
      <path id="Path_581" data-name="Path 581" class="cls-3" d="M31.654,12.854H9.327a.889.889,0,0,1-.827-.827.889.889,0,0,1,.827-.827H31.654a.889.889,0,0,1,.827.827A.889.889,0,0,1,31.654,12.854Z" transform="translate(-2.712 17.742)"/>
    </g>
    <g id="Group_240" data-name="Group 240" transform="translate(83.106 17.365)">
      <g id="Group_237" data-name="Group 237">
        <path id="Path_582" data-name="Path 582" class="cls-1" d="M51.2,39.017H21.84a1.1,1.1,0,0,1-1.24-1.24V5.94A1.1,1.1,0,0,1,21.84,4.7H51.2a1.1,1.1,0,0,1,1.24,1.24V37.777A1.32,1.32,0,0,1,51.2,39.017Z" transform="translate(-18.533 -2.633)"/>
        <path id="Path_583" data-name="Path 583" class="cls-3" d="M52.763,6.267A1.1,1.1,0,0,1,54,7.508V39.344a1.1,1.1,0,0,1-1.24,1.24H23.408a1.1,1.1,0,0,1-1.24-1.24V7.508a1.1,1.1,0,0,1,1.24-1.24H52.763m0-2.067H23.408A3.261,3.261,0,0,0,20.1,7.508V39.344a3.261,3.261,0,0,0,3.308,3.308H52.763a3.261,3.261,0,0,0,3.308-3.308V7.508A3.557,3.557,0,0,0,52.763,4.2Z" transform="translate(-20.1 -4.2)"/>
      </g>
      <g id="Group_238" data-name="Group 238" transform="translate(5.788 5.788)">
        <path id="Path_584" data-name="Path 584" class="cls-3" d="M28.942,7.4a5.877,5.877,0,0,1-2.481.827A5.877,5.877,0,0,1,23.981,7.4C22.74,7.813,21.5,8.64,21.5,9.467V13.6a12.457,12.457,0,0,0,4.962,1.24,12.457,12.457,0,0,0,4.962-1.24V9.467C31.423,8.64,30.183,7.813,28.942,7.4Z" transform="translate(-21.5 0.042)"/>
        <path id="Path_585" data-name="Path 585" class="cls-3" d="M24.894,5.6A2.826,2.826,0,0,0,22,8.494v1.654a2.894,2.894,0,0,0,5.788,0V8.494A2.826,2.826,0,0,0,24.894,5.6Z" transform="translate(-19.933 -5.6)"/>
      </g>
      <g id="Group_239" data-name="Group 239" transform="translate(19.27 7.442)">
        <path id="Path_586" data-name="Path 586" class="cls-3" d="M34.723,9.954h-9.1a.889.889,0,0,1-.827-.827.889.889,0,0,1,.827-.827h9.1a.889.889,0,0,1,.827.827A.889.889,0,0,1,34.723,9.954Z" transform="translate(-24.638 1.21)"/>
        <path id="Path_587" data-name="Path 587" class="cls-3" d="M34.723,8.854h-9.1a.889.889,0,0,1-.827-.827.889.889,0,0,1,.827-.827h9.1a.889.889,0,0,1,.827.827A.889.889,0,0,1,34.723,8.854Z" transform="translate(-24.638 -2.238)"/>
        <path id="Path_588" data-name="Path 588" class="cls-3" d="M34.846,8.067h-9.1a.889.889,0,0,1-.827-.827c-.413-.827,0-1.24.827-1.24h9.1a.889.889,0,0,1,.827.827C35.673,7.654,35.26,8.067,34.846,8.067Z" transform="translate(-24.761 -6)"/>
      </g>
      <path id="Path_589" data-name="Path 589" class="cls-3" d="M44.754,11.754H22.427a.889.889,0,0,1-.827-.827.889.889,0,0,1,.827-.827H44.754a.889.889,0,0,1,.827.827A.889.889,0,0,1,44.754,11.754Z" transform="translate(-15.398 14.294)"/>
      <path id="Path_590" data-name="Path 590" class="cls-3" d="M44.754,12.854H22.427a.889.889,0,0,1-.827-.827.889.889,0,0,1,.827-.827H44.754a.889.889,0,0,1,.827.827A.889.889,0,0,1,44.754,12.854Z" transform="translate(-15.398 17.742)"/>
    </g>
    <g id="Group_244" data-name="Group 244" transform="translate(53.75 14.471)">
      <g id="Group_241" data-name="Group 241">
        <path id="Path_591" data-name="Path 591" class="cls-5" d="M52.279,47.74H14.654A1.779,1.779,0,0,1,13,46.087V5.154A1.779,1.779,0,0,1,14.654,3.5H52.279a1.779,1.779,0,0,1,1.654,1.654V45.673A1.892,1.892,0,0,1,52.279,47.74Z" transform="translate(-13 -3.5)"/>
      </g>
      <g id="Group_242" data-name="Group 242" transform="translate(4.135 4.962)">
        <path id="Path_592" data-name="Path 592" class="cls-3" d="M23.923,7a4.7,4.7,0,0,1-3.308,1.24A5.5,5.5,0,0,1,17.308,7C15.654,7.827,14,8.654,14,9.481v5.375a13.092,13.092,0,0,0,6.615,1.654c2.481,0,3.721-.413,6.615-1.654V9.481C27.231,8.654,25.99,7.413,23.923,7Z" transform="translate(-14 2.51)"/>
        <path id="Path_593" data-name="Path 593" class="cls-3" d="M18.521,4.7A3.706,3.706,0,0,0,14.8,8.421v2.067a3.721,3.721,0,0,0,7.442,0V8.008C22.242,6.354,20.175,4.7,18.521,4.7Z" transform="translate(-11.492 -4.7)"/>
      </g>
      <g id="Group_243" data-name="Group 243" transform="translate(22.327 7.856)">
        <path id="Path_594" data-name="Path 594" class="cls-3" d="M30.8,9.854H19.227a.889.889,0,0,1-.827-.827.889.889,0,0,1,.827-.827H30.8a.889.889,0,0,1,.827.827A.889.889,0,0,1,30.8,9.854Z" transform="translate(-18.4 3.377)"/>
        <path id="Path_595" data-name="Path 595" class="cls-3" d="M30.8,8.454H19.227a.889.889,0,0,1-.827-.827.889.889,0,0,1,.827-.827H30.8a.889.889,0,0,1,.827.827A.889.889,0,0,1,30.8,8.454Z" transform="translate(-18.4 -1.012)"/>
        <path id="Path_596" data-name="Path 596" class="cls-3" d="M30.8,7.054H19.227a.889.889,0,0,1-.827-.827.889.889,0,0,1,.827-.827H30.8a.889.889,0,0,1,.827.827A.889.889,0,0,1,30.8,7.054Z" transform="translate(-18.4 -5.4)"/>
      </g>
      <path id="Path_597" data-name="Path 597" class="cls-3" d="M43.656,12.254H15.127a.889.889,0,0,1-.827-.827.889.889,0,0,1,.827-.827H43.656a.889.889,0,0,1,.827.827A.889.889,0,0,1,43.656,12.254Z" transform="translate(-8.925 18.756)"/>
      <path id="Path_598" data-name="Path 598" class="cls-3" d="M43.656,13.654H15.127a.827.827,0,0,1,0-1.654H43.656a.827.827,0,1,1,0,1.654Z" transform="translate(-8.925 23.144)"/>
    </g>
    <g id="Group_247" data-name="Group 247" transform="translate(80.212 9.096)">
      <g id="Group_245" data-name="Group 245">
        <circle id="Ellipse_126" data-name="Ellipse 126" class="cls-4" cx="10.75" cy="10.75" r="10.75" transform="translate(2.067 2.067)"/>
        <path id="Path_599" data-name="Path 599" class="cls-3" d="M32.217,4.267a10.946,10.946,0,0,1,10.75,10.75,10.946,10.946,0,0,1-10.75,10.75,10.946,10.946,0,0,1-10.75-10.75,10.946,10.946,0,0,1,10.75-10.75m0-2.067A12.817,12.817,0,1,0,45.035,15.017,12.882,12.882,0,0,0,32.217,2.2Z" transform="translate(-19.4 -2.2)"/>
      </g>
      <g id="Group_246" data-name="Group 246" transform="translate(6.494 8.045)">
        <rect id="Rectangle_231" data-name="Rectangle 231" class="cls-3" width="6.615" height="2.894" transform="translate(2.047 3.338) rotate(45)"/>
        <rect id="Rectangle_232" data-name="Rectangle 232" class="cls-3" width="11.163" height="2.894" transform="translate(2.805 7.894) rotate(-45)"/>
      </g>
    </g>
    <g id="Group_252" data-name="Group 252" transform="translate(0 26.875)">
      <g id="Group_248" data-name="Group 248" class="cls-6" transform="translate(0.827 1.24)">
        <circle id="Ellipse_127" data-name="Ellipse 127" class="cls-3" cx="21.087" cy="21.087" r="21.087"/>
      </g>
      <g id="Group_249" data-name="Group 249">
        <path id="Path_600" data-name="Path 600" class="cls-4" d="M21.913,50.74h0A21.862,21.862,0,0,1,6.2,44.125,22.224,22.224,0,0,1,21.913,6.5h0A22.148,22.148,0,0,1,43.827,28.827,21.793,21.793,0,0,1,21.913,50.74Zm0-41.76a19.846,19.846,0,1,0,0,39.692h0A19.851,19.851,0,0,0,41.76,28.827c.413-10.75-8.683-19.846-19.846-19.846Z" transform="translate(0 -6.5)"/>
        <path id="Path_601" data-name="Path 601" class="cls-4" d="M3.567,30.113a.889.889,0,0,1-.827-.827,16.59,16.59,0,0,1-1.24-6.2A16.085,16.085,0,0,1,11.837,8.2c.413,0,1.24,0,1.24.413s0,1.24-.413,1.24A15.393,15.393,0,0,0,3.567,23.5a24.2,24.2,0,0,0,.827,5.375c.413.413,0,.827-.827,1.24Z" transform="translate(4.702 -1.171)"/>
      </g>
      <g id="Group_250" data-name="Group 250" transform="translate(31.665 37.441)">
        <rect id="Rectangle_233" data-name="Rectangle 233" class="cls-4" width="3.721" height="5.375" transform="translate(6.761 5.382) rotate(145.503)"/>
        <path id="Path_602" data-name="Path 602" class="cls-4" d="M11.551,24.009h0a1.444,1.444,0,0,1-.827-.413L7.83,19.047a.792.792,0,0,1,.413-1.24l2.894-2.067c.413,0,.413-.413.827,0,.413,0,.413,0,.827.413L15.686,20.7a.792.792,0,0,1-.413,1.24l-2.894,2.067ZM9.9,19.047l1.654,2.481,1.24-.827-1.654-2.894Z" transform="translate(-7.659 -15.556)"/>
      </g>
      <g id="Group_251" data-name="Group 251" transform="translate(33.742 42.011)">
        <path id="Path_603" data-name="Path 603" class="cls-3" d="M26.908,41.923h0a4.067,4.067,0,0,0,1.24-5.788L16.158,18.769a4.067,4.067,0,0,0-5.788-1.24h0a4.067,4.067,0,0,0-1.24,5.788l11.99,17.365A4.067,4.067,0,0,0,26.908,41.923Z" transform="translate(-7.313 -16.126)"/>
        <path id="Path_604" data-name="Path 604" class="cls-4" d="M25.275,44.111a5.089,5.089,0,0,1-4.135-2.067L9.15,24.679a4.217,4.217,0,0,1-.827-3.721A5.681,5.681,0,0,1,10.39,17.65a4.217,4.217,0,0,1,3.721-.827,5.681,5.681,0,0,1,3.308,2.067L29.41,36.256a4.217,4.217,0,0,1,.827,3.721,5.681,5.681,0,0,1-2.067,3.308h0C27.342,44.111,26.515,44.111,25.275,44.111Zm2.481-1.654ZM13.285,18.477a2.486,2.486,0,0,0-1.654.413,2.274,2.274,0,0,0-1.24,2.067,5.244,5.244,0,0,0,.413,2.481L22.794,40.8a3.206,3.206,0,0,0,4.135.827h0a2.274,2.274,0,0,0,1.24-2.067,5.244,5.244,0,0,0-.413-2.481L15.765,19.717a2.274,2.274,0,0,0-2.067-1.24Z" transform="translate(-8.161 -16.661)"/>
      </g>
    </g>
    <g id="Group_253" data-name="Group 253" transform="translate(95.51 28.942)">
      <path id="Path_605" data-name="Path 605" class="cls-2" d="M28.062,11.335,23.1,7.2l.413,6.2,1.24-1.24,1.24,2.481,1.24-.413-1.24-2.894Z" transform="translate(-23.1 -6.373)"/>
      <path id="Path_606" data-name="Path 606" class="cls-2" d="M25.681,15.683h0L24.44,13.2l-.827.827H23.2V7h.413l4.548,3.721v.413l-.413.413h-1.24l1.24,2.481v.413h0l-2.067,1.24Zm-1.24-3.308h0l1.654,2.481.413-.413-1.24-2.481v-.413h1.654L23.2,8.654V13.2l1.24-.827Z" transform="translate(-22.787 -7)"/>
    </g>
  </g>
</svg>
