<svg xmlns="http://www.w3.org/2000/svg" viewBox="0 0 23.003 21.155">
  <g id="Group_372" data-name="Group 372" transform="translate(0 -0.025)">
    <path id="Path_59" data-name="Path 59" class="cls-1" d="M22.934.06a.208.208,0,0,0-.233,0L.14,11.6a.215.215,0,0,0-.14.233.208.208,0,0,0,.14.186l7.536,2.419a.2.2,0,0,0,.233-.047l10.467-9.4-8.327,9.815a.349.349,0,0,0-.047.233.149.149,0,0,0,.14.14l8.373,2.559h.047c.047,0,.093,0,.093-.047.047-.047.093-.093.093-.14L22.934.292C23.027.2,23.027.106,22.934.06Z" transform="translate(0)"/>
    <path id="Path_60" data-name="Path 60" class="cls-1" d="M24.105,35.8l-2.326-.7c-.093,0-.14,0-.186.047a.242.242,0,0,0-.093.186v4.373a.237.237,0,0,0,.186.233h.047a.242.242,0,0,0,.186-.093l2.326-3.675a.141.141,0,0,0,0-.186C24.245,35.844,24.2,35.8,24.105,35.8Z" transform="translate(-11.499 -18.759)"/>
  </g>
</svg>
