<svg xmlns="http://www.w3.org/2000/svg" viewBox="0 0 19.695 21.154">
  <path id="Path_707" data-name="Path 707" class="cls-1" d="M19.7,9.912A9.907,9.907,0,0,0,9.826,0,9.918,9.918,0,0,0,1.287,14.8v1.116a.906.906,0,0,0,.9.9h2.1a.906.906,0,0,0,.9-.9V10.041a.906.906,0,0,0-.9-.9H2.145a1.253,1.253,0,0,0-.386.086A8.189,8.189,0,0,1,9.826,1.759a8.131,8.131,0,0,1,8.067,7.509,1.253,1.253,0,0,0-.386-.086h-2.06a.906.906,0,0,0-.9.9v5.836a.906.906,0,0,0,.9.9h.772a7.673,7.673,0,0,1-4.591,2.7.976.976,0,0,0-.815-.429H9.14a1.03,1.03,0,0,0,0,2.06h1.673a1.056,1.056,0,0,0,.987-.772,8.342,8.342,0,0,0,5.492-3.561h.257a.906.906,0,0,0,.9-.9V14.847A10.923,10.923,0,0,0,19.7,9.912Z"/>
</svg>
