<svg xmlns="http://www.w3.org/2000/svg" viewBox="0 0 12.024 12">
  <g id="invalid_marker" data-name="Group 177" transform="translate(-716 -783)">
    <path id="Path_4" data-name="Path 4" class="cls-1" d="M7.055,9.333c-.048-.412.315-.558.582-.242.848,1.091,1.794,1.964,2.618,1.139.848-.848-.048-1.721-1.139-2.618-.315-.267-.17-.63.242-.582,1.358.17,2.667.1,2.667-1.042,0-1.188-1.261-1.188-2.667-1.042-.388.048-.533-.315-.242-.558,1.091-.9,1.988-1.77,1.139-2.618-.824-.824-1.77.048-2.618,1.139-.242.315-.606.17-.582-.242C7.2,1.261,7.2,0,6.012,0,4.873,0,4.8,1.285,4.97,2.667c.048.412-.315.558-.582.242C3.491,1.818,2.618.921,1.77,1.77c-.824.8.048,1.77,1.139,2.594.315.242.17.606-.242.582C1.261,4.8,0,4.8,0,5.988,0,7.127,1.285,7.2,2.667,7.03c.436-.048.582.315.242.582C1.818,8.461.945,9.406,1.77,10.23c.848.848,1.721-.048,2.618-1.139.267-.315.63-.17.582.242C4.8,10.691,4.873,12,6.012,12,7.2,11.976,7.176,10.739,7.055,9.333ZM4.63,5.964A1.358,1.358,0,1,1,5.988,7.321,1.355,1.355,0,0,1,4.63,5.964Z" transform="translate(716 783)"/>
    <circle id="Ellipse_2" data-name="Ellipse 2" class="cls-1" cx="2" cy="2" r="2" transform="translate(720 787)"/>
  </g>
</svg>
