<svg xmlns="http://www.w3.org/2000/svg" viewBox="0 0 21.695 20.725">
  <defs>
    <style>
      .cls-1 {
        fill: #0072ff;
      }
    </style>
  </defs>
  <path id="Path_708" data-name="Path 708" class="cls-1" d="M14.155,0H7.5C3.351,0,0,3.66,0,8.114a7.878,7.878,0,0,0,6.394,8.026v3.7a.9.9,0,0,0,.573.838.86.86,0,0,0,.353.044.972.972,0,0,0,.661-.265l4.057-4.233H14.2c4.145,0,7.5-3.66,7.5-8.114C21.651,3.66,18.3,0,14.155,0Zm-3.7,11.685H6.306a.441.441,0,1,1,0-.882h4.145a.441.441,0,1,1,0,.882ZM15.39,8.731H6.306a.441.441,0,0,1,0-.882H15.39a.442.442,0,0,1,.441.441A.474.474,0,0,1,15.39,8.731Zm0-3.307H6.306a.441.441,0,1,1,0-.882H15.39a.441.441,0,1,1,0,.882Z"/>
</svg>
