<svg xmlns="http://www.w3.org/2000/svg" viewBox="0 0 23.447 20">
  <path id="Path_64" data-name="Path 64" class="cls-1" d="M23.447,8.482C23.307,3.839,18.309.134,11.91,0h-.374C5.231,0,.14,3.616,0,8.214v.134c0,2.634,1.728,5.179,4.624,6.786A13.361,13.361,0,0,1,3.6,16.652c-.28.4-.56.8-.794,1.205l-.093.134a2.291,2.291,0,0,0-.374.982.985.985,0,0,0,.7.982h.047c.093,0,.187.045.28.045h0a3.523,3.523,0,0,0,1.4-.491l.28-.134c.607-.312,1.354-.759,2.055-1.161.327-.223.7-.4,1.028-.58.56-.312.981-.536,1.308-.714.187-.089.327-.134.42-.179H9.9c.514.045,1.028.089,1.541.089h.327c6.352,0,11.4-3.616,11.537-8.214h0V8.571l.14-.089ZM5.325,17.232c.28-.4.56-.8.794-1.205l.047-.134a2.683,2.683,0,0,0,.374-1.071,1,1,0,0,0-.56-.938c-2.662-1.295-4.25-3.393-4.25-5.625V8.17c.047-3.661,4.437-6.607,9.808-6.607h.28c5.511.223,9.949,3.3,9.9,7.009v.134c-.047,3.616-4.437,6.607-9.808,6.607h-.327c-.514,0-.981-.045-1.448-.089H9.949a3.715,3.715,0,0,0-1.354.446l-.28.134c-.56.312-1.261.714-1.868,1.071-.374.223-.794.446-1.121.67-.047.045-.093.045-.14.089A.606.606,0,0,1,5.325,17.232Z"/>
</svg>
