<svg xmlns="http://www.w3.org/2000/svg" viewBox="4675 -3051 134.551 126.576">
  <defs>
    <style>
      .cls-mobile-1 {
        fill: #008c8c;
      }

      .cls-mobile-2 {
        fill: #1f2740;
      }

      .cls-mobile-3 {
        fill: #fff;
      }

      .cls-mobile-4 {
        fill: #eef1f6;
      }

      .cls-mobile-5 {
        fill: #0072ff;
      }
    </style>
  </defs>
  <g id="Group_311" data-name="Group 311" transform="translate(3692 -3432)">
    <path id="Subtraction_1" data-name="Subtraction 1" class="cls-mobile-1" d="M-3673.936,3491.424-3690.312,3458a20.081,20.081,0,0,1-1.688-7.935,17.863,17.863,0,0,1,1.424-7.024,17.969,17.969,0,0,1,3.893-5.743,18.123,18.123,0,0,1,5.793-3.875,18.329,18.329,0,0,1,7.122-1.422,18.06,18.06,0,0,1,7.122,1.448,18.185,18.185,0,0,1,5.792,3.933,18.269,18.269,0,0,1,3.893,5.8,18.046,18.046,0,0,1,1.425,7.051,17.47,17.47,0,0,1-1.857,7.766l-16.544,33.426Zm0-49.126a7.713,7.713,0,0,0-3.022.61,7.738,7.738,0,0,0-2.469,1.664,7.74,7.74,0,0,0-1.664,2.469,7.717,7.717,0,0,0-.61,3.023,7.715,7.715,0,0,0,.61,3.023,7.731,7.731,0,0,0,1.664,2.468,7.734,7.734,0,0,0,2.469,1.664,7.713,7.713,0,0,0,3.022.61,7.715,7.715,0,0,0,3.023-.61,7.745,7.745,0,0,0,2.469-1.664,7.731,7.731,0,0,0,1.664-2.468,7.711,7.711,0,0,0,.611-3.023,7.713,7.713,0,0,0-.611-3.023,7.74,7.74,0,0,0-1.664-2.469,7.748,7.748,0,0,0-2.469-1.664A7.715,7.715,0,0,0-3673.937,3442.3Z" transform="translate(4773.086 -3020.914)"/>
    <g id="Group_226" data-name="Group 226" transform="translate(983 381)">
      <g id="Group_214" data-name="Group 214">
        <g id="Group_203" data-name="Group 203" transform="translate(63.595)">
          <g id="Group_200" data-name="Group 200" transform="translate(17.177 13.291)">
            <line id="Line_84" data-name="Line 84" class="cls-mobile-2" y2="8.793" transform="translate(1.84 1.84)"/>
            <path id="Path_525" data-name="Path 525" class="cls-mobile-2" d="M41.34,18.974a1.833,1.833,0,0,1-1.84-1.84V8.34a1.84,1.84,0,0,1,3.681,0v8.793C43.385,18.156,42.363,18.974,41.34,18.974Z" transform="translate(-39.5 -6.5)"/>
          </g>
          <g id="Group_201" data-name="Group 201">
            <line id="Line_85" data-name="Line 85" class="cls-mobile-2" x2="5.317" transform="translate(1.84 1.84)"/>
            <path id="Path_526" data-name="Path 526" class="cls-mobile-2" d="M38.257,3.681H32.94A1.84,1.84,0,0,1,32.94,0h5.317a1.84,1.84,0,1,1,0,3.681Z" transform="translate(-31.1)"/>
          </g>
          <g id="Group_202" data-name="Group 202" transform="translate(17.177 28.832)">
            <line id="Line_86" data-name="Line 86" class="cls-mobile-2" y2="8.588" transform="translate(1.84 1.84)"/>
            <path id="Path_527" data-name="Path 527" class="cls-mobile-2" d="M41.34,26.369a1.833,1.833,0,0,1-1.84-1.84V15.94a1.84,1.84,0,0,1,3.681,0v8.793C43.385,25.551,42.363,26.369,41.34,26.369Z" transform="translate(-39.5 -14.1)"/>
          </g>
        </g>
        <g id="Group_204" data-name="Group 204" transform="translate(0 1.022)">
          <path id="Path_528" data-name="Path 528" class="cls-mobile-3" d="M74.114.9H8.475A7.985,7.985,0,0,0,.5,8.875V111.526A7.985,7.985,0,0,0,8.475,119.5H74.114a7.985,7.985,0,0,0,7.975-7.975V9.079A8.031,8.031,0,0,0,74.114.9Z" transform="translate(0.522 -0.082)"/>
          <path id="Path_529" data-name="Path 529" class="cls-mobile-2" d="M74.637,121.146H9a9.077,9.077,0,0,1-9-9V9.5a9.077,9.077,0,0,1,9-9H74.637a9.077,9.077,0,0,1,9,9V112.148A9.077,9.077,0,0,1,74.637,121.146ZM9,2.34A7.245,7.245,0,0,0,1.84,9.5V112.148A7.245,7.245,0,0,0,9,119.305H74.637a7.245,7.245,0,0,0,7.157-7.157V9.5A7.245,7.245,0,0,0,74.637,2.34Z" transform="translate(0 -0.5)"/>
        </g>
        <g id="Group_205" data-name="Group 205" transform="translate(0 1.022)">
          <path id="Path_530" data-name="Path 530" class="cls-mobile-4" d="M74.219.9H8.579A8.2,8.2,0,0,0,.4,9.079v6.339H82.194V9.079A8.031,8.031,0,0,0,74.219.9Z" transform="translate(0.418 -0.082)"/>
          <path id="Path_531" data-name="Path 531" class="cls-mobile-2" d="M82.612,16.654H.818A.936.936,0,0,1,0,15.632V9.5a9.077,9.077,0,0,1,9-9H74.637a9.077,9.077,0,0,1,9,9v6.339A.936.936,0,0,1,82.612,16.654ZM1.84,14.814H81.794V9.5A7.245,7.245,0,0,0,74.637,2.34H9A7.245,7.245,0,0,0,1.84,9.5v5.317Z" transform="translate(0 -0.5)"/>
        </g>
        <g id="Group_209" data-name="Group 209" transform="translate(7.975 31.491)">
          <g id="Group_206" data-name="Group 206">
            <path id="Path_532" data-name="Path 532" class="cls-mobile-5" d="M68.508,45.246H6.14a1.833,1.833,0,0,1-1.84-1.84V17.64A1.833,1.833,0,0,1,6.14,15.8H68.508a1.833,1.833,0,0,1,1.84,1.84V43.2A1.888,1.888,0,0,1,68.508,45.246Z" transform="translate(-3.482 -14.982)"/>
            <path id="Path_533" data-name="Path 533" class="cls-mobile-5" d="M68.926,46.482H6.558A2.707,2.707,0,0,1,3.9,43.823V18.058A2.707,2.707,0,0,1,6.558,15.4H68.926a2.707,2.707,0,0,1,2.658,2.658V43.619A2.755,2.755,0,0,1,68.926,46.482ZM6.558,17.24a.88.88,0,0,0-.818.818V43.619a.88.88,0,0,0,.818.818H68.926a.88.88,0,0,0,.818-.818V18.058a.88.88,0,0,0-.818-.818H6.558Z" transform="translate(-3.9 -15.4)"/>
          </g>
          <g id="Group_207" data-name="Group 207" transform="translate(7.361 4.703)">
            <path id="Path_534" data-name="Path 534" class="cls-mobile-3" d="M18.747,23.1a5.709,5.709,0,0,1-3.681,1.227A5.709,5.709,0,0,1,11.385,23.1C9.34,23.918,7.5,24.94,7.5,25.963V32.3a16.617,16.617,0,0,0,7.361,1.636A16.617,16.617,0,0,0,22.223,32.3V25.963C22.632,24.94,21,23.713,18.747,23.1Z" transform="translate(-7.5 -12.058)"/>
            <path id="Path_535" data-name="Path 535" class="cls-mobile-3" d="M13.6,17.7c-2.249,0-4.5,1.84-4.5,4.09v2.454a4.335,4.335,0,0,0,4.5,4.09c2.249,0,4.5-1.84,4.5-4.09V21.79A4.623,4.623,0,0,0,13.6,17.7Z" transform="translate(-5.828 -17.7)"/>
          </g>
          <g id="Group_208" data-name="Group 208" transform="translate(30.264 6.952)">
            <path id="Path_536" data-name="Path 536" class="cls-mobile-3" d="M46.305,28.245H19.722a1.022,1.022,0,1,1,0-2.045H46.305a.966.966,0,0,1,1.022,1.022A1.1,1.1,0,0,1,46.305,28.245Z" transform="translate(-18.7 -11.068)"/>
            <path id="Path_537" data-name="Path 537" class="cls-mobile-3" d="M46.305,20.845H19.722a1.022,1.022,0,1,1,0-2.045H46.305a1.022,1.022,0,0,1,0,2.045Z" transform="translate(-18.7 -18.8)"/>
            <path id="Path_538" data-name="Path 538" class="cls-mobile-3" d="M46.305,24.545H19.722a1.022,1.022,0,1,1,0-2.045H46.305a1.022,1.022,0,0,1,0,2.045Z" transform="translate(-18.7 -14.934)"/>
          </g>
        </g>
        <g id="Group_210" data-name="Group 210" transform="translate(0 101.015)">
          <path id="Path_539" data-name="Path 539" class="cls-mobile-4" d="M.5,60.533a8.2,8.2,0,0,0,8.179,8.179H74.319a8.031,8.031,0,0,0,7.975-8.179V49.9H.5Z" transform="translate(0.522 -48.878)"/>
          <path id="Path_540" data-name="Path 540" class="cls-mobile-2" d="M74.637,70.053H9a9.077,9.077,0,0,1-9-9V50.422A.966.966,0,0,1,1.022,49.4H82.816a.966.966,0,0,1,1.022,1.022V61.056A9.4,9.4,0,0,1,74.637,70.053ZM1.84,51.24v9.815A7.245,7.245,0,0,0,9,68.213H74.637a7.245,7.245,0,0,0,7.157-7.157V51.24Z" transform="translate(0 -49.4)"/>
        </g>
        <circle id="Ellipse_115" data-name="Ellipse 115" class="cls-mobile-2" cx="4.09" cy="4.09" r="4.09" transform="translate(37.83 107.354)"/>
        <g id="Group_211" data-name="Group 211" transform="translate(40.692 7.77)">
          <circle id="Ellipse_116" data-name="Ellipse 116" class="cls-mobile-2" cx="1.227" cy="1.227" r="1.227"/>
        </g>
        <path id="Path_541" data-name="Path 541" class="cls-mobile-5" d="M46.317,35.345H28.322a1.022,1.022,0,0,1,0-2.045H46.317a.966.966,0,0,1,1.022,1.022A1.1,1.1,0,0,1,46.317,35.345Z" transform="translate(28.524 34.793)"/>
        <path id="Path_542" data-name="Path 542" class="cls-mobile-5" d="M46.317,38.345H28.322a1.022,1.022,0,0,1,0-2.045H46.317a.966.966,0,0,1,1.022,1.022A1.1,1.1,0,0,1,46.317,38.345Z" transform="translate(28.524 37.928)"/>
        <path id="Path_543" data-name="Path 543" class="cls-mobile-5" d="M46.317,41.445H28.322a1.022,1.022,0,0,1,0-2.045H46.317a.966.966,0,0,1,1.022,1.022A1.1,1.1,0,0,1,46.317,41.445Z" transform="translate(28.524 41.167)"/>
        <path id="Path_544" data-name="Path 544" class="cls-mobile-5" d="M46.317,47.545H28.322a1.022,1.022,0,1,1,0-2.045H46.317a.966.966,0,0,1,1.022,1.022C47.135,47.136,46.726,47.545,46.317,47.545Z" transform="translate(28.524 47.54)"/>
        <path id="Path_545" data-name="Path 545" class="cls-mobile-5" d="M46.317,44.445H28.322a1.022,1.022,0,0,1,0-2.045H46.317a.966.966,0,0,1,1.022,1.022C47.135,44.036,46.726,44.445,46.317,44.445Z" transform="translate(28.524 44.301)"/>
        <g id="Group_212" data-name="Group 212" transform="translate(7.975 68.298)">
          <path id="Path_546" data-name="Path 546" class="cls-mobile-5" d="M44.583,42.593H5.118a.88.88,0,0,1-.818-.818V34.618a.88.88,0,0,1,.818-.818H44.583a.88.88,0,0,1,.818.818v7.157C45.2,42.184,44.992,42.593,44.583,42.593Z" transform="translate(-3.482 -32.982)"/>
          <path id="Path_547" data-name="Path 547" class="cls-mobile-5" d="M45,43.829H5.536A1.613,1.613,0,0,1,3.9,42.193V35.036A1.613,1.613,0,0,1,5.536,33.4H45a1.613,1.613,0,0,1,1.636,1.636v7.157A1.613,1.613,0,0,1,45,43.829ZM5.74,41.988H44.8V35.24H5.74Z" transform="translate(-3.9 -33.4)"/>
        </g>
        <g id="Group_213" data-name="Group 213" transform="translate(7.975 84.656)">
          <path id="Path_548" data-name="Path 548" class="cls-mobile-5" d="M44.583,50.493H5.118a.88.88,0,0,1-.818-.818V42.518a.88.88,0,0,1,.818-.818H44.583a.88.88,0,0,1,.818.818v7.157C45.2,50.084,44.992,50.493,44.583,50.493Z" transform="translate(-3.482 -41.087)"/>
          <path id="Path_549" data-name="Path 549" class="cls-mobile-5" d="M45,51.829H5.536A1.613,1.613,0,0,1,3.9,50.193V43.036A1.613,1.613,0,0,1,5.536,41.4H45a1.613,1.613,0,0,1,1.636,1.636v7.157A1.759,1.759,0,0,1,45,51.829ZM5.74,49.784H44.8V43.036H5.74Z" transform="translate(-3.9 -41.4)"/>
        </g>
      </g>
      <g id="Group_224" data-name="Group 224" transform="translate(65.23 49.281)">
        <g id="Group_215" data-name="Group 215" transform="translate(38.647 9.202)">
          <line id="Line_87" data-name="Line 87" class="cls-mobile-2" y1="7.157" transform="translate(1.84 1.84)"/>
          <path id="Path_550" data-name="Path 550" class="cls-mobile-2" d="M52.64,39.438A1.833,1.833,0,0,1,50.8,37.6V30.44a1.84,1.84,0,1,1,3.681,0V37.6A1.833,1.833,0,0,1,52.64,39.438Z" transform="translate(-50.8 -28.6)"/>
        </g>
        <g id="Group_216" data-name="Group 216" transform="translate(0.204)">
          <path id="Path_551" data-name="Path 551" class="cls-mobile-3" d="M66.035,24.6H38.226A5.716,5.716,0,0,0,32.5,30.326v64a5.716,5.716,0,0,0,5.726,5.726h27.81a5.716,5.716,0,0,0,5.726-5.726v-64A5.716,5.716,0,0,0,66.035,24.6Z" transform="translate(-31.478 -23.578)"/>
          <path id="Path_552" data-name="Path 552" class="cls-mobile-2" d="M66.558,101.395H38.748A6.808,6.808,0,0,1,32,94.647v-63.8A6.808,6.808,0,0,1,38.748,24.1h27.81a6.808,6.808,0,0,1,6.748,6.748v64A6.634,6.634,0,0,1,66.558,101.395ZM38.748,25.94a4.976,4.976,0,0,0-4.908,4.908v64a4.976,4.976,0,0,0,4.908,4.908h27.81a4.976,4.976,0,0,0,4.908-4.908v-64a4.976,4.976,0,0,0-4.908-4.908Z" transform="translate(-32 -24.1)"/>
        </g>
        <g id="Group_217" data-name="Group 217">
          <path id="Path_553" data-name="Path 553" class="cls-mobile-4" d="M66.035,24.6H38.226A5.716,5.716,0,0,0,32.5,30.326v5.317H71.965V30.326A6.029,6.029,0,0,0,66.035,24.6Z" transform="translate(-31.273 -23.578)"/>
          <path id="Path_554" data-name="Path 554" class="cls-mobile-2" d="M72.388,37.187H32.922A.966.966,0,0,1,31.9,36.165V30.848A6.808,6.808,0,0,1,38.648,24.1h27.81a6.808,6.808,0,0,1,6.748,6.748v5.317C73.41,36.778,73,37.187,72.388,37.187Zm-38.443-1.84H71.365v-4.5a4.976,4.976,0,0,0-4.908-4.908H38.852a4.976,4.976,0,0,0-4.908,4.908Z" transform="translate(-31.9 -24.1)"/>
        </g>
        <path id="Path_555" data-name="Path 555" class="cls-mobile-2" d="M47.67,28.745H40.922a1.022,1.022,0,0,1,0-2.045H47.67a1.022,1.022,0,0,1,0,2.045Z" transform="translate(-23.541 -21.383)"/>
        <g id="Group_218" data-name="Group 218" transform="translate(12.269 5.521)">
          <circle id="Ellipse_117" data-name="Ellipse 117" class="cls-mobile-2" cx="1.022" cy="1.022" r="1.022"/>
        </g>
        <g id="Group_219" data-name="Group 219" transform="translate(5.521 21.062)">
          <path id="Path_556" data-name="Path 556" class="cls-mobile-5" d="M64.037,75.8V36.127A1.319,1.319,0,0,0,62.81,34.9H36.227A1.319,1.319,0,0,0,35,36.127V75.8Z" transform="translate(-34.182 -33.878)"/>
          <path id="Path_557" data-name="Path 557" class="cls-mobile-5" d="M35.418,77.342a.751.751,0,0,1-.613-.2c-.2-.2-.2-.409-.2-.818V36.649A2.269,2.269,0,0,1,36.849,34.4H63.228a2.269,2.269,0,0,1,2.249,2.249v39.67a.723.723,0,0,1-.818.818h0c-8.179.2-28.423.2-29.241.2Zm8.588-1.84H63.432V36.649a.44.44,0,0,0-.409-.409H36.645a.44.44,0,0,0-.409.409V75.3A64.545,64.545,0,0,0,44.006,75.5Z" transform="translate(-34.6 -34.4)"/>
        </g>
        <g id="Group_220" data-name="Group 220" transform="translate(12.882 24.538)">
          <path id="Path_558" data-name="Path 558" class="cls-mobile-3" d="M50.06,42a5.988,5.988,0,0,1-7.77,0c-2.249.818-4.09,2.045-4.09,3.067V52.02a18.1,18.1,0,0,0,8.179,1.84c2.863,0,4.908-.613,8.179-1.84V45.067C54.354,44.045,52.309,42.818,50.06,42Z" transform="translate(-38.2 -29.935)"/>
          <path id="Path_559" data-name="Path 559" class="cls-mobile-3" d="M44.608,36.1c-2.454,0-4.908,2.045-4.908,4.5v2.658a4.771,4.771,0,0,0,4.908,4.5c2.454,0,4.908-2.045,4.908-4.5V40.6C49.515,38.145,47.061,36.1,44.608,36.1Z" transform="translate(-36.633 -36.1)"/>
        </g>
        <g id="Group_221" data-name="Group 221" transform="translate(10.633 52.348)">
          <path id="Path_560" data-name="Path 560" class="cls-mobile-3" d="M56.526,51.745h-18.4a1.022,1.022,0,1,1,0-2.045h18.4a.966.966,0,0,1,1.022,1.022C57.344,51.336,56.935,51.745,56.526,51.745Z" transform="translate(-37.1 -49.7)"/>
          <path id="Path_561" data-name="Path 561" class="cls-mobile-3" d="M56.526,54.145h-18.4a1.022,1.022,0,0,1,0-2.045h18.4a.966.966,0,0,1,1.022,1.022A1.1,1.1,0,0,1,56.526,54.145Z" transform="translate(-37.1 -47.192)"/>
        </g>
        <g id="Group_222" data-name="Group 222" transform="translate(5.317 15.95)">
          <circle id="Ellipse_118" data-name="Ellipse 118" class="cls-mobile-2" cx="1.227" cy="1.227" r="1.227"/>
          <circle id="Ellipse_119" data-name="Ellipse 119" class="cls-mobile-2" cx="1.227" cy="1.227" r="1.227" transform="translate(3.885)"/>
          <circle id="Ellipse_120" data-name="Ellipse 120" class="cls-mobile-2" cx="1.227" cy="1.227" r="1.227" transform="translate(7.566)"/>
        </g>
        <g id="Group_223" data-name="Group 223" transform="translate(0.204 61.959)">
          <path id="Path_562" data-name="Path 562" class="cls-mobile-4" d="M32.4,62.566a5.716,5.716,0,0,0,5.726,5.726h27.81a5.716,5.716,0,0,0,5.726-5.726V55H32.4Z" transform="translate(-31.582 -53.773)"/>
          <path id="Path_563" data-name="Path 563" class="cls-mobile-2" d="M66.558,69.736H38.748A6.808,6.808,0,0,1,32,62.988V55.422A.966.966,0,0,1,33.022,54.4H72.488a.966.966,0,0,1,1.022,1.022v7.566A6.983,6.983,0,0,1,66.558,69.736ZM33.84,56.445v6.748A4.976,4.976,0,0,0,38.748,68.1h27.81a4.976,4.976,0,0,0,4.908-4.908V56.445Z" transform="translate(-32 -54.4)"/>
        </g>
        <circle id="Ellipse_121" data-name="Ellipse 121" class="cls-mobile-2" cx="3.476" cy="3.476" r="3.476" transform="translate(17.381 66.253)"/>
      </g>
    </g>
  </g>
</svg>
