<svg class="sd-svg sd-svg--person-man" width="80" height="216" xmlns="http://www.w3.org/2000/svg" viewBox="1055.525 -2977.252 79.854 216.202">
  <defs>
    <style>
      .sd-svg--person-man .cls-1 {
        fill: #e5cdbd;
      }

      .sd-svg--person-man .cls-2 {
        fill: #1f2740;
      }

      .sd-svg--person-man .cls-3 {
        fill: #bbc1d1;
      }

      .sd-svg--person-man .cls-4 {
        fill: #eef1f6;
      }

      .sd-svg--person-man .cls-5 {
        fill: #253460;
      }

      .sd-svg--person-man .cls-6, .cls-7 {
        fill: #fff;
      }

      .sd-svg--person-man .cls-7 {
        fill-rule: evenodd;
      }

      .sd-svg--person-man .cls-8 {
        fill: #775542;
      }

      .sd-svg--person-man .cls-9 {
        fill: none;
      }

      .sd-svg--person-man .cls-10 {
        fill: #564e4a;
        opacity: 0.25;
      }
    </style>
  </defs>
  <g id="Asset_4_-_man" data-name="Asset 4 - man" transform="translate(-1821.987 1796)">
    <g id="Layer_1" data-name="Layer 1" transform="translate(2877.512 -4773.252)">
      <path id="Path_430" data-name="Path 430" class="cls-1" d="M80.2,104.54c.1,3.267,0,7.8-.1,10.982-.192,7.632-.512,13.1-.11,20.728.238,4.649.394,6.854.467,11.5l.082,1.775a2.608,2.608,0,0,1,.75,1.711l.284,6.269a8.1,8.1,0,0,1-7.724,8.474,1.986,1.986,0,1,1-.183-3.963,3.606,3.606,0,0,0,3.4-3.789l-.128-2.892a1.19,1.19,0,1,0-2.37.119l.1,2.279a1.986,1.986,0,1,1-3.963.174l-.046-2.4-.092-1.135a4.622,4.622,0,0,1,3.157-4.576l-.082-1.766c-.549-3-.97-6.022-1.336-9.051-.558-4.576-.769-5.061-1.437-9.627-.412-2.864-1.382-5.619-1.986-8.438a122.554,122.554,0,0,1-1.83-15.631" transform="translate(-5.689 -8.846)"/>
      <path id="Path_431" data-name="Path 431" class="cls-2" d="M73.674,166.8a2.791,2.791,0,0,1-2.8-2.691,2.745,2.745,0,0,1,.732-2.022,2.828,2.828,0,0,1,1.949-.915,2.745,2.745,0,0,0,2.636-2.9l-.11-2.892a.4.4,0,0,0-.357-.339h0a.357.357,0,0,0-.339.384l.11,2.27a2.819,2.819,0,0,1-2.681,2.947h-.128a2.828,2.828,0,0,1-2.819-2.691l-.192-3.487a5.491,5.491,0,0,1,3.13-5.189l-.055-1.181c-.476-2.535-.915-5.427-1.336-8.987-.329-2.745-.54-4-.8-5.555-.174-1.043-.366-2.224-.631-4.054a45.178,45.178,0,0,0-1.153-5.042c-.293-1.107-.586-2.224-.833-3.34a128,128,0,0,1-1.83-15.75l1.656-.11a125.114,125.114,0,0,0,1.83,15.5c.238,1.1.531,2.187.814,3.267a46.127,46.127,0,0,1,1.19,5.225c.265,1.83.458,2.992.631,4.036.256,1.574.467,2.855.805,5.619.43,3.532.851,6.406,1.327,9l.128,2.5-.595.2a3.789,3.789,0,0,0-2.626,3.77l.165,3.5a1.153,1.153,0,0,0,1.153,1.08H72.7a1.162,1.162,0,0,0,1.1-1.217l-.11-2.27a2.022,2.022,0,0,1,1.922-2.114,2.187,2.187,0,0,1,1.455.522,2.031,2.031,0,0,1,.65,1.4l.137,2.892a4.429,4.429,0,0,1-4.228,4.631,1.16,1.16,0,0,0-.723,2.013,1.034,1.034,0,0,0,.824.3,7.321,7.321,0,0,0,6.928-7.587l-.293-6.26a1.766,1.766,0,0,0-.512-1.181l-.21-.229-.1-2.077c-.064-3.9-.183-6.077-.357-9.38l-.119-2.132c-.32-6.177-.174-10.982,0-16.546l.137-4.869c.073-3.057.183-7.257.092-10.286H80.95c.092,3.075,0,7.321-.092,10.378l-.137,4.869c-.165,5.491-.311,10.3,0,16.418l.119,2.132c.174,3.313.293,5.491.357,9.408l.073,1.455a3.523,3.523,0,0,1,.75,2l.293,6.269a8.959,8.959,0,0,1-8.52,9.344Z" transform="translate(-5.614 -8.849)"/>
      <path id="Path_432" data-name="Path 432" class="cls-1" d="M5.672,104.54c-.1,3.267,0,7.8.11,10.982.192,7.632.5,13.1.11,20.728-.247,4.649-.4,6.854-.476,11.5l-.082,1.775a2.6,2.6,0,0,0-.741,1.711L4.3,157.49a8.117,8.117,0,0,0,7.733,8.474A1.986,1.986,0,0,0,12.215,162a3.661,3.661,0,0,1-3.441-3.77l.137-2.892a1.182,1.182,0,0,1,2.361.119l-.1,2.279a1.988,1.988,0,1,0,3.972.174l.11-2.4.046-1.1a4.576,4.576,0,0,0-3.157-4.576l.082-1.766c.549-3,.97-6.022,1.345-9.051.558-4.576.76-5.061,1.428-9.627.421-2.864,1.382-5.619,2-8.438a122.54,122.54,0,0,0,1.83-15.631" transform="translate(-0.363 -8.846)"/>
      <path id="Path_433" data-name="Path 433" class="cls-2" d="M12.047,166.8H11.91A8.95,8.95,0,0,1,3.4,157.452l.284-6.269a3.468,3.468,0,0,1,.76-2l.064-1.483c.064-3.871.183-6.067.366-9.38l.11-2.132c.32-6.113.174-10.89,0-16.418l-.119-4.74c-.082-3.121-.192-7.394-.092-10.506H6.428c-.092,3.075,0,7.321.092,10.423l.174,4.777c.165,5.564.3,10.369,0,16.546l-.11,2.132c-.183,3.3-.293,5.491-.366,9.353l-.092,2.1-.22.229a1.757,1.757,0,0,0-.5,1.171l-.293,6.269a7.321,7.321,0,0,0,6.937,7.614H12.1a1.162,1.162,0,0,0,.055-2.315,4.429,4.429,0,0,1-4.228-4.631l.073-2.9a2,2,0,0,1,.659-1.4,2.215,2.215,0,0,1,1.446-.522,2.022,2.022,0,0,1,1.922,2.114l-.1,2.279a1.153,1.153,0,0,0,1.1,1.208H13.1a1.153,1.153,0,0,0,1.153-1.1l.165-3.5a3.807,3.807,0,0,0-2.59-3.77l-.595-.2.11-2.389c.494-2.745.915-5.619,1.345-9.151.339-2.745.549-4.054.805-5.637.174-1.034.366-2.205.631-4.017a44.22,44.22,0,0,1,1.181-5.225c.293-1.08.577-2.169.814-3.267a125.829,125.829,0,0,0,1.83-15.5l1.656.11a126.936,126.936,0,0,1-1.83,15.75c-.238,1.116-.54,2.233-.833,3.34a45.152,45.152,0,0,0-1.144,5.042c-.265,1.83-.458,2.993-.631,4.036-.256,1.565-.467,2.828-.8,5.573-.43,3.523-.86,6.406-1.354,9.1v1.071a5.491,5.491,0,0,1,3.139,5.189l-.165,3.5a2.809,2.809,0,0,1-4.887,1.766,2.745,2.745,0,0,1-.732-2.032l.1-2.27a.357.357,0,0,0-.339-.384c-.156.055-.366.174-.375.339l-.128,2.892a2.8,2.8,0,0,0,2.645,2.919,2.819,2.819,0,0,1-.128,5.628Z" transform="translate(-0.286 -8.845)"/>
      <path id="Path_434" data-name="Path 434" class="cls-3" d="M33.861,220.958l-14.917,1.391a6.058,6.058,0,0,0-5.646,6.525l.22,2.178,25.779-.54a79.616,79.616,0,0,0-.522-10.012Z" transform="translate(-1.126 -18.687)"/>
      <path id="Path_435" data-name="Path 435" class="cls-2" d="M13.439,231.868a.833.833,0,0,1-.824-.741l-.229-2.178a6.562,6.562,0,0,1,1.473-4.9,7.111,7.111,0,0,1,4.905-2.562l19.84-1.83a.842.842,0,0,1,.915.741,81.536,81.536,0,0,1,.531,10.121.833.833,0,0,1-.814.805l-25.779.54ZM33.865,221.8l-14.926,1.382a5.491,5.491,0,0,0-3.78,1.968,4.9,4.9,0,0,0-1.116,3.661l.146,1.409,24.215-.494a78.891,78.891,0,0,0-.448-8.3l-4.091.384Zm-.073-.833Z" transform="translate(-1.047 -18.615)"/>
      <path id="Path_436" data-name="Path 436" class="cls-4" d="M13.476,232.069a.577.577,0,0,0-.586.567v1.83a.577.577,0,0,0,.586.567H29.6l2.334-2.974Z" transform="translate(-1.093 -19.668)"/>
      <path id="Path_437" data-name="Path 437" class="cls-2" d="M29.525,235.792H13.409A1.409,1.409,0,0,1,12,234.4v-1.83a1.409,1.409,0,0,1,1.428-1.391H31.859a.842.842,0,0,1,.75.467.814.814,0,0,1-.1.915l-2.334,2.983a.814.814,0,0,1-.65.247Zm-15.887-1.656H29.122l1.034-1.29H13.684Z" transform="translate(-1.017 -19.593)"/>
      <path id="Path_438" data-name="Path 438" class="cls-4" d="M40.8,232.07H33.7l.43,2.974H40.8a.586.586,0,0,0,.595-.567v-1.83a.577.577,0,0,0-.595-.577Z" transform="translate(-2.859 -19.669)"/>
      <path id="Path_439" data-name="Path 439" class="cls-2" d="M40.725,235.791H34.054a.833.833,0,0,1-.824-.7l-.421-2.983a.8.8,0,0,1,.192-.659.814.814,0,0,1,.622-.284h7.1a1.4,1.4,0,0,1,1.409,1.391v1.83a1.4,1.4,0,0,1-1.409,1.409Zm-5.912-1.656h5.674v-1.29h-5.9Zm5.912-1.29Z" transform="translate(-2.782 -19.591)"/>
      <path id="Path_440" data-name="Path 440" class="cls-3" d="M50.945,220.958l14.926,1.391a6.058,6.058,0,0,1,5.646,6.525l-.229,2.178-25.779-.54a79.616,79.616,0,0,1,.522-10.012Z" transform="translate(-3.86 -18.687)"/>
      <path id="Path_441" data-name="Path 441" class="cls-2" d="M71.213,231.868h0l-25.789-.531a.824.824,0,0,1-.805-.805,79.875,79.875,0,0,1,.522-10.121.833.833,0,0,1,.915-.741l19.831,1.83a7.147,7.147,0,0,1,4.914,2.562,6.561,6.561,0,0,1,1.483,4.869l-.22,2.178A.833.833,0,0,1,71.213,231.868Zm-24.965-2.2,24.224.494.119-1.409a4.942,4.942,0,0,0-1.126-3.661,5.491,5.491,0,0,0-3.78-1.968l-19.017-1.766A78.893,78.893,0,0,0,46.248,229.672Z" transform="translate(-3.785 -18.616)"/>
      <path id="Path_442" data-name="Path 442" class="cls-4" d="M71.978,232.069a.576.576,0,0,1,.595.567v1.83a.586.586,0,0,1-.595.567H55.863L53.52,232.06Z" transform="translate(-4.54 -19.668)"/>
      <path id="Path_443" data-name="Path 443" class="cls-2" d="M71.9,235.791H55.786a.815.815,0,0,1-.65-.311L52.793,232.5a.824.824,0,0,1,.65-1.336H71.9a1.4,1.4,0,0,1,1.418,1.391v1.83a1.4,1.4,0,0,1-1.418,1.409Zm-15.713-1.656H71.664v-1.29H55.191Zm15.713-1.29Z" transform="translate(-4.464 -19.591)"/>
      <path id="Path_444" data-name="Path 444" class="cls-4" d="M45.706,232.07h7.1l-.421,2.974H45.706a.577.577,0,0,1-.586-.567v-1.83a.577.577,0,0,1,.586-.577Z" transform="translate(-3.828 -19.669)"/>
      <path id="Path_445" data-name="Path 445" class="cls-2" d="M52.309,235.792H45.628A1.4,1.4,0,0,1,44.21,234.4v-1.83a1.4,1.4,0,0,1,1.418-1.391h7.1a.833.833,0,0,1,.631.284.824.824,0,0,1,.192.659l-.384,2.965A.824.824,0,0,1,52.309,235.792ZM45.9,234.136h5.72l.192-1.318H45.848Z" transform="translate(-3.75 -19.593)"/>
      <path id="Path_446" data-name="Path 446" class="cls-2" d="M28.5,225.909a.833.833,0,0,1-.824-.75l-.348-3.4a.833.833,0,0,1,.741-.915.787.787,0,0,1,.915.741l.357,3.413a.833.833,0,0,1-.741.915Z" transform="translate(-2.318 -18.715)"/>
      <path id="Path_447" data-name="Path 447" class="cls-2" d="M21.171,226.589a.833.833,0,0,1-.824-.75l-.348-3.4a.833.833,0,0,1,.741-.915.814.814,0,0,1,.915.741L22,225.674a.824.824,0,0,1-.741.915Z" transform="translate(-1.696 -18.773)"/>
      <path id="Path_448" data-name="Path 448" class="cls-2" d="M24.89,226.249a.842.842,0,0,1-.833-.75l-.348-3.4a.833.833,0,0,1,.741-.915.805.805,0,0,1,.915.741l.348,3.413a.824.824,0,0,1-.741.915Z" transform="translate(-2.01 -18.744)"/>
      <path id="Path_449" data-name="Path 449" class="cls-2" d="M58.533,225.909h-.082a.824.824,0,0,1-.741-.915l.348-3.413a.8.8,0,0,1,.915-.741.833.833,0,0,1,.741.915l-.348,3.4A.842.842,0,0,1,58.533,225.909Z" transform="translate(-4.895 -18.715)"/>
      <path id="Path_450" data-name="Path 450" class="cls-2" d="M65.863,226.589h-.082a.824.824,0,0,1-.741-.915l.348-3.413a.833.833,0,1,1,1.656.174l-.348,3.4A.842.842,0,0,1,65.863,226.589Z" transform="translate(-5.518 -18.773)"/>
      <path id="Path_451" data-name="Path 451" class="cls-2" d="M62.2,226.249h-.092a.833.833,0,0,1-.741-.915l.357-3.413a.805.805,0,0,1,.915-.741.833.833,0,0,1,.741.915l-.348,3.4a.833.833,0,0,1-.833.75Z" transform="translate(-5.206 -18.744)"/>
      <path id="Path_452" data-name="Path 452" class="cls-5" d="M60.2,143.07v71.8l-16.884.348V164.887h-2.8V215.22l-16.875-.348v-71.8Z" transform="translate(-2.005 -12.116)"/>
      <path id="Path_453" data-name="Path 453" class="cls-2" d="M43.239,215.976a.842.842,0,0,1-.833-.833v-49.5H41.281v49.5a.833.833,0,0,1-.247.595,1.41,1.41,0,0,1-.595.238l-16.884-.348a.824.824,0,0,1-.814-.833V143a.833.833,0,0,1,.833-.833H60.178A.833.833,0,0,1,61,143V214.8a.824.824,0,0,1-.814.833l-16.875.348ZM24.387,213.99l15.228.311V164.82a.824.824,0,0,1,.824-.833h2.8a.833.833,0,0,1,.833.833V214.31L59.291,214V143.845h-34.9Z" transform="translate(-1.928 -12.04)"/>
      <line id="Line_79" data-name="Line 79" class="cls-6" x2="5.07" transform="translate(37.376 152.78)"/>
      <path id="Path_454" data-name="Path 454" class="cls-2" d="M45.825,167.666h-5.07a.833.833,0,1,1,0-1.656h5.07a.833.833,0,1,1,0,1.656Z" transform="translate(-3.379 -14.062)"/>
      <path id="Path_455" data-name="Path 455" class="cls-5" d="M49.9,76.64A27.216,27.216,0,0,1,71.01,90.019h0l.174.293.2.375.366.723c.357.686.677,1.382.979,2.1a123.994,123.994,0,0,1,6.342,19.154l-19.584,1.83.43-.915V103.6H20.064v9.975l.43.915L.91,112.66A122.273,122.273,0,0,1,7.252,93.5c.293-.714.622-1.4.97-2.086.146-.293.275-.549.384-.75s.119-.238.192-.357.165-.293.165-.293h0A27.216,27.216,0,0,1,30.085,76.64Z" transform="translate(-0.076 -6.479)"/>
      <path id="Path_456" data-name="Path 456" class="cls-2" d="M20.417,115.228h-.082L.75,113.4a.8.8,0,0,1-.595-.348.8.8,0,0,1-.128-.686A124.458,124.458,0,0,1,6.406,93.082c.293-.714.631-1.428,1-2.123.137-.293.275-.549.384-.76l.375-.686a.659.659,0,0,1,.073-.137A27.884,27.884,0,0,1,29.879,75.74H49.912A27.912,27.912,0,0,1,71.564,89.385l.092.128.284.512a1.939,1.939,0,0,1,.1.192l.375.741c.357.686.7,1.409,1.007,2.141a124.979,124.979,0,0,1,6.406,19.264.833.833,0,0,1-.128.686.8.8,0,0,1-.595.348l-19.593,1.83a.787.787,0,0,1-.76-.348.842.842,0,0,1-.064-.833l.348-.741v-8.959H20.81v8.941l.357.741a.833.833,0,0,1-.75,1.19Zm-.43-12.528H59.841a.824.824,0,0,1,.824.824v9.92l17.287-1.611a121.486,121.486,0,0,0-6.058-18.074c-.293-.7-.613-1.391-.915-2.05l-.641-1.235-.082-.11A26.283,26.283,0,0,0,49.774,77.4H30.007a26.274,26.274,0,0,0-20.4,12.968.65.65,0,0,1-.092.128l-.183.339c-.183.339-.3.586-.448.915a18.994,18.994,0,0,0-.915,2.032,119.713,119.713,0,0,0-6.067,18.1l17.278,1.611v-9.966a.824.824,0,0,1,.805-.824Z" transform="translate(0.001 -6.402)"/>
      <path id="Path_457" data-name="Path 457" class="cls-7" d="M60.488,87.185a1.547,1.547,0,0,1,1.968,1.309H63.92a1.83,1.83,0,0,1-1.693,2.05c-.586.064-1.144-.137-1.638.1a4.576,4.576,0,0,0-1.043,1.336,4.063,4.063,0,0,0-.714,1.666,1.528,1.528,0,0,0,0,.458c.064.247.366.2.357.586H57.45a1.83,1.83,0,0,0-1.666-1.922c-1.309-.11-2.224.915-2.938,1.437a.549.549,0,0,1,.293.485H51.52a5.033,5.033,0,0,1,1.693-3.13c-.851-.915-.448-3.267,1.08-3.066-.4.284-.915.6-.915,1.208a1.638,1.638,0,0,0,.714,1.272,7.577,7.577,0,0,0,3.661-1.016,3.093,3.093,0,0,0,.915-.65c.22-.275.21-.54.192-1.016a4.512,4.512,0,0,1,.558-2.672A4.759,4.759,0,0,1,60.488,87.185ZM61.962,88.4a.139.139,0,1,0-.256-.11C61.632,88.457,61.9,88.576,61.962,88.4Z" transform="translate(-4.371 -7.241)"/>
      <path id="Path_458" data-name="Path 458" class="cls-5" d="M63.388,101.44a61.717,61.717,0,0,1-1.382,17.79c-1.309,5.207-1.382,20.344-1.235,26.228H22.335c.146-5.884.082-21.048-1.235-26.228a61.525,61.525,0,0,1-1.373-17.79" transform="translate(-1.66 -8.583)"/>
      <path id="Path_459" data-name="Path 459" class="cls-2" d="M60.693,146.214H22.257a.824.824,0,0,1-.595-.256.8.8,0,0,1-.229-.595c.146-6.04.055-20.966-1.217-26.008a61.991,61.991,0,0,1-1.4-18.065.8.8,0,0,1,.915-.75.833.833,0,0,1,.76.915,61.241,61.241,0,0,0,1.354,17.507c1.272,5.042,1.409,18.861,1.281,25.624H59.851c-.128-6.745,0-20.572,1.281-25.624a61.058,61.058,0,0,0,1.345-17.507.833.833,0,0,1,.76-.915.8.8,0,0,1,.915.75,61.635,61.635,0,0,1-1.4,18.065c-1.272,5.033-1.364,19.968-1.208,26.008a.842.842,0,0,1-.833.851Z" transform="translate(-1.583 -8.506)"/>
      <path id="Path_460" data-name="Path 460" class="cls-1" d="M52.768,75.992c-.512-.055-1.016-.137-1.547-.165V69H34.127v6.873a14.778,14.778,0,0,0-1.547.165l10.067,8.236Z" transform="translate(-2.763 -5.83)"/>
      <path id="Path_461" data-name="Path 461" class="cls-2" d="M42.484,85.2,30.34,75.321l2.416-.275L33.113,75V68H51.864v6.946l.348.046,2.425.275Zm-8-8.657,8,6.516,8.007-6.516h-.284V69.7H34.769V76.52Z" transform="translate(-2.573 -5.746)"/>
      <path id="Path_462" data-name="Path 462" class="cls-1" d="M67.211,32.49a3.661,3.661,0,0,1,3.661,3.661v3.661a3.661,3.661,0,1,1-7.321,0V36.151A3.661,3.661,0,0,1,67.211,32.49Z" transform="translate(-5.392 -2.732)"/>
      <path id="Path_463" data-name="Path 463" class="cls-2" d="M67.132,44.215a4.512,4.512,0,0,1-4.512-4.5V36.052a4.512,4.512,0,0,1,9.023,0v3.661A4.512,4.512,0,0,1,67.132,44.215Zm0-10.982a2.855,2.855,0,0,0-2.855,2.855v3.661a2.855,2.855,0,1,0,5.71,0V36.088A2.855,2.855,0,0,0,67.132,33.233Z" transform="translate(-5.313 -2.652)"/>
      <path id="Path_464" data-name="Path 464" class="cls-1" d="M19.341,32.49a3.661,3.661,0,0,0-3.661,3.661v3.661a3.661,3.661,0,0,0,7.321,0V36.151A3.661,3.661,0,0,0,19.341,32.49Z" transform="translate(-1.329 -2.732)"/>
      <path id="Path_465" data-name="Path 465" class="cls-2" d="M19.261,44.2a4.512,4.512,0,0,1-4.512-4.5V36.033a4.512,4.512,0,1,1,9.014,0v3.661A4.5,4.5,0,0,1,19.261,44.2Zm0-10.982a2.855,2.855,0,0,0-2.855,2.855V39.73a2.855,2.855,0,0,0,5.7,0V36.069a2.855,2.855,0,0,0-2.846-2.855Z" transform="translate(-1.25 -2.633)"/>
      <path id="Path_466" data-name="Path 466" class="cls-1" d="M57.063,13.15,61.593,27.2c.8,2.48.631,6.012.915,8.685.467,4.521,1.2,9.435.778,13.983-.394,4.072-2.965,6.406-5.9,8.9-2.306,1.986-3.935,4.8-6.232,6.873a14.038,14.038,0,0,1-9.563,3.285,14.075,14.075,0,0,1-9.554-3.285c-2.288-2.077-3.926-4.887-6.232-6.873-2.928-2.526-5.491-4.832-5.893-8.9-.43-4.576.3-9.463.769-13.983.284-2.672.11-6.2.915-8.685L26.167,13.15Z" transform="translate(-1.677 -1.091)"/>
      <path id="Path_467" data-name="Path 467" class="cls-2" d="M41.513,69.673a14.752,14.752,0,0,1-10.067-3.5,31.18,31.18,0,0,1-3.093-3.432,25.624,25.624,0,0,0-3.121-3.423c-2.874-2.462-5.8-4.951-6.241-9.463a58.569,58.569,0,0,1,.522-11.842l.247-2.306c.092-.851.137-1.83.174-2.745a24.1,24.1,0,0,1,.769-6.095L25.425,12.23H57.592l4.722,14.642a25.029,25.029,0,0,1,.769,6.1c0,.97.082,1.9.165,2.745l.256,2.306a59.21,59.21,0,0,1,.522,11.842c-.43,4.512-3.349,7.028-6.177,9.463a25.714,25.714,0,0,0-3.166,3.413,30.275,30.275,0,0,1-3.093,3.432A14.752,14.752,0,0,1,41.513,69.673ZM26.651,13.9,22.3,27.376a22.933,22.933,0,0,0-.7,5.692c-.046,1-.082,1.977-.174,2.855l-.256,2.306a57.6,57.6,0,0,0-.522,11.512c.366,3.853,2.91,6.04,5.61,8.355A28.369,28.369,0,0,1,29.6,61.757a28.37,28.37,0,0,0,2.919,3.258c2.745,2.526,6.406,3.066,9,3.066a13.291,13.291,0,0,0,9-3.066,28.452,28.452,0,0,0,2.928-3.258A28.279,28.279,0,0,1,56.759,58.1c2.7-2.315,5.253-4.512,5.61-8.355a56.922,56.922,0,0,0-.522-11.512L61.6,35.923c-.092-.915-.137-1.83-.183-2.837a23.556,23.556,0,0,0-.686-5.674L56.384,13.9Z" transform="translate(-1.602 -1.013)"/>
      <path id="Path_468" data-name="Path 468" class="cls-8" d="M42.94,2.474A7.321,7.321,0,0,0,47.3,1.248a5.71,5.71,0,0,1,.311.805,2.151,2.151,0,0,1-.2,1.455c.366-.22.814-.311,1.162-.558A3.661,3.661,0,0,0,49.978.9a4.575,4.575,0,0,1,.65.75,4.274,4.274,0,0,1,.43,2.224L53.4,2.822c.357.595.348,2.471,1.135,2.691a9.984,9.984,0,0,1,5.857,4.576,15.4,15.4,0,0,1,2.1,7.12c.22,4.8,0,14.258,0,19.053l-4.265-9.225L57.18,20.209c-1.958-7.321-9.527-4.786-9.527-4.786-5.866,2.27-12.034,0-12.034,0s-7.568-2.535-9.527,4.786L25.04,27l-4.31,9.316V22.04a46.077,46.077,0,0,1,.247-5.39,12.089,12.089,0,0,1,1.83-5.006,7.806,7.806,0,0,1,1.556-1.775c.384-.329,2.013-1.19,2.114-1.638C26.468,8.23,28.06,1.083,42.94,2.474Z" transform="translate(-1.758 -0.051)"/>
      <path id="Path_469" data-name="Path 469" class="cls-2" d="M62.466,37.07a.824.824,0,0,1-.75-.467l-4.31-9.3a1.034,1.034,0,0,1-.073-.22L56.279,20.3a5.848,5.848,0,0,0-2.745-3.862c-2.5-1.345-5.619-.311-5.656-.3-6.058,2.334-12.327.082-12.583,0,0,0-3.157-1.025-5.646.311a5.948,5.948,0,0,0-2.791,3.944l-1.071,6.7a1.034,1.034,0,0,1-.073.22L21.4,36.6a.824.824,0,0,1-1.574-.348V21.961a47.586,47.586,0,0,1,.21-5.491,13.041,13.041,0,0,1,2-5.354,8.575,8.575,0,0,1,1.73-1.968,7.724,7.724,0,0,1,.787-.5,7.559,7.559,0,0,0,1.162-.833c0-.156,1.83-7.7,17.223-6.25a6.543,6.543,0,0,0,3.77-1.08.824.824,0,0,1,.805-.064c.522.238.732,1.2.778,1.391a.457.457,0,0,0,0,.11A2.864,2.864,0,0,0,49.1.583.814.814,0,0,1,49.7,0a.842.842,0,0,1,.787.21,4.859,4.859,0,0,1,.778.915,3.661,3.661,0,0,1,.467,1.409h.082l1.2-.522a.824.824,0,0,1,1.016.339,4.21,4.21,0,0,1,.4,1.254A3.816,3.816,0,0,0,54.76,4.72a10.542,10.542,0,0,1,6.25,4.923,16.381,16.381,0,0,1,2.224,7.5c.156,3.487.11,9.435.073,14.212v4.887a.833.833,0,0,1-.65.805.65.65,0,0,1-.192.018ZM58.951,26.711l2.745,5.82v-1.19c0-4.759.082-10.68-.073-14.111a14.7,14.7,0,0,0-1.986-6.745,9.151,9.151,0,0,0-5.381-4.228c-.988-.275-1.226-1.409-1.418-2.315h0l-.329.137c-1.574.7-1.574.7-1.949.439a.814.814,0,0,1-.375-.7V3.585a4.576,4.576,0,0,0-.11-1.126,4.329,4.329,0,0,1-1.107,1.089,3.661,3.661,0,0,1-.8.4,3.312,3.312,0,0,0-.412.183.814.814,0,0,1-.988-.092.842.842,0,0,1-.247-.988,1.263,1.263,0,0,0,.156-.668,7.705,7.705,0,0,1-3.953.833h0C28.953,1.919,27.242,8.28,27.233,8.335c-.128.595-.778,1.043-1.83,1.711-.238.156-.448.284-.558.366a7.019,7.019,0,0,0-1.4,1.6,11.293,11.293,0,0,0-1.757,4.658,45.106,45.106,0,0,0-.2,5.216v10.6l2.681-5.775L25.2,20.039a7.568,7.568,0,0,1,3.661-5.07c3.121-1.675,6.809-.458,6.964-.412s5.976,2.132,11.467,0c.192-.064,3.871-1.281,7.01.412a7.5,7.5,0,0,1,3.661,4.978Z" transform="translate(-1.681 0.027)"/>
      <path id="Path_470" data-name="Path 470" class="cls-9" d="M43.47,74.1Z" transform="translate(-3.688 -6.263)"/>
      <path id="Path_471" data-name="Path 471" class="cls-10" d="M19.908,52c.384,4.072,2.965,6.406,5.894,8.9,2.306,1.986,3.944,4.8,6.232,6.873a14.075,14.075,0,0,0,9.554,3.285,14.038,14.038,0,0,0,9.554-3.285c2.3-2.077,3.926-4.887,6.232-6.873,2.938-2.526,5.491-4.832,5.9-8.9.421-4.475-.284-9.3-.75-13.727v3.871c0,5.262-5.006,9.819-11.732,12.062a25.981,25.981,0,0,0-18.4,0c-6.735-2.242-11.741-6.8-11.741-12.062V38.279C20.182,42.736,19.487,47.54,19.908,52Z" transform="translate(-1.677 -3.223)"/>
      <path id="Path_472" data-name="Path 472" class="cls-2" d="M30.926,31.371a.833.833,0,0,1-.082-1.656c.092,0,2.324-.22,5.93-.156a.833.833,0,0,1,0,1.656h0a55.24,55.24,0,0,0-5.747.156Z" transform="translate(-2.555 -2.482)"/>
      <circle id="Ellipse_67" data-name="Ellipse 67" class="cls-2" cx="1.51" cy="1.51" r="1.51" transform="translate(30.594 31.579)"/>
      <path id="Path_473" data-name="Path 473" class="cls-2" d="M55.632,31.371H55.55s-2.26-.2-5.747-.156h0a.833.833,0,0,1-.833-.815.814.814,0,0,1,.814-.842c3.587-.064,5.839.156,5.93.156a.833.833,0,0,1-.073,1.656Z" transform="translate(-4.154 -2.482)"/>
      <circle id="Ellipse_68" data-name="Ellipse 68" class="cls-2" cx="1.51" cy="1.51" r="1.51" transform="translate(46.207 31.579)"/>
      <path id="Path_474" data-name="Path 474" class="cls-2" d="M43.136,60.923a12.309,12.309,0,0,1-4.667-.851.833.833,0,0,1,.65-1.528,11.9,11.9,0,0,0,8.035,0,.833.833,0,0,1,1.089.448.814.814,0,0,1-.439,1.08A12.309,12.309,0,0,1,43.136,60.923Z" transform="translate(-3.225 -4.938)"/>
      <path id="Path_475" data-name="Path 475" class="cls-2" d="M43.257,50.262a3.917,3.917,0,0,1-3.917-3.844,4.686,4.686,0,0,1,.082-.914h0s.915-6.351,1.144-7.8a.8.8,0,0,1,.915-.677.824.824,0,0,1,.677.915c-.238,1.446-1.135,7.806-1.135,7.815a2.059,2.059,0,0,0-.055.558,2.187,2.187,0,0,0,.723,1.666,2.132,2.132,0,0,0,1.6.631A2.251,2.251,0,0,0,45.5,46.327a.915.915,0,0,1,.8-.915.76.76,0,0,1,.851.7v.229a3.844,3.844,0,0,1-1.1,2.745,3.908,3.908,0,0,1-2.745,1.2Z" transform="translate(-3.337 -3.117)"/>
      <path id="Path_476" data-name="Path 476" class="cls-2" d="M41.513,71.781a14.752,14.752,0,0,1-10.067-3.5,31.18,31.18,0,0,1-3.093-3.432,25.624,25.624,0,0,0-3.121-3.423c-2.874-2.462-5.8-4.951-6.241-9.463a58.569,58.569,0,0,1,.522-11.842l.247-2.306a.824.824,0,0,1,.915-.741.842.842,0,0,1,.741.915L21.16,40.3a57.6,57.6,0,0,0-.522,11.512c.366,3.853,2.91,6.04,5.61,8.355a28.369,28.369,0,0,1,3.331,3.661A28.368,28.368,0,0,0,32.5,67.087c2.745,2.526,6.406,3.066,9,3.066a13.291,13.291,0,0,0,9-3.066,28.45,28.45,0,0,0,2.928-3.258,28.279,28.279,0,0,1,3.322-3.661c2.7-2.315,5.253-4.512,5.61-8.355A56.922,56.922,0,0,0,61.829,40.3l-.247-2.306a.842.842,0,0,1,.741-.915.805.805,0,0,1,.915.741l.256,2.306a59.21,59.21,0,0,1,.522,11.842c-.43,4.512-3.349,7.028-6.177,9.463a25.716,25.716,0,0,0-3.157,3.423,30.273,30.273,0,0,1-3.093,3.432A14.752,14.752,0,0,1,41.513,71.781Z" transform="translate(-1.602 -3.121)"/>
    </g>
  </g>
</svg>
