<svg xmlns="http://www.w3.org/2000/svg" width="65" height="212.471" viewBox="0 0 65 212.471">
  <g id="Asset_5_-_lady" data-name="Asset 5 - lady" transform="translate(-798.013 -451)">
    <g id="Layer_1" data-name="Layer 1" transform="translate(798.013 451)">
      <path id="Path_477" data-name="Path 477" d="M3.879,111,2,149.43a2.259,2.259,0,0,0-.684,1.462L.9,156.329a7.021,7.021,0,0,0,6.477,7.5,1.725,1.725,0,0,0,.262-3.431,3.131,3.131,0,0,1-2.878-3.356l.187-2.512a1.025,1.025,0,1,1,2.043.169h0l-.15,1.968a1.725,1.725,0,1,0,3.431.272l.159-2.09.075-.937a4,4,0,0,0-2.615-4.068l3.862-38.3" transform="translate(-0.033 -6.958)" fill="#fff2e3"/>
      <path id="Path_478" data-name="Path 478" d="M7.5,164.68H7.274a7.892,7.892,0,0,1-7.245-8.436l.422-5.427a3.018,3.018,0,0,1,.7-1.753l1.818-38.158a.872.872,0,0,1,.937-.806.853.853,0,0,1,.778.844l-1.875,38.43a.834.834,0,0,1-.262.572,1.434,1.434,0,0,0-.431.937L1.7,156.319a6.2,6.2,0,0,0,5.69,6.636.882.882,0,0,0,.947-.806.881.881,0,0,0-.806-.937,3.974,3.974,0,0,1-3.656-4.265l.187-2.512a1.88,1.88,0,1,1,3.749.291l-.15,1.987a.874.874,0,1,0,1.743.131l.234-3.028a3.187,3.187,0,0,0-2.062-3.206.844.844,0,0,1-.553-.881l3.862-38.3a.806.806,0,0,1,.937-.759.844.844,0,0,1,.759.937l-3.8,37.7a4.855,4.855,0,0,1,2.55,4.687l-.234,3.028a2.568,2.568,0,0,1-.881,1.725,2.512,2.512,0,0,1-1.875.609,2.568,2.568,0,0,1-2.362-2.812l.15-1.968a.178.178,0,0,0-.169-.2c-.047,0-.187.056-.187.159l-.15,2.559a2.287,2.287,0,0,0,2.1,2.446,2.559,2.559,0,0,1,2.362,2.756,2.5,2.5,0,0,1-.937,1.753A2.559,2.559,0,0,1,7.5,164.68Z" transform="translate(0.022 -6.901)" fill="#1f2740"/>
      <path id="Path_479" data-name="Path 479" d="M65.15,111.22l1.443,38.317a2.25,2.25,0,0,1,.675,1.472l.366,5.408a7.011,7.011,0,0,1-6.561,7.5,1.715,1.715,0,0,1-.234-3.421,3.121,3.121,0,0,0,2.906-3.318l-.169-2.54a1.024,1.024,0,0,0-2.043.141h0l.131,1.968a1.715,1.715,0,1,1-3.421.225L58.1,154.9l-.066-.937a3.993,3.993,0,0,1,2.643-4.03L57.22,111.745" transform="translate(-3.565 -6.972)" fill="#fff2e3"/>
      <path id="Path_480" data-name="Path 480" d="M60.935,164.674a2.573,2.573,0,0,1-1.922-4.265,2.531,2.531,0,0,1,1.762-.862,2.278,2.278,0,0,0,2.1-2.418l-.169-2.5-.187-.159a.2.2,0,0,0-.159.187l.131,1.978a2.559,2.559,0,0,1-2.39,2.728,2.531,2.531,0,0,1-2.728-2.381l-.2-3.028a4.837,4.837,0,0,1,2.6-4.565L56.38,111.809a.862.862,0,0,1,.769-.937.8.8,0,0,1,.937.769l3.449,38.186a.862.862,0,0,1-.562.881,3.159,3.159,0,0,0-2.137,3.14l.206,3.018a.937.937,0,0,0,.937.806.872.872,0,0,0,.815-.937l-.131-1.968a1.875,1.875,0,0,1,1.743-2,1.772,1.772,0,0,1,1.35.45,1.809,1.809,0,0,1,.637,1.284l.169,2.5a3.955,3.955,0,0,1-3.684,4.218.862.862,0,0,0-.6.3.937.937,0,0,0-.216.628.844.844,0,0,0,.3.591.937.937,0,0,0,.628.216,6.139,6.139,0,0,0,5.727-6.561l-.384-5.39a1.415,1.415,0,0,0-.422-.937.844.844,0,0,1-.253-.562l-1.443-38.327a.853.853,0,0,1,.815-.881h0a.844.844,0,0,1,.844.815l1.434,38.018a3.121,3.121,0,0,1,.684,1.743l.366,5.418a7.845,7.845,0,0,1-7.311,8.361Z" transform="translate(-3.512 -6.914)" fill="#1f2740"/>
      <path id="Path_481" data-name="Path 481" d="M61.732,109.114c-.422-6.027-.3-12.326-3.674-17.593a20.921,20.921,0,0,0-13.319-8.764,21.782,21.782,0,0,0-4.471-.5,10.123,10.123,0,0,1-7.752,3.815,10.123,10.123,0,0,1-7.752-3.815,21.941,21.941,0,0,0-4.48.5,20.9,20.9,0,0,0-13.31,8.764c-3.384,5.268-3.262,11.566-3.684,17.593C2.457,120.952.994,144.348.91,145.623H9.346s3.412-25.429,4.977-38.43H50.672c1.575,13.029,4.977,38.43,4.977,38.43h8.436C64.048,144.348,62.567,120.952,61.732,109.114Z" transform="translate(-0.035 -5.156)" fill="#c3deff"/>
      <path id="Path_482" data-name="Path 482" d="M64.055,146.418H55.619a.853.853,0,0,1-.844-.74c0-.253-3.3-24.623-4.883-37.718H15c-1.584,13.122-4.855,37.493-4.883,37.718a.853.853,0,0,1-.844.74H.833a.862.862,0,0,1-.853-.937c.075-1.312,1.565-24.82,2.39-36.555.056-.815.1-1.65.15-2.475.3-5.3.619-10.779,3.665-15.513a21.7,21.7,0,0,1,13.863-9.073,23.087,23.087,0,0,1,4.687-.516h0a.825.825,0,0,1,.647.309,8.951,8.951,0,0,0,14.21,0,.844.844,0,0,1,.647-.309h0a22.993,22.993,0,0,1,4.687.516A21.7,21.7,0,0,1,58.778,91c3.037,4.687,3.356,10.217,3.656,15.513.056.825.094,1.659.15,2.475h0c.825,11.707,2.315,35.215,2.39,36.555a.862.862,0,0,1-.853.937Zm-7.686-1.659h6.786c-.281-4.621-1.575-24.97-2.325-35.618h0c-.056-.825-.1-1.668-.159-2.5-.291-5.08-.59-10.31-3.384-14.7A20.04,20.04,0,0,0,44.5,83.506a22.14,22.14,0,0,0-3.909-.469,10.6,10.6,0,0,1-16.272,0,22.345,22.345,0,0,0-3.918.469A20.021,20.021,0,0,0,7.628,91.942c-2.812,4.368-3.1,9.626-3.393,14.7-.056.844-.1,1.678-.159,2.5-.75,10.629-2.043,30.978-2.325,35.618h6.8c.562-4.274,3.468-26.067,4.874-37.708a.853.853,0,0,1,.844-.74H50.614a.844.844,0,0,1,.844.74C52.891,118.646,55.8,140.438,56.369,144.759Z" transform="translate(0.023 -5.099)" fill="#1f2740"/>
      <path id="Path_483" data-name="Path 483" d="M41.863,81.47h-.281L40.448,69.66H27.766L26.632,81.451H26.36a9.8,9.8,0,0,0,15.5.019Z" transform="translate(-1.63 -4.367)" fill="#fff2e3"/>
      <path id="Path_484" data-name="Path 484" d="M34.052,86.067a10.91,10.91,0,0,1-8.436-4.115.862.862,0,0,1-.112-.937.834.834,0,0,1,.253-.319l1.069-11.248a.853.853,0,0,1,.853-.769h12.71a.853.853,0,0,1,.853.769l1.078,11.435a.619.619,0,0,1,.112.159.862.862,0,0,1,0,.937A10.91,10.91,0,0,1,34.052,86.067Zm-6.627-4.687a8.876,8.876,0,0,0,13.244,0L39.62,70.414H28.475Z" transform="translate(-1.571 -4.305)" fill="#1f2740"/>
      <path id="Path_485" data-name="Path 485" d="M11.219,42.93A3.749,3.749,0,0,0,7.47,46.679v3.693a3.749,3.749,0,0,0,7.5,0V46.679A3.749,3.749,0,0,0,11.219,42.93Z" transform="translate(-0.446 -2.691)" fill="#fff2e3"/>
      <path id="Path_486" data-name="Path 486" d="M11.163,54.922A4.6,4.6,0,0,1,6.57,50.329V46.636a4.6,4.6,0,0,1,9.2,0v3.693A4.6,4.6,0,0,1,11.163,54.922Zm0-11.182a2.906,2.906,0,0,0-2.9,2.9v3.693a2.9,2.9,0,1,0,5.793,0V46.636A2.9,2.9,0,0,0,11.163,43.74Z" transform="translate(-0.39 -2.648)" fill="#1f2740"/>
      <circle id="Ellipse_69" data-name="Ellipse 69" cx="2.053" cy="2.053" r="2.053" transform="translate(8.72 49.378)" fill="#1f2740"/>
      <path id="Path_487" data-name="Path 487" d="M57.4,42.93a3.749,3.749,0,0,1,3.749,3.749v3.693a3.749,3.749,0,0,1-7.5,0V46.679A3.749,3.749,0,0,1,57.4,42.93Z" transform="translate(-3.341 -2.691)" fill="#fff2e3"/>
      <path id="Path_488" data-name="Path 488" d="M57.343,54.922a4.6,4.6,0,0,1-4.593-4.593V46.636a4.6,4.6,0,0,1,9.2,0v3.693A4.6,4.6,0,0,1,57.343,54.922Zm0-11.182a2.906,2.906,0,0,0-2.9,2.9v3.693a2.9,2.9,0,0,0,5.793,0V46.636A2.9,2.9,0,0,0,57.343,43.74Z" transform="translate(-3.285 -2.648)" fill="#1f2740"/>
      <circle id="Ellipse_70" data-name="Ellipse 70" cx="2.053" cy="2.053" r="2.053" transform="translate(52.006 49.378)" fill="#1f2740"/>
      <path id="Path_489" data-name="Path 489" d="M43.967,69.587c3.009-2.634,6.327-5.268,7.977-9.026a32.872,32.872,0,0,0,2.418-13.122V29.01c0-9.907-10.245-17.94-21.221-17.94S11.92,19.1,11.92,29.01V47.475a34.465,34.465,0,0,0,2.681,13.7c1.265,2.953,3.88,5,6.252,7.03,3.955,3.393,6.561,6.974,12.288,6.974,3.552,0,6.5-1.8,9.083-4.077Z" transform="translate(-0.725 -0.694)" fill="#fff2e3"/>
      <path id="Path_490" data-name="Path 490" d="M33.087,75.981c-5.033,0-7.836-2.6-10.8-5.333-.647-.609-1.322-1.228-2.043-1.875l-.619-.525c-2.268-1.912-4.621-3.871-5.811-6.786A35.1,35.1,0,0,1,11.07,47.4V28.956c0-10.011,10.31-18.746,22.064-18.746s22.074,8.773,22.074,18.746V47.421a33.284,33.284,0,0,1-2.493,13.432c-1.575,3.581-4.518,6.139-7.367,8.6l-2.615,2.231C40.633,73.535,37.352,75.981,33.087,75.981Zm0-64.112c-10.835.019-20.368,7.986-20.368,17.087V47.421A33.547,33.547,0,0,0,15.325,60.8c1.078,2.512,3.281,4.377,5.408,6.186l.619.525c.731.637,1.425,1.275,2.1,1.875,2.943,2.728,5.268,4.883,9.636,4.883,2.812,0,5.521-1.228,8.52-3.862l1.743-1.528h0l.834-.722c2.709-2.343,5.5-4.771,6.927-8A32.1,32.1,0,0,0,53.465,47.4V28.956c0-9.1-9.523-17.069-20.377-17.069Z" transform="translate(-0.672 -0.64)" fill="#1f2740"/>
      <path id="Path_491" data-name="Path 491" d="M58.6,220.538s-4.912-4.405-22.186-5.868v9.523L58.6,223.05Z" transform="translate(-2.26 -13.456)" fill="#fff2e3"/>
      <path id="Path_492" data-name="Path 492" d="M36.353,224.979a.825.825,0,0,1-.581-.225.872.872,0,0,1-.272-.619v-9.523a.834.834,0,0,1,.281-.628.787.787,0,0,1,.647-.225c17.359,1.481,22.5,5.905,22.683,6.093a.862.862,0,0,1,.281.637v2.5a.844.844,0,0,1-.806.853L36.4,224.979Zm.853-9.439v7.7l20.49-1.059V220.9C56.458,220.049,50.966,216.8,37.206,215.541Z" transform="translate(-2.203 -13.399)" fill="#1f2740"/>
      <path id="Path_493" data-name="Path 493" d="M58.765,225.269H36.41v-7.5s4.527,5.521,19.562,1.725C55.972,219.476,63.4,220.451,58.765,225.269Z" transform="translate(-2.26 -13.651)" fill="#966a4e"/>
      <path id="Path_494" data-name="Path 494" d="M59.064,225.962H35.5V215.22l1.509,1.875s4.49,5.024,18.746,1.443l.159-.047h.159c.412.056,4.087.609,4.9,2.915.45,1.284-.094,2.737-1.612,4.312Zm-21.858-1.7H58.333c.637-.712,1.237-1.622.994-2.315-.375-1.069-2.465-1.612-3.374-1.762-10.789,2.681-16.347.665-18.746-.834Z" transform="translate(-2.203 -13.491)" fill="#1f2740"/>
      <path id="Path_495" data-name="Path 495" d="M9.17,220.538s4.912-4.405,22.186-5.868v9.523L9.17,223.05Z" transform="translate(-0.553 -13.456)" fill="#fff2e3"/>
      <path id="Path_496" data-name="Path 496" d="M31.3,224.979h0L9.076,223.845a.844.844,0,0,1-.806-.853v-2.5a.862.862,0,0,1,.281-.637c.206-.187,5.324-4.612,22.683-6.093a.778.778,0,0,1,.647.225.862.862,0,0,1,.272.628v9.523a.834.834,0,0,1-.853.844ZM9.967,222.167l20.49,1.059v-7.7c-13.807,1.284-19.252,4.508-20.49,5.361Z" transform="translate(-0.496 -13.399)" fill="#1f2740"/>
      <path id="Path_497" data-name="Path 497" d="M8.9,225.269H31.243v-7.5s-4.537,5.5-19.534,1.706C11.709,219.476,4.21,220.451,8.9,225.269Z" transform="translate(-0.439 -13.651)" fill="#966a4e"/>
      <path id="Path_498" data-name="Path 498" d="M32.039,225.968H8.475l-.253-.262c-1.518-1.575-2.062-3.028-1.612-4.312.815-2.306,4.49-2.859,4.912-2.915h.15l.159.047c14.191,3.581,18.662-1.406,18.746-1.453l1.49-1.753Zm-22.833-1.7H30.343V219.36c-2.409,1.5-7.967,3.524-18.746.834-.937.15-3,.694-3.374,1.762C7.969,222.65,8.569,223.559,9.206,224.271Z" transform="translate(-0.383 -13.497)" fill="#1f2740"/>
      <path id="Path_499" data-name="Path 499" d="M50.515,143.87s1.612,7.574-.375,25.458c-1.875,17.012-1.875,19.684-1.7,41.429l-13.329.937s.375-33.968-.441-47.053H32.21c-.806,13.122-.441,47.053-.441,47.053l-13.329-.937c.169-21.755.2-24.37-1.7-41.429-1.987-17.884-.366-25.458-.366-25.458Z" transform="translate(-0.966 -9.018)" fill="#e8e4e2"/>
      <path id="Path_500" data-name="Path 500" d="M35.058,212.441a.844.844,0,0,1-.581-.234.825.825,0,0,1-.272-.628c0-.328.347-32.75-.384-46.191h-.862c-.74,13.441-.394,45.863-.394,46.191a.853.853,0,0,1-.262.628.769.769,0,0,1-.647.234L18.327,211.5a.834.834,0,0,1-.787-.853c.169-21.558.187-24.37-1.7-41.326-1.978-17.809-.431-25.42-.356-25.729a.853.853,0,0,1,.825-.675H50.458a.853.853,0,0,1,.825.675c.075.309,1.631,7.911-.356,25.729-1.875,16.965-1.875,19.74-1.687,41.326a.853.853,0,0,1-.8.853l-13.329.937ZM32.152,163.7h2.465a.853.853,0,0,1,.853.8c.722,11.754.5,40.67.45,46.2l11.613-.787c-.169-20.94-.169-23.864,1.706-40.726,1.622-14.585.815-22.308.5-24.52h-32.7c-.319,2.212-1.125,9.936.5,24.52,1.875,16.872,1.875,19.777,1.715,40.726l11.613.787c-.047-5.53-.281-34.446.45-46.2a.844.844,0,0,1,.844-.806Z" transform="translate(-0.908 -8.959)" fill="#1f2740"/>
      <line id="Line_80" data-name="Line 80" x2="4.715" transform="translate(30.119 155.576)" fill="#fff"/>
      <path id="Path_501" data-name="Path 501" d="M36.764,166.776H32.077a.853.853,0,1,1,0-1.7h4.687a.853.853,0,0,1,0,1.7Z" transform="translate(-1.93 -10.348)" fill="#1f2740"/>
      <path id="Path_502" data-name="Path 502" d="M48.188,12.082c0,8.061-6.561,13.825-14.6,13.825S19,20.143,19,12.082,25.561.9,33.585.9,48.188,4.021,48.188,12.082Z" transform="translate(-1.169 -0.056)" fill="#c9c9c9"/>
      <path id="Path_503" data-name="Path 503" d="M33.527,26.7c-8.8,0-15.447-6.308-15.447-14.678C18.08,4.387,23.713,0,33.527,0S48.936,4.387,48.936,12.026C48.936,20.4,42.375,26.7,33.527,26.7Zm0-25.008c-5.127,0-13.741,1.34-13.741,10.31,0,7.4,5.905,12.972,13.741,12.972s13.75-5.624,13.75-12.972c0-8.97-8.651-10.31-13.75-10.31Z" transform="translate(-1.111 0)" fill="#1f2740"/>
      <circle id="Ellipse_71" data-name="Ellipse 71" cx="1.556" cy="1.556" r="1.556" transform="translate(22.386 42.854)" fill="#1f2740"/>
      <path id="Path_504" data-name="Path 504" d="M22.013,44.093a.834.834,0,0,1-.731-.422.853.853,0,0,1,.3-1.162,7.5,7.5,0,0,1,4.687-.825.847.847,0,0,1-.234,1.678,6.346,6.346,0,0,0-3.571.619.834.834,0,0,1-.45.112Z" transform="translate(-1.305 -2.608)" fill="#1f2740"/>
      <circle id="Ellipse_72" data-name="Ellipse 72" cx="1.556" cy="1.556" r="1.556" transform="translate(39.342 42.854)" fill="#1f2740"/>
      <path id="Path_505" data-name="Path 505" d="M46.719,44.094a.862.862,0,0,1-.422-.112,6.121,6.121,0,0,0-3.562-.619.848.848,0,0,1-.244-1.678,7.63,7.63,0,0,1,4.687.825.853.853,0,0,1-.431,1.584Z" transform="translate(-2.596 -2.608)" fill="#1f2740"/>
      <path id="Path_506" data-name="Path 506" d="M34.491,69.058a9.242,9.242,0,0,1-6.289-2.3.844.844,0,0,1-.066-1.19.853.853,0,0,1,1.2-.066,7.948,7.948,0,0,0,6.027,1.818h.216a.787.787,0,0,1,.89.806.853.853,0,0,1-.806.937v-.853l-.15.862A6.977,6.977,0,0,0,34.491,69.058Z" transform="translate(-1.728 -4.093)" fill="#1f2740"/>
      <path id="Path_507" data-name="Path 507" d="M30.993,43.666a.844.844,0,0,1-.412-1.584,8.314,8.314,0,0,1,7.414,0,.844.844,0,0,1,.319,1.153.862.862,0,0,1-1.153.328,6.561,6.561,0,0,0-5.746,0A.825.825,0,0,1,30.993,43.666Z" transform="translate(-1.867 -2.583)" fill="#1f2740"/>
      <path id="Path_508" data-name="Path 508" d="M22.793,54a8.38,8.38,0,1,1,0-16.74,8.38,8.38,0,1,1,0,16.74Zm0-15a6.683,6.683,0,1,0,0,13.347,6.683,6.683,0,1,0,0-13.347Z" transform="translate(-0.857 -2.335)" fill="#1f2740"/>
      <path id="Path_509" data-name="Path 509" d="M45.209,54a8.38,8.38,0,1,1,8.67-8.37A8.539,8.539,0,0,1,45.209,54Zm0-15a6.683,6.683,0,1,0,7,6.674,6.852,6.852,0,0,0-7-6.721Z" transform="translate(-2.305 -2.335)" fill="#1f2740"/>
      <path id="Path_510" data-name="Path 510" d="M36.462,60.466a7.63,7.63,0,0,1-2.887-.656.845.845,0,1,1,.637-1.565c1.715.694,3.056.694,3.674,0S38.4,56,37.521,54.42c-1.706-3.159-1.181-9.429-1.153-9.692a.825.825,0,0,1,.937-.769.844.844,0,0,1,.769.937c0,.056-.544,6.008.937,8.708,1.247,2.259,1.3,4.471.15,5.774a3.44,3.44,0,0,1-2.7,1.087Z" transform="translate(-2.05 -2.755)" fill="#1f2740"/>
      <path id="Path_511" data-name="Path 511" d="M49.125,17.633h0a23.18,23.18,0,0,0-32.262,0h0C8.614,24.644,9.13,41.656,9.13,41.656c.937-.806,1.781-1.584,2.615-2.362C19.8,31.8,22.936,25.741,22.936,25.741c10.554,8.951,25.495,13.6,31.25,15.147,1.509.4,2.418.609,2.418.609S57.3,24.288,49.125,17.633Z" transform="translate(-0.55 -0.696)" fill="#c9c9c9"/>
      <path id="Path_512" data-name="Path 512" d="M9.073,42.441a.778.778,0,0,1-.347-.075.853.853,0,0,1-.5-.75c0-.712-.431-17.49,7.986-24.717a24.061,24.061,0,0,1,33.406,0c8.436,6.852,7.808,23.817,7.78,24.539a.853.853,0,0,1-.337.647.881.881,0,0,1-.694.15s-.937-.206-2.456-.619c-5.8-1.556-20.209-6.055-30.8-14.66a62.21,62.21,0,0,1-10.845,12.9c-.937.844-1.725,1.6-2.643,2.39a.853.853,0,0,1-.553.2Zm13.8-17.612a.844.844,0,0,1,.553.206c10.395,8.8,25.092,13.4,30.931,15,.534.15.994.262,1.359.356,0-3.749-.562-16.731-7.18-22.13h0a.638.638,0,0,1-.112-.112,22.355,22.355,0,0,0-31.044,0c-6.28,5.38-7.283,17-7.433,21.558l1.078-1c7.911-7.386,11.051-13.347,11.1-13.413a.937.937,0,0,1,.591-.441Zm26.751-7.9Z" transform="translate(-0.494 -0.637)" fill="#1f2740"/>
      <path id="Path_513" data-name="Path 513" d="M23.786,26.475a21.324,21.324,0,0,1-.356-3.665" transform="translate(-1.447 -1.43)" fill="#c1c0bf"/>
      <path id="Path_514" data-name="Path 514" d="M23.72,27.271a.862.862,0,0,1-.834-.7,23.039,23.039,0,0,1-.366-3.843.937.937,0,0,1,.872-.825.844.844,0,0,1,.825.872,20.621,20.621,0,0,0,.347,3.5.853.853,0,0,1-.656.984Z" transform="translate(-1.39 -1.373)" fill="#1f2740"/>
      <path id="Path_515" data-name="Path 515" d="M50.778,102c1.678,4.377.853,9.664.319,14.21-.291,2.531-.937,4.968-1,7.5-.1,5.09.815,10.076,1.172,15.128.159,2.418.291,4.846.319,7.264-.937.159-18.184,0-18.184,0s-17.3.159-18.184,0c0-2.418.15-4.846.319-7.264.347-5.052,1.265-10.039,1.162-15.128-.056-2.559-.712-5-1-7.5-.534-4.546-1.359-9.832.319-14.21" transform="translate(-0.919 -6.394)" fill="#c3deff" fill-rule="evenodd"/>
      <path id="Path_516" data-name="Path 516" d="M46.072,146.97c-4.443,0-10.31-.056-12.738-.075-4.068,0-17.443.141-18.325,0a.853.853,0,0,1-.7-.844c0-2.165.122-4.49.328-7.32.122-1.875.319-3.656.516-5.474a72.437,72.437,0,0,0,.637-9.579,29.825,29.825,0,0,0-.553-4.583c-.169-.937-.328-1.875-.441-2.812l-.131-1.078c-.525-4.368-1.115-9.308.5-13.544a.853.853,0,0,1,1.584.609c-1.462,3.843-.937,8.558-.394,12.729l.131,1.078c.1.937.262,1.875.422,2.812a31.034,31.034,0,0,1,.581,4.827,75.221,75.221,0,0,1-.665,9.72c-.206,1.79-.394,3.59-.525,5.4-.169,2.446-.272,4.508-.3,6.411,2.606,0,11.342,0,17.312-.047s14.706.1,17.331,0c0-1.875-.141-3.946-.309-6.392-.122-1.809-.319-3.6-.516-5.4a73.654,73.654,0,0,1-.647-9.814,31.036,31.036,0,0,1,.581-4.827c.159-.937.319-1.875.422-2.812l.131-1.078c.506-4.171,1.069-8.886-.394-12.729a.853.853,0,1,1,1.584-.609c1.612,4.237,1.022,9.176.5,13.544l-.131,1.078c-.112.937-.272,1.875-.441,2.812a31.025,31.025,0,0,0-.553,4.583,74.343,74.343,0,0,0,.637,9.706c.2,1.813.394,3.632.525,5.459.2,2.812.3,5.174.319,7.311a.853.853,0,0,1-.694.853C51.321,146.923,49,146.97,46.072,146.97Z" transform="translate(-0.862 -6.325)" fill="#1f2740"/>
      <path id="Path_517" data-name="Path 517" d="M20.284,82.79a20.9,20.9,0,0,0-13.31,8.764c-3.384,5.268-3.262,11.566-3.684,17.593C2.457,120.986.994,144.381.91,145.656H9.346s3.412-25.429,4.977-38.43H27.445a79.1,79.1,0,0,0-2.259-12.513,41.082,41.082,0,0,0-4.9-11.923Z" transform="translate(-0.035 -5.19)" fill="#9d53ff"/>
      <path id="Path_518" data-name="Path 518" d="M9.289,146.452H.853A.862.862,0,0,1,0,145.514c.075-1.312,1.565-24.82,2.39-36.555.056-.815.1-1.65.15-2.475.3-5.3.619-10.779,3.665-15.513A21.7,21.7,0,0,1,20.049,81.9a.853.853,0,0,1,.89.375,41.345,41.345,0,0,1,4.987,12.185A80.076,80.076,0,0,1,28.2,107.113a.825.825,0,0,1-.216.647.853.853,0,0,1-.628.281H15c-1.584,13.122-4.855,37.493-4.883,37.718A.853.853,0,0,1,9.289,146.452Zm-7.5-1.706H8.548c.562-4.274,3.468-26.067,4.874-37.708a.853.853,0,0,1,.844-.74H26.451a80.287,80.287,0,0,0-2.175-11.454,40.735,40.735,0,0,0-4.452-11.154A19.871,19.871,0,0,0,7.639,91.947c-2.812,4.368-3.1,9.626-3.393,14.7-.056.844-.1,1.678-.159,2.5-.759,10.629-2.053,30.96-2.334,35.646Z" transform="translate(0.022 -5.133)" fill="#1f2740"/>
      <path id="Path_519" data-name="Path 519" d="M21.149,82.79a41.083,41.083,0,0,1,4.874,11.895,75.248,75.248,0,0,1,2.493,15.606c.253,5.455-.553,10.9-.815,16.347-.309,6.5-.337,14.06-.562,20.621,0,0-11.548.844-12.438.684,0-2.428.159-5.858.319-8.277.347-5.061,1.762-12.035,1.659-17.125-.056-2.559-.712-5-1-7.5-.534-4.546-1.359-9.832.319-14.21" transform="translate(-0.899 -5.19)" fill="#9d53ff" fill-rule="evenodd"/>
      <path id="Path_520" data-name="Path 520" d="M15.1,148.719a4.209,4.209,0,0,1-.609,0,.853.853,0,0,1-.7-.844c0-2.559.159-5.989.328-8.323.131-2,.431-4.237.74-6.617A74.61,74.61,0,0,0,15.8,122.5a29.826,29.826,0,0,0-.553-4.583c-.169-.937-.328-1.875-.441-2.812l-.131-1.078c-.525-4.368-1.115-9.308.5-13.544a.853.853,0,0,1,1.584.609c-1.462,3.843-.937,8.558-.394,12.729l.131,1.078c.1.937.262,1.875.422,2.812a31.035,31.035,0,0,1,.581,4.827,74.61,74.61,0,0,1-.937,10.695c-.309,2.343-.6,4.565-.74,6.505s-.253,4.987-.3,7.386c1.781,0,6.4-.328,10.751-.647.075-2.5.131-5.146.187-7.817.084-4.049.178-8.23.356-12.026.094-1.875.244-3.749.394-5.558a84.893,84.893,0,0,0,.422-10.7,73.973,73.973,0,0,0-2.484-15.531,39.892,39.892,0,0,0-4.762-11.651.853.853,0,0,1,1.425-.937,41.345,41.345,0,0,1,4.987,12.185,76.016,76.016,0,0,1,2.521,15.775,86.289,86.289,0,0,1-.422,10.929c-.15,1.875-.309,3.674-.394,5.5-.178,3.749-.262,7.939-.356,11.979-.056,2.943-.112,5.868-.216,8.6a.844.844,0,0,1-.787.815C24.719,148.195,17.389,148.719,15.1,148.719Zm12.007-1.547Z" transform="translate(-0.842 -5.132)" fill="#1f2740"/>
      <path id="Path_521" data-name="Path 521" d="M47.191,82.79A20.921,20.921,0,0,1,60.51,91.554c3.374,5.268,3.252,11.566,3.674,17.593.834,11.838,2.315,35.234,2.381,36.555H58.13s-3.4-25.429-4.977-38.43H40.03A80.179,80.179,0,0,1,42.289,94.76a41.083,41.083,0,0,1,4.9-11.97Z" transform="translate(-2.487 -5.19)" fill="#9d53ff"/>
      <path id="Path_522" data-name="Path 522" d="M66.511,146.448H58.075a.853.853,0,0,1-.844-.74c0-.253-3.3-24.623-4.883-37.718H40a.853.853,0,0,1-.628-.281.825.825,0,0,1-.216-.647,80.076,80.076,0,0,1,2.278-12.654,41.6,41.6,0,0,1,4.987-12.185.853.853,0,0,1,.937-.375,21.7,21.7,0,0,1,13.854,9.139C64.252,95.674,64.57,101.2,64.87,106.5c.056.825.094,1.659.15,2.475.825,11.707,2.315,35.215,2.39,36.555a.862.862,0,0,1-.853.937Zm-7.686-1.659h6.786c-.281-4.621-1.575-24.97-2.325-35.618-.056-.825-.1-1.668-.159-2.5-.291-5.08-.591-10.31-3.384-14.7a19.927,19.927,0,0,0-12.185-8.258,40.736,40.736,0,0,0-4.452,11.154,80.29,80.29,0,0,0-2.146,11.454h12.11a.844.844,0,0,1,.844.741C55.347,118.675,58.253,140.468,58.825,144.789Z" transform="translate(-2.432 -5.129)" fill="#1f2740"/>
      <path id="Path_523" data-name="Path 523" d="M47.174,82.79A41.083,41.083,0,0,0,42.3,94.685a75.923,75.923,0,0,0-2.493,15.606c-.253,5.455.553,10.9.815,16.347.309,6.5.337,14.06.572,20.621,0,0,11.548.844,12.429.684,0-2.428-.15-5.858-.319-8.277-.347-5.061-1.762-12.035-1.659-17.125.056-2.559.712-5,1-7.5.534-4.546,1.359-9.832-.319-14.21" transform="translate(-2.47 -5.19)" fill="#9d53ff" fill-rule="evenodd"/>
      <path id="Path_524" data-name="Path 524" d="M53.108,148.718c-2.287,0-9.617-.525-12.035-.7a.853.853,0,0,1-.787-.815c-.094-2.746-.159-5.68-.216-8.642-.084-4.021-.169-8.183-.356-11.941-.084-1.875-.234-3.674-.384-5.511a84.426,84.426,0,0,1-.431-10.92A76.016,76.016,0,0,1,41.42,94.409a41.561,41.561,0,0,1,4.987-12.185.853.853,0,1,1,1.425.937,39.63,39.63,0,0,0-4.762,11.651,73.973,73.973,0,0,0-2.475,15.428,86.607,86.607,0,0,0,.422,10.695c.159,1.875.309,3.749.394,5.568.187,3.749.272,7.958.356,11.988.056,2.681.112,5.343.187,7.855,4.349.319,8.951.6,10.751.647-.047-2.4-.159-5.324-.3-7.386s-.431-4.162-.74-6.514a75.744,75.744,0,0,1-.937-10.685,31.034,31.034,0,0,1,.581-4.827c.159-.937.319-1.875.422-2.812l.131-1.078c.506-4.171,1.069-8.886-.394-12.729a.853.853,0,1,1,1.584-.609c1.612,4.237,1.022,9.176.5,13.544l-.131,1.078c-.112.937-.272,1.875-.441,2.812a31.025,31.025,0,0,0-.553,4.583,74.367,74.367,0,0,0,.937,10.423c.309,2.381.609,4.621.74,6.627.169,2.334.3,5.764.328,8.323a.853.853,0,0,1-.7.844,4.211,4.211,0,0,1-.619.131Z" transform="translate(-2.415 -5.13)" fill="#1f2740"/>
      <circle id="Ellipse_73" data-name="Ellipse 73" cx="0.919" cy="0.919" r="0.919" transform="translate(41.47 92.888)" fill="#1f2740"/>
      <circle id="Ellipse_74" data-name="Ellipse 74" cx="0.919" cy="0.919" r="0.919" transform="translate(40.298 99.955)" fill="#1f2740"/>
      <circle id="Ellipse_75" data-name="Ellipse 75" cx="0.919" cy="0.919" r="0.919" transform="translate(39.905 107.023)" fill="#1f2740"/>
      <circle id="Ellipse_76" data-name="Ellipse 76" cx="0.919" cy="0.919" r="0.919" transform="translate(40.298 114.081)" fill="#1f2740"/>
      <circle id="Ellipse_77" data-name="Ellipse 77" cx="0.919" cy="0.919" r="0.919" transform="translate(40.795 121.148)" fill="#1f2740"/>
      <circle id="Ellipse_78" data-name="Ellipse 78" cx="0.919" cy="0.919" r="0.919" transform="translate(41.03 128.215)" fill="#1f2740"/>
    </g>
  </g>
</svg>
