<svg class="sd-svg sd-svg--person-man2" width="72" height="211" xmlns="http://www.w3.org/2000/svg" viewBox="1471.627 -2972.699 71.945 211.324">
  <defs>
    <style>
      .sd-svg--person-man2 .cls-1 {
        fill: #eef1f6;
      }

      .sd-svg--person-man2 .cls-2 {
        fill: #1f2740;
      }

      .sd-svg--person-man2 .cls-3 {
        fill: #fff;
      }

      .sd-svg--person-man2 .cls-4 {
        fill: #ccc;
      }

      .sd-svg--person-man2 .cls-5 {
        fill: #848484;
      }

      .sd-svg--person-man2 .cls-6 {
        fill: #eaddd3;
      }

      .sd-svg--person-man2 .cls-7 {
        fill: #333132;
      }

      .sd-svg--person-man2 .cls-8 {
        fill: #ef7229;
      }

      .sd-svg--person-man2 .cls-9 {
        fill: #9d53ff;
      }

      .sd-svg--person-man2 .cls-10 {
        fill: #bcbec0;
      }

      .sd-svg--person-man2 .cls-11 {
        fill: #0072ff;
      }

      .sd-svg--person-man2 .cls-12 {
        fill: #898989;
      }
    </style>
  </defs>
  <g id="Asset_6_-man2" data-name="Asset 6 -man2" transform="translate(-624.987 1834)">
    <g id="Layer_1" data-name="Layer 1" transform="translate(2096.613 -4806.699)">
      <path id="Path_249" data-name="Path 249" class="cls-1" d="M30.422,223.1l-14.095,1.314A5.711,5.711,0,0,0,11,230.566l.213,2.052,24.326-.506a74.551,74.551,0,0,0-.5-9.441Z" transform="translate(-1.224 -24.908)"/>
      <path id="Path_250" data-name="Path 250" class="cls-2" d="M11.128,233.324a.808.808,0,0,1-.808-.728l-.2-2.052a6.217,6.217,0,0,1,1.4-4.609,6.759,6.759,0,0,1,4.645-2.434L30.25,222.2l.071.8-.071-.8,4.636-.426a.808.808,0,0,1,.888.719,75.031,75.031,0,0,1,.488,9.548.8.8,0,0,1-.79.782l-24.326.506ZM30.437,223.8l-14.122,1.306a5.143,5.143,0,0,0-3.553,1.847,4.645,4.645,0,0,0-1.048,3.428l.133,1.314,22.808-.471a74.186,74.186,0,0,0-.417-7.789L30.4,223.8Z" transform="translate(-1.123 -24.807)"/>
      <path id="Path_251" data-name="Path 251" class="cls-3" d="M11.18,233.87a.551.551,0,0,0-.56.533v1.776a.551.551,0,0,0,.56.533H26.394l2.2-2.807Z" transform="translate(-1.183 -26.161)"/>
      <path id="Path_252" data-name="Path 252" class="cls-2" d="M26.293,237.38H11.079a1.35,1.35,0,0,1-1.359-1.341v-1.776a1.341,1.341,0,0,1,1.359-1.332H28.5a.8.8,0,0,1,.631,1.3l-2.2,2.815A.817.817,0,0,1,26.293,237.38Zm-14.965-1.608H25.893l.95-1.2H11.328Z" transform="translate(-1.083 -26.055)"/>
      <path id="Path_253" data-name="Path 253" class="cls-1" d="M37.566,233.87H30.86l.4,2.807h6.306a.542.542,0,0,0,.551-.533v-1.776a.542.542,0,0,0-.551-.5Z" transform="translate(-3.447 -26.161)"/>
      <path id="Path_254" data-name="Path 254" class="cls-2" d="M37.459,237.384h-6.3a.8.8,0,0,1-.79-.693L30,233.885a.773.773,0,0,1,.2-.639.791.791,0,0,1,.6-.275h6.661a1.35,1.35,0,0,1,1.368,1.332v1.776A1.359,1.359,0,0,1,37.459,237.384Zm-5.6-1.608h5.329v-1.2H31.686Zm5.6-1.2Z" transform="translate(-3.35 -26.06)"/>
      <path id="Path_255" data-name="Path 255" class="cls-1" d="M47.476,223.1l14.1,1.314a5.711,5.711,0,0,1,5.329,6.155l-.2,2.052-24.335-.506a74.552,74.552,0,0,1,.5-9.441Z" transform="translate(-4.734 -24.908)"/>
      <path id="Path_256" data-name="Path 256" class="cls-2" d="M66.566,233.324h0l-24.326-.506a.8.8,0,0,1-.79-.782,75.033,75.033,0,0,1,.488-9.548.8.8,0,0,1,.888-.719L61.548,223.5a6.794,6.794,0,0,1,4.645,2.434,6.217,6.217,0,0,1,1.4,4.61l-.222,2.087A.808.808,0,0,1,66.566,233.324Zm-23.527-2.1,22.808.471.133-1.314a4.609,4.609,0,0,0-1.048-3.428,5.178,5.178,0,0,0-3.553-1.847L47.267,223.8h0l-3.837-.364A74.186,74.186,0,0,0,43.039,231.228Z" transform="translate(-4.631 -24.807)"/>
      <path id="Path_257" data-name="Path 257" class="cls-1" d="M67.547,233.87a.551.551,0,0,1,.56.533v1.776a.551.551,0,0,1-.56.533H52.341l-2.211-2.807Z" transform="translate(-5.603 -26.161)"/>
      <path id="Path_258" data-name="Path 258" class="cls-2" d="M67.445,237.384H52.24a.835.835,0,0,1-.639-.3l-2.2-2.815a.8.8,0,0,1,.631-1.3H67.445A1.341,1.341,0,0,1,68.8,234.3v1.776A1.35,1.35,0,0,1,67.445,237.384Zm-14.814-1.608H67.2v-1.2H51.69Zm14.814-1.2Z" transform="translate(-5.501 -26.06)"/>
      <path id="Path_259" data-name="Path 259" class="cls-1" d="M42.511,233.87h6.706l-.4,2.78H42.511a.542.542,0,0,1-.551-.533v-1.776a.542.542,0,0,1,.551-.471Z" transform="translate(-4.689 -26.161)"/>
      <path id="Path_260" data-name="Path 260" class="cls-2" d="M48.715,237.38h-6.3a1.359,1.359,0,0,1-1.368-1.341v-1.776a1.35,1.35,0,0,1,1.368-1.332h6.7a.79.79,0,0,1,.6.275.773.773,0,0,1,.169.675l-.409,2.807A.8.8,0,0,1,48.715,237.38Zm-6.057-1.608h5.329l.178-1.2H42.658Z" transform="translate(-4.587 -26.055)"/>
      <path id="Path_261" data-name="Path 261" class="cls-2" d="M25.767,227.751a.8.8,0,0,1-.8-.719l-.329-3.215a.808.808,0,0,1,.719-.888.755.755,0,0,1,.888.719l.329,3.224a.8.8,0,0,1-.719.888Z" transform="translate(-2.751 -24.935)"/>
      <path id="Path_262" data-name="Path 262" class="cls-2" d="M18.637,228.39a.808.808,0,0,1-.8-.728l-.329-3.215a.817.817,0,0,1,.719-.888.773.773,0,0,1,.888.719l.329,3.224a.8.8,0,0,1-.719.888Z" transform="translate(-1.954 -25.006)"/>
      <path id="Path_263" data-name="Path 263" class="cls-2" d="M22.206,228.091a.817.817,0,0,1-.808-.728l-.329-3.215a.817.817,0,0,1,.719-.888.808.808,0,0,1,.888.719l.329,3.224a.8.8,0,0,1-.719.888Z" transform="translate(-2.352 -24.973)"/>
      <path id="Path_264" data-name="Path 264" class="cls-2" d="M54.98,227.75h-.071a.8.8,0,0,1-.719-.888l.329-3.224a.755.755,0,0,1,.888-.719.808.808,0,0,1,.719.888l-.329,3.224a.8.8,0,0,1-.817.719Z" transform="translate(-6.056 -24.934)"/>
      <path id="Path_265" data-name="Path 265" class="cls-2" d="M62.109,228.39h-.08a.8.8,0,0,1-.719-.888l.329-3.224a.773.773,0,0,1,.888-.719.817.817,0,0,1,.719.888l-.329,3.215A.808.808,0,0,1,62.109,228.39Z" transform="translate(-6.852 -25.006)"/>
      <path id="Path_266" data-name="Path 266" class="cls-2" d="M58.539,228.091h-.08a.8.8,0,0,1-.719-.888l.329-3.224a.8.8,0,0,1,.888-.719.817.817,0,0,1,.719.888l-.329,3.215A.817.817,0,0,1,58.539,228.091Z" transform="translate(-6.453 -24.973)"/>
      <path id="Path_267" data-name="Path 267" class="cls-4" d="M55.326,141.37v72.9l-15.667.337V162.544h-2.6v52.063l-15.667-.337v-72.9Z" transform="translate(-2.388 -15.814)"/>
      <path id="Path_268" data-name="Path 268" class="cls-2" d="M39.6,215.313a.8.8,0,0,1-.568-.231.808.808,0,0,1-.24-.577V163.25H37.766v51.255a.808.808,0,0,1-.24.577.8.8,0,0,1-.568.231h0l-15.667-.338a.8.8,0,0,1-.79-.808v-72.9a.8.8,0,0,1,.8-.808H55.227a.8.8,0,0,1,.8.808v72.9a.8.8,0,0,1-.79.808Zm-17.5-1.927,14.059.3V162.442a.808.808,0,0,1,.8-.808H39.6a.8.8,0,0,1,.8.808v51.246l14.059-.3v-71.31H22.1Z" transform="translate(-2.288 -15.713)"/>
      <line id="Line_75" data-name="Line 75" class="cls-3" x2="4.707" transform="translate(33.621 146.729)"/>
      <path id="Path_269" data-name="Path 269" class="cls-2" d="M42.447,165.916h-4.7a.808.808,0,1,1,0-1.616h4.7a.808.808,0,1,1,0,1.616Z" transform="translate(-4.127 -18.379)"/>
      <rect id="Rectangle_126" data-name="Rectangle 126" class="cls-5" width="8.34" height="6.67" rx="1.86" transform="translate(31.8 125.555)"/>
      <path id="Path_270" data-name="Path 270" class="cls-2" d="M42.386,148.735H37.35a2.451,2.451,0,0,1-2.46-2.469V142.9a2.46,2.46,0,0,1,2.46-2.46h5.036a2.46,2.46,0,0,1,2.46,2.46v3.366a2.451,2.451,0,0,1-2.46,2.469Zm-5.036-6.661a.835.835,0,0,0-.844.844v3.348a.888.888,0,0,0,.844.844h5.036a.888.888,0,0,0,.888-.844V142.9a.835.835,0,0,0-.888-.844Z" transform="translate(-3.898 -15.71)"/>
      <path id="Path_271" data-name="Path 271" class="cls-2" d="M45.7,145.8H40.368a.808.808,0,1,1,0-1.608H45.7a.808.808,0,1,1,0,1.608Z" transform="translate(-4.411 -16.129)"/>
      <path id="Path_272" data-name="Path 272" class="cls-3" d="M71.235,104.091A23.714,23.714,0,0,0,47.583,80.44H24.572A23.714,23.714,0,0,0,1,103.088H1v16.928H1v4.308a7.318,7.318,0,0,0,7.256,7.238h4.7V172.31h15.1l2.815-2.878,1.67-34.185h7.105l1.67,34.185,2.815,2.878h15.1V144.094H71.235Z" transform="translate(-0.107 -8.999)"/>
      <path id="Path_273" data-name="Path 273" class="cls-2" d="M59.088,173.052H43.99a.8.8,0,0,1-.577-.249l-2.807-2.878a.791.791,0,0,1-.231-.524l-1.643-33.421h-5.56L31.529,169.4a.79.79,0,0,1-.231.524L28.492,172.8a.781.781,0,0,1-.577.249h-15.1a.808.808,0,0,1-.808-.808v-39.9H8.144A8.144,8.144,0,0,1,0,124.177v-4.13a.986.986,0,0,1,0-.133V102.986a.835.835,0,0,1,.044-.266A24.4,24.4,0,0,1,24.459,79.53H47.471A24.5,24.5,0,0,1,71.94,103.99v39.967a.808.808,0,0,1-.808.808H59.9v27.444a.808.808,0,0,1-.808.844Zm-14.734-1.625H58.28V143.983a.8.8,0,0,1,.808-.8H70.323V103.99A22.888,22.888,0,0,0,47.471,81.138H24.459a22.79,22.79,0,0,0-22.8,21.9.693.693,0,0,1,0,.2v16.493a.488.488,0,0,1,0,.16V124.2a6.528,6.528,0,0,0,6.519,6.519h4.7a.8.8,0,0,1,.808.8V171.48H27.577l2.362-2.416L31.6,135.182a.8.8,0,0,1,.8-.764H39.5a.8.8,0,0,1,.8.764l1.661,33.883Z" transform="translate(0.005 -8.898)"/>
      <path id="Path_274" data-name="Path 274" class="cls-6" d="M74.774,152.109v1.679a2.522,2.522,0,0,1,.631,1.67v6.022a7.771,7.771,0,0,1-7.736,7.8,1.9,1.9,0,1,1,0-3.8,3.464,3.464,0,0,0,3.455-3.464v-2.771a1.137,1.137,0,0,0-2.274,0h0v2.185a1.91,1.91,0,0,1-3.81,0v-3.357a4.441,4.441,0,0,1,3.224-4.263V152.1" transform="translate(-7.27 -17.015)"/>
      <path id="Path_275" data-name="Path 275" class="cls-2" d="M67.57,169.994a2.709,2.709,0,0,1,0-5.418,2.664,2.664,0,0,0,2.664-2.664v-2.78c0-.364-.657-.364-.657,0v2.2a2.709,2.709,0,1,1-5.418,0v-3.366a5.267,5.267,0,0,1,3.224-4.832v-1.128a.808.808,0,0,1,1.608,0V153.7a.808.808,0,0,1-.586.773,3.633,3.633,0,0,0-2.664,3.482v3.366a1.1,1.1,0,0,0,2.2,0v-2.185a1.945,1.945,0,1,1,3.881,0v2.78a4.272,4.272,0,0,1-4.263,4.263,1.1,1.1,0,0,0,0,2.2,6.981,6.981,0,0,0,6.972-6.972v-6.013a1.776,1.776,0,0,0-.435-1.146.8.8,0,0,1-.2-.533v-1.705a.808.808,0,0,1,1.608,0v1.421a3.3,3.3,0,0,1,.639,1.963v6.013a8.588,8.588,0,0,1-8.571,8.588Z" transform="translate(-7.172 -16.923)"/>
      <path id="Path_276" data-name="Path 276" class="cls-2" d="M15.738,123.458a.808.808,0,0,1-.808-.808V105.029a.808.808,0,0,1,1.608,0v17.656A.8.8,0,0,1,15.738,123.458Z" transform="translate(-1.665 -11.669)"/>
      <path id="Path_277" data-name="Path 277" class="cls-2" d="M71.123,144.782H57.862a.8.8,0,0,1-.8-.808V102.231a.808.808,0,0,1,1.608,0v40.935H70.323V103.99A22.888,22.888,0,0,0,47.471,81.138H24.459A22.879,22.879,0,0,0,1.607,103.99v15.925a.808.808,0,1,1-1.608,0V103.99a24.5,24.5,0,0,1,24.46-24.46H47.471A24.5,24.5,0,0,1,71.94,103.99v39.967a.808.808,0,0,1-.817.826Z" transform="translate(0.005 -8.898)"/>
      <path id="Path_278" data-name="Path 278" class="cls-2" d="M27.084,118.219a8.793,8.793,0,0,1-5.9-2.3.826.826,0,0,1-.266-.6v-8.535a.8.8,0,0,1,.808-.8h10.72a.8.8,0,0,1,.8.8v8.535a.764.764,0,0,1-.266.6A8.722,8.722,0,0,1,27.084,118.219Zm-4.556-3.268a7.265,7.265,0,0,0,9.112,0v-7.363H22.528Z" transform="translate(-2.335 -11.856)"/>
      <rect id="Rectangle_127" data-name="Rectangle 127" class="cls-6" width="18.083" height="17.63" transform="translate(26.933 58.323)"/>
      <path id="Path_279" data-name="Path 279" class="cls-2" d="M48.292,84.006H30.218a.808.808,0,0,1-.808-.808V65.568a.808.808,0,0,1,.808-.808H48.292a.808.808,0,0,1,.808.808V83.2A.808.808,0,0,1,48.292,84.006ZM31.018,82.39H47.493V66.4H31.018Z" transform="translate(-3.285 -7.246)"/>
      <line id="Line_76" data-name="Line 76" class="cls-3" y2="3.997" transform="translate(35.975 106.984)"/>
      <path id="Path_280" data-name="Path 280" class="cls-7" d="M40.4,125.152a.808.808,0,0,1-.808-.808v-4a.808.808,0,1,1,1.608,0v4.032a.8.8,0,0,1-.8.773Z" transform="translate(-4.423 -13.363)"/>
      <path id="Path_281" data-name="Path 281" class="cls-6" d="M64.364,36.76A3.464,3.464,0,0,0,60.9,40.224v3.41a3.464,3.464,0,1,0,6.928,0v-3.41a3.473,3.473,0,0,0-3.464-3.464Z" transform="translate(-6.807 -4.114)"/>
      <path id="Path_282" data-name="Path 282" class="cls-2" d="M64.263,47.829A4.281,4.281,0,0,1,60,43.557v-3.41a4.272,4.272,0,0,1,8.535,0v3.41A4.272,4.272,0,0,1,64.263,47.829Zm0-10.338A2.664,2.664,0,0,0,61.6,40.155v3.4a2.664,2.664,0,1,0,5.329,0v-3.41a2.664,2.664,0,0,0-2.664-2.656Z" transform="translate(-6.707 -4.037)"/>
      <path id="Path_283" data-name="Path 283" class="cls-6" d="M15.474,36.76a3.464,3.464,0,0,0-3.464,3.464v3.41a3.464,3.464,0,1,0,6.928,0v-3.41A3.473,3.473,0,0,0,15.474,36.76Z" transform="translate(-1.339 -4.114)"/>
      <path id="Path_284" data-name="Path 284" class="cls-2" d="M15.372,47.829A4.281,4.281,0,0,1,11.1,43.557v-3.41a4.272,4.272,0,0,1,8.535,0v3.41a4.272,4.272,0,0,1-4.263,4.272Zm0-10.338a2.664,2.664,0,0,0-2.664,2.664v3.4a2.664,2.664,0,1,0,5.329,0v-3.41A2.664,2.664,0,0,0,15.372,37.491Z" transform="translate(-1.237 -4.037)"/>
      <path id="Path_285" data-name="Path 285" class="cls-6" d="M58.315,16.76V47.845c0,10.658-9.956,19.317-20.623,19.317S17.06,58.53,17.06,47.863V16.778Z" transform="translate(-1.904 -1.877)"/>
      <path id="Path_286" data-name="Path 286" class="cls-2" d="M37.59,67.88c-11.422,0-21.44-9.4-21.44-20.117V16.678a.808.808,0,0,1,.808-.808H58.213a.808.808,0,0,1,.808.808V47.763C59.021,58.483,49,67.88,37.59,67.88Zm-19.8-50.411V47.763c0,9.858,9.263,18.509,19.824,18.509S57.44,57.622,57.44,47.763V17.469Z" transform="translate(-1.802 -1.777)"/>
      <path id="Path_287" data-name="Path 287" class="cls-2" d="M39.506,53.741A3.917,3.917,0,0,1,36.077,52.1c-1.217-2.016-.2-5.329,3.091-10.223a.8.8,0,0,1,1.332.888c-3.748,5.542-3.553,7.7-3.046,8.482.613,1.021,2.283.888,2.3.888a.835.835,0,0,1,.888.719.808.808,0,0,1-.711.888Z" transform="translate(-3.975 -4.646)"/>
      <path id="Path_288" data-name="Path 288" class="cls-2" d="M39.593,63.412a9.112,9.112,0,0,1-5.711-1.972.79.79,0,0,1-.115-1.128.8.8,0,0,1,1.128-.124,7.851,7.851,0,0,0,9.406,0,.8.8,0,0,1,1.128.124.79.79,0,0,1-.115,1.128,9.148,9.148,0,0,1-5.72,1.972Z" transform="translate(-3.752 -6.714)"/>
      <path id="Path_289" data-name="Path 289" class="cls-2" d="M26.9,35.73a.8.8,0,0,1-.364-1.519,12.31,12.31,0,0,1,6.217-.95.8.8,0,0,1,.737.888.764.764,0,0,1-.888.746,11.431,11.431,0,0,0-5.329.773A.782.782,0,0,1,26.9,35.73Z" transform="translate(-2.913 -3.715)"/>
      <circle id="Ellipse_50" data-name="Ellipse 50" class="cls-2" cx="1.492" cy="1.492" r="1.492" transform="translate(26.196 33.694)"/>
      <path id="Path_290" data-name="Path 290" class="cls-2" d="M52.892,35.727a.755.755,0,0,1-.355-.089,11.661,11.661,0,0,0-5.329-.773.755.755,0,0,1-.888-.746.8.8,0,0,1,.737-.888,12.372,12.372,0,0,1,6.217.95.79.79,0,0,1,.355,1.075.8.8,0,0,1-.737.471Z" transform="translate(-5.176 -3.712)"/>
      <circle id="Ellipse_51" data-name="Ellipse 51" class="cls-2" cx="1.492" cy="1.492" r="1.492" transform="translate(42.502 33.694)"/>
      <path id="Path_291" data-name="Path 291" class="cls-8" d="M57.811,26.092c-8.224-2.016-8.979-9.183-8.979-9.183s-8.624,13.793-32.1,7.5l-.178-.044V35.995S12,35.187,12,29.494V26.057c0-1.181.044-2.354.151-3.553a29.9,29.9,0,0,1,3.073-11.28C20.588.984,34.8-1.592,44.684,3.151a23.234,23.234,0,0,1,3.855,2.318,13.846,13.846,0,0,0,1.323,1.092,8.366,8.366,0,0,1,9.032,2.46c5.116,5.329,3.464,13.784,3.464,20.472,0,5.693-4.547,6.5-4.547,6.5v-9.9" transform="translate(-1.338 -0.098)"/>
      <path id="Path_292" data-name="Path 292" class="cls-2" d="M16.447,36.708h-.133c-.053,0-5.213-1-5.213-7.292V25.961c0-1.2.053-2.407.151-3.553a30.81,30.81,0,0,1,3.171-11.546C20.1-.1,35.053-2.4,44.93,2.327a23.545,23.545,0,0,1,3.988,2.407,2.513,2.513,0,0,1,.293.249l.7.613a9.1,9.1,0,0,1,9.459,2.771c4.37,4.547,4.041,11.173,3.81,17.061-.062,1.368-.124,2.664-.124,3.97,0,6.288-5.151,7.283-5.2,7.292a.764.764,0,0,1-.657-.169A.8.8,0,0,1,56.9,35.9V26.645a12.265,12.265,0,0,1-8.553-7.993c-2.975,3.357-12.434,11.422-31.085,6.714V35.9a.826.826,0,0,1-.284.622.888.888,0,0,1-.533.187ZM48.731,15.987a.577.577,0,0,1,.178,0,.826.826,0,0,1,.631.7c0,.266.817,6.59,8.366,8.482a.8.8,0,0,1,.6.782v8.775c1.155-.56,2.94-1.972,2.94-5.329,0-1.3.062-2.664.124-4.041.266-5.817.533-11.83-3.366-15.871a7.611,7.611,0,0,0-8.233-2.247c-.5.151-.666,0-1.83-1.048L47.932,6a22.63,22.63,0,0,0-3.695-2.22c-9.21-4.441-23.092-2.318-28.421,7.745a28.865,28.865,0,0,0-2.993,10.978c-.1,1.146-.151,2.3-.151,3.455V29.4c0,3.4,1.776,4.814,2.931,5.329V24.265a.808.808,0,0,1,1.021-.773c22.808,6.1,31.3-6.972,31.378-7.105A.8.8,0,0,1,48.731,15.987Z" transform="translate(-1.237 -0.003)"/>
      <path id="Path_293" data-name="Path 293" class="cls-2" d="M28.52,28.759A46.441,46.441,0,0,1,15.358,26.7a.808.808,0,0,1-.542-1,.79.79,0,0,1,1.048-.542c23.687,7,32.56-6.608,32.64-6.75a.826.826,0,0,1,1.11-.258.8.8,0,0,1,.258,1.11C49.756,19.38,43.663,28.759,28.52,28.759Z" transform="translate(-1.649 -2.019)"/>
      <path id="Path_294" data-name="Path 294" class="cls-2" d="M29.872,22.766c-.977,0-2-.044-3.073-.151a.808.808,0,0,1-.719-.888.782.782,0,0,1,.888-.719c10.365,1.048,15.711-3.6,17.532-5.631a.817.817,0,0,1,1.146-.062.808.808,0,0,1,.062,1.137C43.9,18.458,38.975,22.766,29.872,22.766Z" transform="translate(-2.912 -1.692)"/>
      <path id="Path_295" data-name="Path 295" class="cls-2" d="M54.527,7.655a.764.764,0,0,1-.249,0A.817.817,0,0,1,53.754,6.6a6.27,6.27,0,0,1,2.558-3.064.808.808,0,0,1,1.11.249.8.8,0,0,1-.249,1.11A4.681,4.681,0,0,0,55.29,7.1.8.8,0,0,1,54.527,7.655Z" transform="translate(-6.002 -0.384)"/>
      <circle id="Ellipse_52" data-name="Ellipse 52" class="cls-2" cx="1.421" cy="1.421" r="1.421" transform="translate(44.332 131.302)"/>
      <circle id="Ellipse_53" data-name="Ellipse 53" class="cls-2" cx="1.421" cy="1.421" r="1.421" transform="translate(45.211 139.34)"/>
      <path id="Path_296" data-name="Path 296" class="cls-9" d="M29.39,84.17H49.116L39.257,116.4Z" transform="translate(-3.283 -9.417)"/>
      <path id="Path_297" data-name="Path 297" class="cls-2" d="M39.156,117.107a.808.808,0,0,1-.773-.577L28.516,84.3a.808.808,0,0,1,.124-.711.782.782,0,0,1,.648-.329H49.014a.782.782,0,0,1,.648.329.808.808,0,0,1,.124.711L39.92,116.53a.79.79,0,0,1-.764.577Zm-8.784-32.24,8.784,28.678,8.775-28.678Z" transform="translate(-3.181 -9.315)"/>
      <path id="Path_298" data-name="Path 298" class="cls-2" d="M38.536,91.265H41.2l3.677-7.425c-1.119-.124-3.792-.16-5.009-.16s-3.9,0-5.018.16Z" transform="translate(-3.893 -9.362)"/>
      <path id="Path_299" data-name="Path 299" class="cls-2" d="M41.094,91.962H38.429a.8.8,0,0,1-.719-.444l-3.721-7.425a.79.79,0,0,1,.631-1.155c1.163-.133,3.846-.169,5.107-.169a50.478,50.478,0,0,1,5.1.169.79.79,0,0,1,.631,1.155l-3.677,7.425A.8.8,0,0,1,41.094,91.962Zm-2.176-1.608H40.6l2.922-5.9c-1.181-.053-2.744-.071-3.757-.071s-2.585,0-3.766.071Z" transform="translate(-3.787 -9.26)"/>
      <path id="Path_300" data-name="Path 300" class="cls-2" d="M43.053,107.416l-1.59-15.2H38.79l-1.59,15.2,2.922,9.885Z" transform="translate(-4.156 -10.317)"/>
      <path id="Path_301" data-name="Path 301" class="cls-2" d="M40.032,118.008a.808.808,0,0,1-.773-.577l-2.931-9.885a.888.888,0,0,1,0-.311l1.59-15.205a.808.808,0,0,1,.8-.719h2.664a.808.808,0,0,1,.8.719l1.59,15.205a.737.737,0,0,1,0,.311L40.84,117.43a.8.8,0,0,1-.808.577Zm-2.114-10.764,2.114,7.105,2.1-7.105-1.5-14.326H39.419Z" transform="translate(-4.057 -10.215)"/>
      <path id="Path_302" data-name="Path 302" class="cls-9" d="M46.743,87.884,53.1,81.933,51.158,76.24,41.53,82.857Z" transform="translate(-4.641 -8.53)"/>
      <path id="Path_303" data-name="Path 303" class="cls-2" d="M46.642,88.59a.808.808,0,0,1-.56-.231L40.87,83.332a.835.835,0,0,1-.24-.648.79.79,0,0,1,.346-.6L50.6,75.472a.773.773,0,0,1,.711-.1.782.782,0,0,1,.506.5l1.945,5.7a.808.808,0,0,1-.213.888l-6.377,5.9A.835.835,0,0,1,46.642,88.59Zm-3.908-5.737,3.952,3.819L52.1,81.6l-1.465-4.2Z" transform="translate(-4.54 -8.428)"/>
      <path id="Path_304" data-name="Path 304" class="cls-9" d="M32.789,87.884,26.43,81.933l1.945-5.693L38,82.857Z" transform="translate(-2.952 -8.53)"/>
      <path id="Path_305" data-name="Path 305" class="cls-2" d="M32.69,88.583a.817.817,0,0,1-.524-.231L25.806,82.4a.808.808,0,0,1-.213-.888l1.945-5.7a.8.8,0,0,1,.515-.5.764.764,0,0,1,.7.1l9.628,6.67a.79.79,0,0,1,.346.6.835.835,0,0,1-.24.648l-5.24,5.027A.808.808,0,0,1,32.69,88.583Zm-5.427-6.99,5.418,5.071,3.926-3.819-7.94-5.453Z" transform="translate(-2.852 -8.421)"/>
      <path id="Path_306" data-name="Path 306" class="cls-1" d="M59.231,80.832,52.064,77.91,43.52,105.816,40.5,115.7l3.535-5.125L55.11,94.563l-2.727-4.085,4.734-.08Z" transform="translate(-4.525 -8.717)"/>
      <path id="Path_307" data-name="Path 307" class="cls-2" d="M40.4,116.409a.728.728,0,0,1-.355-.089.8.8,0,0,1-.417-.959L51.171,77.57a.826.826,0,0,1,.426-.488.79.79,0,0,1,.648,0L59.413,80a.79.79,0,0,1,.48.888l-2.087,9.574a.8.8,0,0,1-.773.631l-3.26.062,1.9,2.86a.817.817,0,0,1,0,.888L41.055,116.08A.782.782,0,0,1,40.4,116.409ZM52.477,78.884l-9.77,31.973,11.333-16.4L51.615,90.83a.8.8,0,0,1,.657-1.252l4.094-.071L58.2,81.22Z" transform="translate(-4.424 -8.616)"/>
      <path id="Path_308" data-name="Path 308" class="cls-1" d="M35.112,105.816,26.568,77.91,19.41,80.832l2.1,9.565,4.734.08-2.727,4.085L34.6,110.576l3.544,5.125Z" transform="translate(-2.167 -8.717)"/>
      <path id="Path_309" data-name="Path 309" class="cls-2" d="M38.04,116.41a.817.817,0,0,1-.666-.346L22.755,94.925a.817.817,0,0,1,0-.888l1.9-2.86L21.4,91.115a.8.8,0,0,1-.773-.631L18.518,80.9a.808.808,0,0,1,.48-.888l7.167-2.922a.79.79,0,0,1,.648,0,.8.8,0,0,1,.426.489l11.546,37.791a.8.8,0,0,1-.417.959A.693.693,0,0,1,38.04,116.41ZM24.389,94.455l11.359,16.422-1.51-4.92h0L25.961,78.885l-5.72,2.336,1.83,8.286,4.085.071a.8.8,0,0,1,.657,1.252Z" transform="translate(-2.065 -8.617)"/>
      <rect id="Rectangle_128" data-name="Rectangle 128" class="cls-10" width="22.346" height="32.506" rx="2.46" transform="translate(28.177 93.777)"/>
      <path id="Path_310" data-name="Path 310" class="cls-2" d="M51.77,138.795H33.8a2.993,2.993,0,0,1-2.993-2.984V107.683A2.993,2.993,0,0,1,33.8,104.69H51.77a2.993,2.993,0,0,1,2.993,2.993v28.128A2.993,2.993,0,0,1,51.77,138.795ZM33.8,106.3a1.386,1.386,0,0,0-1.386,1.386v28.128a1.377,1.377,0,0,0,1.386,1.377H51.77a1.377,1.377,0,0,0,1.412-1.377V107.683A1.386,1.386,0,0,0,51.8,106.3Z" transform="translate(-3.442 -11.712)"/>
      <circle id="Ellipse_54" data-name="Ellipse 54" class="cls-2" cx="1.128" cy="1.128" r="1.128" transform="translate(38.222 122.58)"/>
      <circle id="Ellipse_55" data-name="Ellipse 55" class="cls-2" cx="0.382" cy="0.382" r="0.382" transform="translate(38.968 95.358)"/>
      <rect id="Rectangle_129" data-name="Rectangle 129" class="cls-3" width="22.346" height="23.438" transform="translate(28.177 97.703)"/>
      <path id="Path_311" data-name="Path 311" class="cls-2" d="M53.964,134.155H31.609a.808.808,0,0,1-.8-.808V109.9a.8.8,0,0,1,.8-.8H53.964a.8.8,0,0,1,.8.8v23.447a.8.8,0,0,1-.8.808Zm-21.547-1.608H53.182V110.716H32.418Z" transform="translate(-3.442 -12.205)"/>
      <path id="Path_312" data-name="Path 312" class="cls-11" d="M38.775,124a7.283,7.283,0,0,0,3.144-.737v-3.268c0-.6-1.723-1.474-3.144-1.474s-3.135.888-3.135,1.474v3.268A7.247,7.247,0,0,0,38.775,124Z" transform="translate(-3.982 -13.259)"/>
      <path id="Path_313" data-name="Path 313" class="cls-11" d="M38.911,113a2.043,2.043,0,0,0-2.061,1.927v.737a2.061,2.061,0,1,0,4.121,0V115A2.043,2.043,0,0,0,38.911,113Z" transform="translate(-4.117 -12.641)"/>
      <path id="Path_314" data-name="Path 314" class="cls-11" d="M52.417,116.208H46.528a.644.644,0,1,1,0-1.288h5.888a.648.648,0,0,1,.639.648A.639.639,0,0,1,52.417,116.208Z" transform="translate(-5.127 -12.856)"/>
      <path id="Path_315" data-name="Path 315" class="cls-11" d="M52.417,119.837H46.528a.648.648,0,0,1,0-1.3h5.888a.648.648,0,1,1,0,1.3Z" transform="translate(-5.127 -13.261)"/>
      <path id="Path_316" data-name="Path 316" class="cls-11" d="M52.417,123.458H46.528a.644.644,0,1,1,0-1.288h5.888a.639.639,0,0,1,.639.639.648.648,0,0,1-.64.648Z" transform="translate(-5.127 -13.667)"/>
      <path id="Path_317" data-name="Path 317" class="cls-12" d="M51.158,127.078H35.278a.644.644,0,1,1,0-1.288h15.88a.648.648,0,0,1,.639.648A.639.639,0,0,1,51.158,127.078Z" transform="translate(-3.869 -14.072)"/>
      <path id="Path_318" data-name="Path 318" class="cls-12" d="M51.158,130.708H35.278a.644.644,0,1,1,0-1.288h15.88a.639.639,0,0,1,.639.639.648.648,0,0,1-.64.648Z" transform="translate(-3.869 -14.478)"/>
      <path id="Path_319" data-name="Path 319" class="cls-6" d="M35.89,134.826H46a4.37,4.37,0,0,0,2.762.986h7.816a1.776,1.776,0,0,0,1.776-1.723c0-.959-.329-1.732-1.279-1.732h.515a1.776,1.776,0,0,0,0-3.455h-.4a1.776,1.776,0,0,0,1.572-1.883,1.474,1.474,0,0,0-1.572-1.572H55.829a1.865,1.865,0,0,0-1.377-3.117H48.759a4.352,4.352,0,0,0-4.192,3.171H35.89Z" transform="translate(-4.01 -13.685)"/>
      <path id="Path_320" data-name="Path 320" class="cls-2" d="M56.473,136.519H48.658a5.187,5.187,0,0,1-3-.986H35.779a.808.808,0,0,1-.8-.808V125.4a.8.8,0,0,1,.8-.8h8.1a5.178,5.178,0,0,1,4.76-3.18h5.693A2.664,2.664,0,0,1,57,124.084a2.567,2.567,0,0,1,0,.444h.053a2.274,2.274,0,0,1,2.38,2.371,3.029,3.029,0,0,1-.48,1.634,2.576,2.576,0,0,1,.888,1.981,2.522,2.522,0,0,1-1.021,2.1,3.553,3.553,0,0,1,.231,1.35,2.54,2.54,0,0,1-2.576,2.549Zm-19.886-2.593H45.9a.817.817,0,0,1,.506.178,3.553,3.553,0,0,0,2.247.8h7.816a.888.888,0,0,0,.888-.888c0-.888-.311-.888-.471-.888a.808.808,0,1,1,0-1.616h.515a.9.9,0,0,0,0-1.776h-.4a.808.808,0,1,1,0-1.608c.471,0,.764-.56.764-1.084a.675.675,0,0,0-.764-.764H55.727a.808.808,0,0,1-.6-1.35,1.03,1.03,0,0,0,.293-.7,1.075,1.075,0,0,0-1.066-1.075H48.658a3.553,3.553,0,0,0-3.419,2.593.8.8,0,0,1-.773.586H36.588Z" transform="translate(-3.908 -13.583)"/>
      <path id="Path_321" data-name="Path 321" class="cls-6" d="M54.452,126.078a1.874,1.874,0,0,0,0-3.748H48.759a4.352,4.352,0,0,0-4.192,3.171H35.89" transform="translate(-4.01 -13.685)"/>
      <path id="Path_322" data-name="Path 322" class="cls-2" d="M54.36,126.776a.808.808,0,1,1,0-1.608,1.075,1.075,0,0,0,0-2.14H48.667a3.553,3.553,0,0,0-3.419,2.593.8.8,0,0,1-.773.586H35.789a.808.808,0,0,1,0-1.608h8.1a5.178,5.178,0,0,1,4.76-3.18h5.693a2.664,2.664,0,0,1,0,5.329Z" transform="translate(-3.918 -13.583)"/>
      <path id="Path_323" data-name="Path 323" class="cls-6" d="M55.887,129.294h3.091a1.776,1.776,0,0,0,1.572-1.883,1.474,1.474,0,0,0-1.572-1.572H52.29" transform="translate(-5.844 -14.077)"/>
      <path id="Path_324" data-name="Path 324" class="cls-2" d="M58.865,130H55.775a.808.808,0,1,1,0-1.608h3.091c.471,0,.764-.56.764-1.084a.675.675,0,0,0-.764-.764H52.178a.808.808,0,1,1,0-1.608h6.688a2.274,2.274,0,0,1,2.38,2.371A2.54,2.54,0,0,1,58.865,130Z" transform="translate(-5.732 -13.976)"/>
      <path id="Path_325" data-name="Path 325" class="cls-6" d="M56.79,133.185h3.091a1.776,1.776,0,0,0,0-3.455H56.79" transform="translate(-6.347 -14.513)"/>
      <path id="Path_326" data-name="Path 326" class="cls-2" d="M59.768,133.9H56.678a.808.808,0,0,1,0-1.616h3.091a.9.9,0,0,0,0-1.776H56.678a.808.808,0,1,1,0-1.608h3.091a2.54,2.54,0,0,1,0,5.062Z" transform="translate(-6.235 -14.419)"/>
      <path id="Path_327" data-name="Path 327" class="cls-6" d="M53.937,133.62h3.091c.95,0,1.279.773,1.279,1.732a1.776,1.776,0,0,1-1.776,1.723H48.715a4.37,4.37,0,0,1-2.762-.986H35.89" transform="translate(-4.01 -14.948)"/>
      <path id="Path_328" data-name="Path 328" class="cls-2" d="M56.483,137.789H48.667a5.134,5.134,0,0,1-3-.995H35.789a.808.808,0,0,1,0-1.608H45.914a.826.826,0,0,1,.506.187,3.553,3.553,0,0,0,2.247.8h7.816a.888.888,0,0,0,.888-.888c0-.888-.311-.888-.471-.888H53.845a.808.808,0,1,1,0-1.616h3.091c.488,0,2.078.186,2.078,2.54a2.54,2.54,0,0,1-2.531,2.469Z" transform="translate(-3.918 -14.854)"/>
      <path id="Path_329" data-name="Path 329" class="cls-3" d="M.93,105.848V127.04a7.318,7.318,0,0,0,7.318,7.283H39.014V122.235H14.19V105.12" transform="translate(-0.1 -11.76)"/>
      <path id="Path_330" data-name="Path 330" class="cls-2" d="M38.909,135.119H8.144A8.144,8.144,0,0,1,0,126.948V105.757a.808.808,0,1,1,1.608,0v21.191a6.528,6.528,0,0,0,6.519,6.519H38.1V122.952H14.121a.808.808,0,0,1-.808-.808V105.029a.808.808,0,0,1,1.608,0v16.315H38.909a.8.8,0,0,1,.808.8v12.088a.808.808,0,0,1-.808.888Z" transform="translate(0.005 -11.669)"/>
    </g>
  </g>
</svg>
