<svg class="sd-svg sd-svg--person-woman" width="64" height="212" xmlns="http://www.w3.org/2000/svg" viewBox="1171.197 -2973.031 64.063 211.853">
  <defs>
    <style>
      .sd-svg--person-woman .cls-1 {
        fill: #3e322e;
      }

      .sd-svg--person-woman .cls-2 {
        fill: #1f2740;
      }

      .sd-svg--person-woman .cls-3 {
        fill: #bf9c84;
      }

      .sd-svg--person-woman .cls-4 {
        fill: #eef1f6;
      }

      .sd-svg--person-woman .cls-5 {
        fill: #d8d2ce;
      }

      .sd-svg--person-woman .cls-6, .cls-9 {
        fill: #fff;
      }

      .sd-svg--person-woman .cls-7, .cls-8 {
        fill: #0072ff;
      }

      .sd-svg--person-woman .cls-8, .cls-9 {
        fill-rule: evenodd;
      }

      .sd-svg--person-woman .cls-10 {
        fill: #c1c0bf;
      }
    </style>
  </defs>
  <g id="Asset_3" data-name="Asset 3" transform="translate(-814.987 1886)">
    <g id="Layer_1" data-name="Layer 1" transform="translate(1986.184 -4859.031)">
      <path id="Path_331" data-name="Path 331" class="cls-1" d="M55.077,79.044c6.057-4.309,6.824-10.292,4.512-17.023a9.922,9.922,0,0,1,.435-7.693c1.544-3.079,3.088-5.807,2.774-9.4a16.3,16.3,0,0,0-3.615-8.479,13.426,13.426,0,0,1-2.672-6.362,10.828,10.828,0,0,1,.98-5.224c2.1-5.187.342-11.854-3.532-15.655-2.589-2.58-6.935-3.116-10.393-3.07a19.316,19.316,0,0,1-10.68-3.172c-3.357-2.238-7.813-3.135-11.1-.194-1.11,1-1.914,2.358-3.19,3.135s-2.774.638-4.087,1.091a12.89,12.89,0,0,0-3.7,2.127A13.7,13.7,0,0,0,6.3,16.037a16.348,16.348,0,0,0-.518,7.61c.527,2.487,1.849,4.623,1.563,7.3C7.1,33.051,5.847,34.484,4.8,36.2a28.443,28.443,0,0,0-2.2,4.29C1.15,44.128.8,48.243,2.731,51.757c.9,1.646,2.145,2.866,2.626,4.716.657,2.589-.629,5.409-1.553,7.739a13.364,13.364,0,0,0-.176,7.138A11.78,11.78,0,0,0,9.056,78.9s7.989,5.548,20.731,2.034a33.085,33.085,0,0,1,8.322-1.442c3.005,0,5.419,1.637,8.322,2.21C49.057,82.225,52.312,81.013,55.077,79.044Z" transform="translate(-0.077 -0.067)"/>
      <path id="Path_332" data-name="Path 332" class="cls-2" d="M21.388,82.859c-7.9,0-12.612-3.162-12.871-3.338a12.594,12.594,0,0,1-5.77-8.054,14.185,14.185,0,0,1,.222-7.629l.194-.49c.869-2.145,1.849-4.623,1.313-6.713a8.923,8.923,0,0,0-1.507-2.894A18.362,18.362,0,0,1,1.933,52.1C.084,48.721.019,44.476,1.748,40.075A29.034,29.034,0,0,1,4,35.655c.231-.37.472-.73.7-1.091a8.59,8.59,0,0,0,1.729-3.828,10.43,10.43,0,0,0-.8-4.494,20.732,20.732,0,0,1-.74-2.534,16.921,16.921,0,0,1,.527-7.989,14.471,14.471,0,0,1,4.79-7.314A13.75,13.75,0,0,1,14.157,6.14a10.365,10.365,0,0,1,1.849-.425,6,6,0,0,0,2.062-.592,8.525,8.525,0,0,0,1.849-1.711A14.369,14.369,0,0,1,21.185,2.08c3.763-3.366,8.729-2.145,12.113.111A18.1,18.1,0,0,0,43.5,5.224h.4c4.836,0,8.424,1.11,10.661,3.31,4.253,4.17,5.853,11.29,3.7,16.57a10.107,10.107,0,0,0-.925,4.808,12.52,12.52,0,0,0,2.478,5.964A17.3,17.3,0,0,1,63.59,44.8c.25,3.578-1.091,6.315-2.524,9.2l-.324.657a9.117,9.117,0,0,0-.388,7.037c2.626,7.749,1.008,13.8-4.836,17.966h0c-3.246,2.312-6.639,3.32-9.247,2.774a22.9,22.9,0,0,1-3.449-1.063,13.056,13.056,0,0,0-4.679-1.137H38.1a32.077,32.077,0,0,0-8.146,1.415,32.438,32.438,0,0,1-8.562,1.211ZM26.64,1.683a6.352,6.352,0,0,0-4.355,1.646,12.539,12.539,0,0,0-1.128,1.193,9.709,9.709,0,0,1-2.21,2.034,7.111,7.111,0,0,1-2.654.841,9.247,9.247,0,0,0-1.563.361,11.8,11.8,0,0,0-3.458,1.979,12.788,12.788,0,0,0-4.244,6.473,15.368,15.368,0,0,0-.518,7.2,21.582,21.582,0,0,0,.684,2.349,11.734,11.734,0,0,1,.925,5.206,10.088,10.088,0,0,1-2,4.568c-.222.342-.453.684-.666,1.045A27.047,27.047,0,0,0,3.32,40.741c-1.544,3.874-1.507,7.628.092,10.55.3.536.638,1.017.925,1.5A10.8,10.8,0,0,1,6.1,56.22c.675,2.663-.462,5.493-1.387,7.758l-.194.481a12.78,12.78,0,0,0-.139,6.648,10.967,10.967,0,0,0,5.049,7.009c.111.065,7.878,5.252,20.084,1.942A33.011,33.011,0,0,1,38.087,78.6h.055a14.794,14.794,0,0,1,5.271,1.239,19.688,19.688,0,0,0,3.125.98c2.182.435,5.15-.5,7.98-2.506,5.261-3.745,6.639-9,4.207-16.061a10.846,10.846,0,0,1,.481-8.322l.333-.657c1.405-2.774,2.626-5.2,2.367-8.322a15.516,15.516,0,0,0-3.44-8.035,14.166,14.166,0,0,1-2.774-6.8,11.762,11.762,0,0,1,1.036-5.64c1.9-4.679.462-11.022-3.338-14.748-1.942-1.9-5.4-2.839-9.866-2.774h-.24A20.222,20.222,0,0,1,32.4,3.6,10.7,10.7,0,0,0,26.64,1.683Zm28.369,77.3Z" transform="translate(-0.009 0.001)"/>
      <path id="Path_333" data-name="Path 333" class="cls-3" d="M58.3,222.888s-4.845-4.346-21.887-5.788v9.395L58.3,225.33Z" transform="translate(-2.714 -16.354)"/>
      <path id="Path_334" data-name="Path 334" class="cls-2" d="M35.5,227.3V216.11l.925.074c17.125,1.461,22.192,5.825,22.377,6.01l.277.25v3.643Zm1.674-9.358v7.6L57.387,224.5V223.23C56.166,222.389,50.757,219.208,37.174,217.941Z" transform="translate(-2.646 -16.279)"/>
      <path id="Path_335" data-name="Path 335" class="cls-4" d="M58.463,227.6H36.41v-7.4s4.466,5.446,19.3,1.7C55.708,221.864,63.04,222.845,58.463,227.6Z" transform="translate(-2.714 -16.587)"/>
      <path id="Path_336" data-name="Path 336" class="cls-2" d="M58.395,228.371H36.341a.841.841,0,0,1-.841-.841v-7.4a.841.841,0,0,1,1.489-.527s4.438,4.947,18.438,1.415a1.221,1.221,0,0,1,.314,0c.416.055,4.041.592,4.845,2.866.444,1.276-.092,2.709-1.59,4.263a.814.814,0,0,1-.6.222ZM37.174,226.7H58.025c.629-.7,1.221-1.6.98-2.284-.37-1.054-2.441-1.59-3.329-1.738-10.643,2.645-16.135.647-18.493-.823Z" transform="translate(-2.646 -16.52)"/>
      <path id="Path_337" data-name="Path 337" class="cls-3" d="M9.17,222.888s4.845-4.346,21.887-5.788v9.395L9.17,225.33Z" transform="translate(-0.662 -16.354)"/>
      <path id="Path_338" data-name="Path 338" class="cls-2" d="M31.83,227.3,8.26,226.09v-3.606l.277-.25c.213-.185,5.252-4.549,22.377-6.01l.925-.074Zm-21.9-2.774,20.222,1.045v-7.6c-13.62,1.267-19,4.448-20.222,5.289Z" transform="translate(-0.594 -16.282)"/>
      <path id="Path_339" data-name="Path 339" class="cls-4" d="M8.876,227.6H30.92v-7.4s-4.475,5.428-19.27,1.664C11.65,221.864,4.253,222.845,8.876,227.6Z" transform="translate(-0.526 -16.587)"/>
      <path id="Path_340" data-name="Path 340" class="cls-2" d="M30.853,228.367H8.809a.851.851,0,0,1-.61-.259c-1.489-1.553-2.025-2.987-1.581-4.263.8-2.275,4.429-2.774,4.845-2.866a1.156,1.156,0,0,1,.305,0c14.009,3.532,18.41-1.378,18.493-1.424a.814.814,0,0,1,.925-.25.841.841,0,0,1,.555.786v7.4a.841.841,0,0,1-.888.878ZM9.161,226.694h20.86v-4.854c-2.376,1.479-7.869,3.477-18.493.832-.925.148-2.959.684-3.329,1.738C7.949,225.094,8.532,225.991,9.161,226.694Z" transform="translate(-0.459 -16.516)"/>
      <path id="Path_341" data-name="Path 341" class="cls-5" d="M50.037,139.05s1.6,7.471-.361,25.114c-1.849,16.783-1.849,26.113-1.674,47.574l-13.149.925s.361-41.175-.435-54.084H31.987c-.8,12.945-.435,54.084-.435,54.084L18.4,211.738c.166-21.461.185-30.791-1.674-47.574-1.96-17.643-.37-25.114-.37-25.114Z" transform="translate(-1.158 -10.474)"/>
      <path id="Path_342" data-name="Path 342" class="cls-2" d="M34.785,213.386a.86.86,0,0,1-.583-.231.841.841,0,0,1-.259-.61c0-.407.342-39.705-.388-53.251h-.841c-.73,13.546-.4,52.845-.388,53.251a.814.814,0,0,1-.268.61.721.721,0,0,1-.629.231l-13.149-.925a.841.841,0,0,1-.786-.841c.166-20.823.24-30.32-1.664-47.472-1.96-17.569-.425-25.077-.351-25.382a.841.841,0,0,1,.814-.666H49.968a.841.841,0,0,1,.823.666c.065.305,1.6,7.8-.351,25.382C48.59,180.5,48.59,189.114,48.766,211.62a.823.823,0,0,1-.777.841l-13.149.925ZM19.176,210.88l11.466.767c-.046-6.112-.287-41.518.435-53.242a.841.841,0,0,1,.841-.786H34.35a.832.832,0,0,1,.832.786c.73,11.725.49,47.158.444,53.242l11.457-.767c-.157-21.064-.129-30.468,1.692-46.881,1.6-14.388.8-22.007.481-24.189H17c-.314,2.182-1.11,9.8.49,24.189C19.389,181.023,19.334,190.538,19.176,210.88Z" transform="translate(-1.089 -10.403)"/>
      <line id="Line_77" data-name="Line 77" class="cls-6" x2="4.651" transform="translate(29.72 148.059)"/>
      <path id="Path_343" data-name="Path 343" class="cls-2" d="M36.692,160.863H32.069a.841.841,0,0,1,0-1.674h4.623a.841.841,0,1,1,0,1.674Z" transform="translate(-2.331 -11.991)"/>
      <path id="Path_344" data-name="Path 344" class="cls-3" d="M3.839,106.15,1.989,147.436a2.284,2.284,0,0,0-.684,1.452L.9,154.242a6.935,6.935,0,0,0,6.38,7.453,1.7,1.7,0,0,0,.268-3.394,3.07,3.07,0,0,1-2.811-3.283l.185-2.469a1.017,1.017,0,0,1,2.025.148h0L6.8,154.64a1.7,1.7,0,0,0,3.384.259l.157-2.053.074-.925a3.958,3.958,0,0,0-2.58-4.013l3.81-41.138" transform="translate(-0.038 -7.996)"/>
      <path id="Path_345" data-name="Path 345" class="cls-2" d="M7.4,162.536H7.176a7.786,7.786,0,0,1-7.148-8.322l.407-5.354a3.042,3.042,0,0,1,.694-1.729L2.978,106.15l1.674.074L2.8,147.834l-.24.231a1.461,1.461,0,0,0-.425.925l-.416,5.354a6.094,6.094,0,0,0,5.613,6.547.925.925,0,0,0,.629-.2.832.832,0,0,0,.3-.592.851.851,0,0,0-.786-.925,3.93,3.93,0,0,1-3.615-4.216l.194-2.478a1.85,1.85,0,1,1,3.689.287l-.148,1.96a.86.86,0,0,0,.2.629.851.851,0,0,0,1.211.083.841.841,0,0,0,.305-.583l.231-2.987A3.135,3.135,0,0,0,7.509,148.7l-.61-.222L10.764,106.7l1.674.157L8.655,147.372a4.79,4.79,0,0,1,2.524,4.623l-.231,3a2.515,2.515,0,0,1-.869,1.729,2.441,2.441,0,0,1-1.849.6A2.534,2.534,0,0,1,5.891,154.6l.148-1.942a.185.185,0,0,0-.157-.2c-.139.046-.185.074-.194.166l-.139,2.395a2.238,2.238,0,0,0,2.071,2.413,2.557,2.557,0,0,1-.222,5.1Z" transform="translate(0.028 -7.996)"/>
      <path id="Path_346" data-name="Path 346" class="cls-3" d="M65.046,106.4l1.424,41.148A2.339,2.339,0,0,1,67.135,149l.351,5.345a6.907,6.907,0,0,1-6.426,7.4,1.7,1.7,0,1,1-.231-3.384,3.079,3.079,0,0,0,2.866-3.273l-.2-2.5a1.026,1.026,0,0,0-1.082-.925,1,1,0,0,0-.925,1.082h0l.157,1.923a1.7,1.7,0,0,1-3.384.231l-.139-2.053-.055-.925a3.921,3.921,0,0,1,2.6-3.976l-3.4-40.99" transform="translate(-4.285 -8.014)"/>
      <path id="Path_347" data-name="Path 347" class="cls-2" d="M60.872,162.541a2.534,2.534,0,0,1-2.515-2.367,2.469,2.469,0,0,1,.61-1.849,2.524,2.524,0,0,1,1.738-.86,2.238,2.238,0,0,0,2.08-2.386l-.166-2.46c0-.092-.148-.157-.176-.157h0l-.166.2.129,1.849a2.524,2.524,0,0,1-2.358,2.691,2.386,2.386,0,0,1-1.849-.61,2.524,2.524,0,0,1-.86-1.738l-.2-2.977a4.808,4.808,0,0,1,2.589-4.466L56.36,106.95l1.664-.139,3.458,41.749-.6.213a3.125,3.125,0,0,0-2.081,3.088l.2,2.977a.823.823,0,0,0,.287.583,1.045,1.045,0,0,0,.62.213.86.86,0,0,0,.8-.925l-.055-1.923a1.849,1.849,0,0,1,.453-1.35,1.785,1.785,0,0,1,1.267-.629,1.849,1.849,0,0,1,1.97,1.72l.166,2.46a3.921,3.921,0,0,1-3.643,4.17.841.841,0,0,0-.583.287.925.925,0,0,0-.213.62.869.869,0,0,0,.3.592.98.98,0,0,0,.62.2,6.075,6.075,0,0,0,5.65-6.473L66.2,149.05a1.378,1.378,0,0,0-.416-.925l-.24-.231v-.333L64.118,106.4l1.674-.065,1.415,40.852a3.107,3.107,0,0,1,.675,1.729l.361,5.345a7.758,7.758,0,0,1-7.212,8.248Z" transform="translate(-4.217 -8.01)"/>
      <path id="Path_348" data-name="Path 348" class="cls-7" d="M60.912,103.974c-.416-5.946-.3-12.159-3.634-17.356A20.62,20.62,0,0,0,44.147,78c0,.25-1.119,8.6-12.067,11.207C21.142,86.6,20.06,78.25,20.06,78A20.639,20.639,0,0,0,6.883,86.618c-3.329,5.2-3.209,11.41-3.625,17.356C2.436,115.652.993,142.089.91,143.346H9.232s3.357-28.443,4.91-41.3H50c1.544,12.853,4.91,41.3,4.91,41.3h8.322C63.2,142.089,61.735,115.652,60.912,103.974Z" transform="translate(-0.04 -5.875)"/>
      <path id="Path_349" data-name="Path 349" class="cls-2" d="M63.189,144.107H54.867a.841.841,0,0,1-.832-.74s-3.236-27.379-4.818-40.547H14.792c-1.581,13.167-4.827,40.547-4.827,40.547a.832.832,0,0,1-.832.74H.811a.841.841,0,0,1-.61-.259.869.869,0,0,1-.231-.629c0-.268,1.516-27.546,2.358-39.382.055-.8.1-1.609.148-2.423.3-5.234.61-10.643,3.606-15.322a21.406,21.406,0,0,1,13.667-9.016.925.925,0,0,1,.666.139.869.869,0,0,1,.342.583c0,.324,1.054,7.924,11.235,10.449,10.07-2.5,11.188-10.171,11.225-10.458a.841.841,0,0,1,.351-.573.8.8,0,0,1,.657-.139,21.378,21.378,0,0,1,13.657,9.016c3.005,4.623,3.32,10.079,3.615,15.312.055.814.092,1.627.148,2.432h0c.342,4.808,1.017,15.349,2.293,38.309L64,143.22a.841.841,0,0,1-.841.925Zm-7.573-1.674H62.3v-.194c-1.276-22.941-1.951-33.482-2.284-38.281h0c-.055-.814-.1-1.637-.157-2.45-.287-5.021-.583-10.171-3.347-14.517a19.584,19.584,0,0,0-11.78-8.082c-.638,2.386-3.125,8.775-12.529,11.041a.666.666,0,0,1-.379,0C22.365,87.7,19.906,81.332,19.3,78.937a19.584,19.584,0,0,0-11.78,8.054C4.741,91.309,4.464,96.5,4.168,101.517c0,.814-.092,1.627-.148,2.441-.749,10.615-2.034,33.676-2.293,38.475H8.412c.536-4.549,3.421-28.924,4.827-40.556a.841.841,0,0,1,.832-.73H49.93a.832.832,0,0,1,.832.73c1.424,11.632,4.318,36.007,4.854,40.556Z" transform="translate(0.031 -5.804)"/>
      <path id="Path_350" data-name="Path 350" class="cls-3" d="M41.016,76.472,39.9,64.84H27.387L26.268,76.472a21.729,21.729,0,0,0-4.688.509c0,.25,1.119,8.6,12.021,11.207C44.549,85.58,45.621,77.231,45.668,76.981A21.729,21.729,0,0,0,41.016,76.472Z" transform="translate(-1.597 -4.884)"/>
      <path id="Path_351" data-name="Path 351" class="cls-2" d="M33.572,88.961h-.194C21.893,86.187,20.719,77.384,20.672,77l-.092-.758.749-.157a23.114,23.114,0,0,1,4.106-.509L26.516,63.93H40.59L41.7,75.581a23.263,23.263,0,0,1,4.106.509l.758.166-.1.767c0,.37-1.341,9.247-12.7,11.91Zm-11.1-11.41c.518,2.044,2.663,7.61,11.1,9.69,8.322-2.062,10.523-7.628,11.1-9.69a17.725,17.725,0,0,0-3.7-.324H40.2l-1.11-11.651H28.07L26.96,77.227h-.767a21.869,21.869,0,0,0-3.708.342Z" transform="translate(-1.522 -4.815)"/>
      <path id="Path_352" data-name="Path 352" class="cls-8" d="M50.3,97.16c1.655,4.318.841,9.533.314,14.018-.287,2.5-.925,4.9-.989,7.4-.1,5.012.8,9.94,1.147,14.924.166,2.386.3,4.781.314,7.166-.869.157-17.939,0-17.939,0s-17.06.157-17.939,0c0-2.386.157-4.781.314-7.166.351-4.984,1.258-9.912,1.156-14.924-.055-2.524-.7-4.928-.989-7.4-.527-4.485-1.341-9.7.314-14.018" transform="translate(-1.103 -7.318)"/>
      <path id="Path_353" data-name="Path 353" class="cls-2" d="M20.476,141.53c-2.876,0-5.169,0-5.548-.083a.841.841,0,0,1-.694-.841c0-2.108.12-4.411.314-7.212.129-1.849.324-3.6.518-5.382a73.354,73.354,0,0,0,.629-9.469,30.513,30.513,0,0,0-.546-4.512c-.166-.925-.324-1.849-.435-2.829l-.129-1.063c-.518-4.309-1.1-9.182.49-13.361a.841.841,0,0,1,1.563.6c-1.442,3.791-.925,8.442-.388,12.557L16.379,111c.1.925.259,1.849.416,2.774a31.771,31.771,0,0,1,.573,4.762,72.659,72.659,0,0,1-.592,9.654c-.194,1.766-.388,3.541-.509,5.326-.166,2.413-.268,4.448-.3,6.315,2.552.046,11.179,0,17.079,0s14.5.1,17.1,0c0-1.849-.139-3.819-.305-6.306-.12-1.794-.314-3.569-.518-5.335a74.2,74.2,0,0,1-.629-9.672,30.615,30.615,0,0,1,.573-4.762c.157-.925.314-1.849.416-2.774l.139-1.1c.49-4.1,1.045-8.738-.4-12.52a.841.841,0,1,1,1.563-.583c1.59,4.17,1.008,9.034.49,13.324l-.129,1.1c-.111.925-.268,1.849-.435,2.774a30.607,30.607,0,0,0-.546,4.522,73.059,73.059,0,0,0,.62,9.5c.194,1.791.388,3.585.517,5.4.194,2.894.3,5.123.314,7.222a.841.841,0,0,1-.694.832c-.869.157-14.064.046-18.086,0C30.647,141.475,24.886,141.53,20.476,141.53Z" transform="translate(-1.029 -7.24)"/>
      <path id="Path_354" data-name="Path 354" class="cls-6" d="M27.087,103.336,20.023,78a20.639,20.639,0,0,0-13.14,8.618c-3.329,5.2-3.209,11.41-3.625,17.356C2.436,115.652.993,142.089.91,143.346H9.232s3.357-28.443,4.91-41.3Z" transform="translate(-0.04 -5.875)"/>
      <path id="Path_355" data-name="Path 355" class="cls-2" d="M9.153,144.107H.831a.841.841,0,0,1-.61-.259.869.869,0,0,1-.231-.629c0-.268,1.516-27.546,2.358-39.382.055-.8.1-1.609.148-2.423.3-5.234.61-10.643,3.606-15.322a21.406,21.406,0,0,1,13.667-9.015.832.832,0,0,1,.98.592l7.064,25.364a.823.823,0,0,1-.166.767.832.832,0,0,1-.721.3l-12.132-1.2c-1.59,13.195-4.818,40.473-4.818,40.473a.832.832,0,0,1-.823.74Zm-7.4-1.674H8.414c.536-4.549,3.421-28.924,4.827-40.556a.86.86,0,0,1,.925-.73L25.89,102.3l-6.528-23.45A19.658,19.658,0,0,0,7.517,86.991C4.743,91.309,4.465,96.5,4.169,101.517c0,.814-.092,1.627-.148,2.441-.749,10.615-2.034,33.676-2.293,38.475Z" transform="translate(0.029 -5.804)"/>
      <path id="Path_356" data-name="Path 356" class="cls-9" d="M15.944,97.16c-1.655,4.318-.841,9.533-.314,14.018.287,2.5.925,4.9.989,7.4a61.027,61.027,0,0,1-.4,7.4,2.253,2.253,0,0,1-.055.564c-.25,2.33-.536,4.623-.7,7a9.057,9.057,0,0,1-.046,1.119c-.712,8.738-1.535,21.989-.925,31.624l11.817,2.95,1.849-64.44" transform="translate(-1.047 -7.318)"/>
      <path id="Path_357" data-name="Path 357" class="cls-2" d="M26.212,170a.8.8,0,0,1-.2,0l-11.817-2.95a.86.86,0,0,1-.638-.767c-.573-9.543.2-22.525.925-31.734v-1.11c.129-1.849.324-3.7.527-5.483l.231-2.117a58.763,58.763,0,0,0,.388-7.249,30.513,30.513,0,0,0-.546-4.512c-.166-.925-.324-1.849-.435-2.829l-.129-1.063c-.518-4.309-1.1-9.182.49-13.361a.841.841,0,0,1,1.563.6c-1.442,3.791-.925,8.442-.388,12.557l.129,1.063c.1.925.259,1.849.416,2.774a31.771,31.771,0,0,1,.573,4.762,60.008,60.008,0,0,1-.4,7.462l-.176,2.071c-.194,1.849-.4,3.6-.518,5.409v1.119c-.74,8.969-1.5,21.517-.989,30.9L25.39,168.1l1.775-63.4a.841.841,0,1,1,1.683,0L27,169.131a.851.851,0,0,1-.333.647A.841.841,0,0,1,26.212,170Z" transform="translate(-0.978 -7.258)"/>
      <path id="Path_358" data-name="Path 358" class="cls-4" d="M28.286,103.216,26.806,96.2,22.636,76.41l-5.354,1.47-.462,6.861,3.394.407-2.247,2.6Z" transform="translate(-1.239 -5.755)"/>
      <path id="Path_359" data-name="Path 359" class="cls-2" d="M28.215,103.977a.832.832,0,0,1-.694-.37L17.2,88.137a.823.823,0,0,1,.065-1.008l1.211-1.415L16.629,85.5a.841.841,0,0,1-.74-.925l.462-6.861a.841.841,0,0,1,.62-.749l5.354-1.479a.925.925,0,0,1,.666.092.832.832,0,0,1,.379.546l5.65,26.815a.841.841,0,0,1-.5.925A.777.777,0,0,1,28.215,103.977ZM18.969,87.74,26.5,99.076,21.937,77.384l-3.93,1.082-.37,5.465,2.608.351a.86.86,0,0,1,.684.527.841.841,0,0,1-.148.851Z" transform="translate(-1.168 -5.684)"/>
      <path id="Path_360" data-name="Path 360" class="cls-6" d="M40,103.336,47.092,78a20.62,20.62,0,0,1,13.13,8.646c3.338,5.2,3.218,11.41,3.634,17.356.823,11.679,2.284,38.115,2.349,39.372H57.883s-3.366-28.47-4.938-41.333Z" transform="translate(-2.985 -5.875)"/>
      <path id="Path_361" data-name="Path 361" class="cls-2" d="M66.139,144.108H57.817a.841.841,0,0,1-.832-.74S53.8,116.09,52.176,102.9l-12.132,1.2a.841.841,0,0,1-.73-.3.851.851,0,0,1-.166-.767L46.221,77.67a.841.841,0,0,1,.98-.592,21.378,21.378,0,0,1,13.657,9.015c3.005,4.623,3.32,10.079,3.615,15.312.055.814.092,1.627.148,2.432.342,4.808,1.017,15.349,2.293,38.309l.065,1.073a.869.869,0,0,1-.231.629.842.842,0,0,1-.61.259Zm-7.573-1.674h6.685v-.194c-1.276-22.941-1.951-33.482-2.284-38.281-.055-.814-.1-1.637-.157-2.45-.287-5.021-.583-10.171-3.347-14.517a19.64,19.64,0,0,0-11.845-8.137l-6.528,23.413,11.734-1.156a.851.851,0,0,1,.925.73c1.387,11.669,4.281,36.043,4.818,40.593Z" transform="translate(-2.918 -5.804)"/>
      <path id="Path_362" data-name="Path 362" class="cls-9" d="M52.178,97.16c1.655,4.318.841,9.533.314,14.018-.287,2.5-.925,4.9-.989,7.4a61.029,61.029,0,0,0,.4,7.4,2.254,2.254,0,0,0,.055.564c.25,2.33.536,4.623.693,7a7.559,7.559,0,0,0,.055,1.119c.712,8.738,1.535,21.989.925,31.624l-11.78,2.94L40,104.779" transform="translate(-2.985 -7.318)"/>
      <path id="Path_363" data-name="Path 363" class="cls-2" d="M41.782,169.973a.814.814,0,0,1-.5-.166.851.851,0,0,1-.333-.647L39.1,104.72a.841.841,0,0,1,.814-.86h0a.832.832,0,0,1,.832.814l1.785,63.4L52.7,165.526c.509-9.367-.25-21.915-.989-30.884v-1.128c-.12-1.849-.324-3.615-.527-5.419l-.157-2.127a60.659,60.659,0,0,1-.4-7.471,30.614,30.614,0,0,1,.573-4.762c.157-.925.314-1.849.416-2.774l.139-1.1c.49-4.1,1.045-8.738-.4-12.52a.841.841,0,1,1,1.516-.573c1.59,4.17,1.008,9.034.49,13.324l-.129,1.1c-.111.925-.268,1.849-.435,2.774a30.606,30.606,0,0,0-.546,4.522,59.32,59.32,0,0,0,.388,7.259l.231,2.154c.194,1.849.4,3.652.527,5.483v1.128c.758,9.2,1.535,22.192.925,31.725a.86.86,0,0,1-.638.758l-11.725,2.977A.721.721,0,0,1,41.782,169.973Zm11.826-3.782Z" transform="translate(-2.917 -7.231)"/>
      <path id="Path_364" data-name="Path 364" class="cls-4" d="M40.03,103.216,41.509,96.2,45.67,76.41l5.363,1.47.462,6.861-3.394.407,2.247,2.6Z" transform="translate(-2.987 -5.755)"/>
      <path id="Path_365" data-name="Path 365" class="cls-2" d="M39.932,103.981a.777.777,0,0,1-.324-.065.841.841,0,0,1-.5-.925l5.65-26.815a.814.814,0,0,1,.388-.546.925.925,0,0,1,.657-.092l5.354,1.479a.832.832,0,0,1,.61.749l.462,6.861a.832.832,0,0,1-.73.925l-1.849.213,1.221,1.415a.832.832,0,0,1,.065,1.008L40.653,103.611A.832.832,0,0,1,39.932,103.981ZM46.21,77.387,41.679,99.08l7.545-11.318-1.849-2.117a.832.832,0,0,1,.555-1.359l2.608-.314-.37-5.465Z" transform="translate(-2.917 -5.688)"/>
      <circle id="Ellipse_56" data-name="Ellipse 56" class="cls-2" cx="1.045" cy="1.045" r="1.045" transform="translate(20.048 136.278)"/>
      <circle id="Ellipse_57" data-name="Ellipse 57" class="cls-2" cx="1.045" cy="1.045" r="1.045" transform="translate(20.269 128.52)"/>
      <circle id="Ellipse_58" data-name="Ellipse 58" class="cls-2" cx="1.045" cy="1.045" r="1.045" transform="translate(20.491 120.762)"/>
      <path id="Path_366" data-name="Path 366" class="cls-3" d="M11.553,38A3.7,3.7,0,0,0,7.91,41.7v3.588a3.643,3.643,0,0,0,7.286,0V41.7A3.643,3.643,0,0,0,11.553,38Z" transform="translate(-0.567 -2.862)"/>
      <path id="Path_367" data-name="Path 367" class="cls-2" d="M11.485,49.714A4.485,4.485,0,0,1,7,45.23V41.651a4.485,4.485,0,0,1,8.96,0v3.6A4.494,4.494,0,0,1,11.485,49.714Zm0-10.883A2.774,2.774,0,0,0,8.711,41.6v3.6a2.806,2.806,0,1,0,5.613,0V41.651a2.774,2.774,0,0,0-2.839-2.774Z" transform="translate(-0.499 -2.814)"/>
      <circle id="Ellipse_59" data-name="Ellipse 59" class="cls-2" cx="1.997" cy="1.997" r="1.997" transform="translate(8.989 44.061)"/>
      <path id="Path_368" data-name="Path 368" class="cls-3" d="M57.1,38a3.7,3.7,0,0,1,3.643,3.7v3.588a3.652,3.652,0,0,1-7.3,0V41.7A3.7,3.7,0,0,1,57.1,38Z" transform="translate(-3.998 -2.862)"/>
      <path id="Path_369" data-name="Path 369" class="cls-2" d="M57.035,49.714A4.485,4.485,0,0,1,52.55,45.23V41.651a4.485,4.485,0,0,1,8.96,0v3.6a4.485,4.485,0,0,1-4.475,4.466Zm0-10.837a2.774,2.774,0,0,0-2.774,2.774v3.6a2.806,2.806,0,1,0,5.613,0v-3.6a2.774,2.774,0,0,0-2.839-2.774Z" transform="translate(-3.93 -2.814)"/>
      <circle id="Ellipse_60" data-name="Ellipse 60" class="cls-2" cx="1.997" cy="1.997" r="1.997" transform="translate(51.107 44.061)"/>
      <path id="Path_370" data-name="Path 370" class="cls-3" d="M48.219,27.857c-1.683.509-3.357.786-5.03-.222-2.025-1.2-2.885-1.655-5.012.083-3.44,2.82-7.675,2.044-11.1-.37a39.076,39.076,0,0,1-7.166-6.408S16.623,23.492,12,32.036v7.647C12,56.53,22.5,69.531,32.934,69.531s20.916-13,20.916-29.848V35.467S52.685,26.543,48.219,27.857Z" transform="translate(-0.875 -1.576)"/>
      <path id="Path_371" data-name="Path 371" class="cls-2" d="M32.856,70.268c-10.3,0-21.776-12.594-21.776-30.68l.1-8.054c4.707-8.59,8.026-11.244,8.156-11.355l.638-.5.527.629a38.216,38.216,0,0,0,7.009,6.26c1.7,1.211,6.084,3.652,10.06.407,2.515-2.053,3.773-1.461,5.973-.148,1.341.8,2.709.629,4.364.129h0a3.523,3.523,0,0,1,3.014.4c2.774,1.794,3.606,7.286,3.7,7.906v4.327C54.623,57.675,43.147,70.268,32.856,70.268Zm-20.1-38.115v7.4c0,17.1,10.587,29.007,20.1,29.007s20.093-11.873,20.093-28.97V35.372c-.194-1.359-1.119-5.437-2.94-6.6a1.849,1.849,0,0,0-1.618-.2h0a6.665,6.665,0,0,1-5.7-.3c-2-1.174-2.339-1.405-4.059,0-3.384,2.774-7.9,2.635-12.095-.342a41.887,41.887,0,0,1-6.75-5.89C18.681,23.157,16.092,26.106,12.754,32.154Z" transform="translate(-0.806 -1.481)"/>
      <circle id="Ellipse_61" data-name="Ellipse 61" class="cls-2" cx="1.535" cy="1.535" r="1.535" transform="translate(22.655 36.821)"/>
      <path id="Path_372" data-name="Path 372" class="cls-2" d="M22.073,36.669a.841.841,0,0,1-.435-1.553,10.273,10.273,0,0,1,6.371-1.184.841.841,0,0,1-.25,1.655,8.683,8.683,0,0,0-5.243.925A.777.777,0,0,1,22.073,36.669Z" transform="translate(-1.572 -2.548)"/>
      <circle id="Ellipse_62" data-name="Ellipse 62" class="cls-2" cx="1.535" cy="1.535" r="1.535" transform="translate(38.365 36.821)"/>
      <path id="Path_373" data-name="Path 373" class="cls-2" d="M46.562,36.674a.777.777,0,0,1-.425-.12,8.692,8.692,0,0,0-5.252-.925.814.814,0,0,1-.925-.7.832.832,0,0,1,.7-.925,10.273,10.273,0,0,1,6.371,1.184.832.832,0,0,1,.277,1.147.841.841,0,0,1-.749.342Z" transform="translate(-2.981 -2.553)"/>
      <path id="Path_374" data-name="Path 374" class="cls-6" d="M34.2,64.458A5.594,5.594,0,0,0,39.4,60.14H29a5.613,5.613,0,0,0,5.2,4.318Z" transform="translate(-2.156 -4.529)"/>
      <path id="Path_375" data-name="Path 375" class="cls-2" d="M34.137,65.223a6.417,6.417,0,0,1-6.02-4.919.86.86,0,0,1,.139-.73.832.832,0,0,1,.666-.333H39.334a.832.832,0,0,1,.675.333.823.823,0,0,1,.129.73A6.408,6.408,0,0,1,34.137,65.223Zm-3.985-4.309a4.327,4.327,0,0,0,7.961,0Z" transform="translate(-2.087 -4.462)"/>
      <path id="Path_376" data-name="Path 376" class="cls-2" d="M38.713,79.09a1.276,1.276,0,0,0-.379,1.332,1.276,1.276,0,0,0-1.137-.277,1.914,1.914,0,0,0-.425.185,1.258,1.258,0,0,0-.555,1.073,1.285,1.285,0,0,0-2.284.324,1.248,1.248,0,0,0-1-.925,1.3,1.3,0,0,0-1.295.518A1.276,1.276,0,0,0,29.5,80.31a1.267,1.267,0,0,0-.148-1.073,1.794,1.794,0,0,0-.379-.37,1.239,1.239,0,0,0-1.415,0c0-.055.074-.1.1-.166a1.123,1.123,0,0,0,0-.934.832.832,0,0,0-.268-.407,1.267,1.267,0,0,0-1.775,0,1.553,1.553,0,0,0-.268.407,1.123,1.123,0,0,0,0,.934,1.553,1.553,0,0,0,.268.407,1.035,1.035,0,0,0,.407.268,1.359,1.359,0,0,0,.5.092,1.184,1.184,0,0,0,.7-.25A1.276,1.276,0,0,0,29,80.957l.148-.12a1.267,1.267,0,0,0,.49,1.442,1.85,1.85,0,0,0,.333.157,1.23,1.23,0,0,0,1.433-.481,1.239,1.239,0,0,0,.86,1.258,1.313,1.313,0,0,0,1.627-.8,1.248,1.248,0,0,0,1.221.925,1.312,1.312,0,0,0,.333,0,1.258,1.258,0,0,0,.925-1.248h0a1.276,1.276,0,0,0,2.293-1.017.176.176,0,0,0,0-.074,1.276,1.276,0,0,0,1.526.1,1.443,1.443,0,0,0,.379-.37,1.276,1.276,0,0,0-.351-1.748A1.248,1.248,0,0,0,38.713,79.09Z" transform="translate(-1.874 -5.799)"/>
      <path id="Path_377" data-name="Path 377" class="cls-2" d="M43.684,77.8a1.2,1.2,0,0,0-.268-.407,1.23,1.23,0,0,0-1.766,0,1.368,1.368,0,0,0-.277.407,1.225,1.225,0,0,0,0,.934.925.925,0,0,0,.277.407,1.285,1.285,0,0,0,.925.361,1.267,1.267,0,0,0,.869-.361.832.832,0,0,0,.268-.407,1,1,0,0,0-.028-.934Z" transform="translate(-3.081 -5.801)"/>
      <path id="Path_378" data-name="Path 378" class="cls-2" d="M33.632,55.057a.841.841,0,0,1-.832-.73.851.851,0,0,1,.721-.925,2.5,2.5,0,0,0,1.849-.925,1.979,1.979,0,0,0,.25-1.405l-1.276-6.6a.823.823,0,0,1,.666-.98.8.8,0,0,1,.925.666L37.2,50.711a3.514,3.514,0,0,1-.49,2.709,4.069,4.069,0,0,1-2.977,1.637Z" transform="translate(-2.442 -3.274)"/>
      <path id="Path_379" data-name="Path 379" class="cls-2" d="M43.085,113.774a7.4,7.4,0,0,1-3.273-.758.832.832,0,0,1-.379-1.119.823.823,0,0,1,1.119-.379,5.881,5.881,0,0,0,6.2-.73v-8.664H42.494a.841.841,0,0,1,0-1.683h5.095a.841.841,0,0,1,.841.841v9.894a.841.841,0,0,1-.277.62A7.527,7.527,0,0,1,43.085,113.774Z" transform="translate(-2.936 -7.565)"/>
      <path id="Path_380" data-name="Path 380" class="cls-10" d="M20.428,20.714A15.506,15.506,0,0,1,18.68,17.94" transform="translate(-1.379 -1.35)"/>
      <path id="Path_381" data-name="Path 381" class="cls-2" d="M20.357,21.475a.8.8,0,0,1-.629-.287,16.644,16.644,0,0,1-1.849-2.894.841.841,0,1,1,1.489-.767A15.22,15.22,0,0,0,21.014,20.1a.841.841,0,0,1-.638,1.378Z" transform="translate(-1.308 -1.279)"/>
    </g>
  </g>
</svg>
