<svg class="sd-svg sd-svg--person-woman3" width="65" height="211" xmlns="http://www.w3.org/2000/svg" viewBox="1370.56 -2972.295 65.397 210.913">
  <defs>
    <style>
      .sd-svg--person-woman3 .cls-1 {
        fill: #fff2e3;
      }

      .sd-svg--person-woman3 .cls-2 {
        fill: #1f2740;
      }

      .sd-svg--person-woman3 .cls-3 {
        fill: #9d53ff;
      }

      .sd-svg--person-woman3 .cls-4, .cls-7 {
        fill: #0072ff;
      }

      .sd-svg--person-woman3 .cls-5 {
        fill: #ffd629;
      }

      .sd-svg--person-woman3 .cls-6, .cls-8 {
        fill: #fff;
      }

      .sd-svg--person-woman3 .cls-7, .cls-8 {
        fill-rule: evenodd;
      }
    </style>
  </defs>
  <g id="Asset_7_-lady2" data-name="Asset 7 -lady2" transform="translate(-1447.987 1771)">
    <g id="Layer_1" data-name="Layer 1" transform="translate(2818.547 -4743.295)">
      <path id="Path_382" data-name="Path 382" class="cls-1" d="M59.079,222.512s-4.842-4.334-21.829-5.782v9.379l21.829-1.125Z" transform="translate(-2.911 -16.857)"/>
      <path id="Path_383" data-name="Path 383" class="cls-2" d="M37.179,226.818a.922.922,0,0,1-.581-.221.867.867,0,0,1-.258-.609V216.61a.848.848,0,0,1,.267-.609.784.784,0,0,1,.636-.221c17.079,1.457,22.133,5.81,22.318,5.994a.821.821,0,0,1,.277.618v2.472a.848.848,0,0,1-.793.839l-21.829,1.116Zm.83-9.287V225.1l20.15-1.033v-1.263C56.951,221.968,51.593,218.8,38.009,217.532Z" transform="translate(-2.84 -16.783)"/>
      <path id="Path_384" data-name="Path 384" class="cls-3" d="M59.245,227.168H37.25V219.79s4.454,5.432,19.237,1.7C56.487,221.468,63.764,222.428,59.245,227.168Z" transform="translate(-2.911 -17.095)"/>
      <path id="Path_385" data-name="Path 385" class="cls-2" d="M59.174,227.936H37.179a.839.839,0,0,1-.839-.839v-7.378a.839.839,0,0,1,1.485-.535c0,.046,4.408,4.952,18.389,1.42a1.218,1.218,0,0,1,.314,0c.415.055,4.03.59,4.823,2.859.452,1.273-.083,2.7-1.577,4.251A.83.83,0,0,1,59.174,227.936Zm-21.211-1.669H58.805c.627-.71,1.217-1.6.922-2.287-.36-1.042-2.425-1.586-3.311-1.725-10.615,2.638-16.083.646-18.444-.821Z" transform="translate(-2.84 -17.024)"/>
      <path id="Path_386" data-name="Path 386" class="cls-1" d="M10,222.512s4.832-4.334,21.829-5.782v9.379L10,224.938Z" transform="translate(-0.791 -16.857)"/>
      <path id="Path_387" data-name="Path 387" class="cls-2" d="M31.771,226.822h0L9.933,225.706a.848.848,0,0,1-.793-.839v-2.425a.821.821,0,0,1,.277-.618c.2-.184,5.247-4.537,22.318-5.994a.775.775,0,0,1,.636.221.811.811,0,0,1,.267.609v9.379a.867.867,0,0,1-.258.609.848.848,0,0,1-.609.175Zm-21-2.767,20.16,1.033v-7.571c-13.575,1.263-18.942,4.436-20.16,5.275Z" transform="translate(-0.724 -16.787)"/>
      <path id="Path_388" data-name="Path 388" class="cls-3" d="M9.7,227.168H31.7V219.79s-4.454,5.432-19.247,1.7C12.452,221.468,5.139,222.428,9.7,227.168Z" transform="translate(-0.652 -17.095)"/>
      <path id="Path_389" data-name="Path 389" class="cls-2" d="M31.628,227.933H9.633a.811.811,0,0,1-.6-.258C7.54,226.126,7,224.7,7.447,223.424c.793-2.269,4.417-2.767,4.823-2.859a1.171,1.171,0,0,1,.314,0c13.962,3.523,18.361-1.374,18.4-1.42a.83.83,0,0,1,.922-.249.839.839,0,0,1,.544.784v7.378a.83.83,0,0,1-.821.876ZM10,226.264H30.788v-4.832c-2.361,1.476-7.83,3.468-18.444.821-.922.138-2.951.682-3.311,1.725C8.785,224.669,9.375,225.554,10,226.264Z" transform="translate(-0.581 -17.022)"/>
      <path id="Path_390" data-name="Path 390" class="cls-4" d="M50.785,142.26s1.6,7.451-.36,25.057c-1.844,16.729-1.844,22.7-1.669,44.091l-13.123.922s.369-36.621-.424-49.5H32.784c-.8,12.911-.433,49.5-.433,49.5l-13.114-.922c.166-21.4.184-27.362-1.669-44.091C15.6,149.711,17.2,142.26,17.2,142.26Z" transform="translate(-1.304 -11.064)"/>
      <path id="Path_391" data-name="Path 391" class="cls-2" d="M35.562,213.058a.83.83,0,0,1-.572-.231.812.812,0,0,1-.258-.618c0-.35.341-35.312-.387-48.656H33.5c-.738,13.344-.4,48.306-.4,48.656a.775.775,0,0,1-.258.618.756.756,0,0,1-.627.231L19.1,212.136a.848.848,0,0,1-.784-.839c.166-20.805.212-27.085-1.66-44-1.955-17.522-.424-25.01-.35-25.324a.821.821,0,0,1,.812-.664h33.6a.839.839,0,0,1,.821.664c.065.313,1.6,7.793-.35,25.324-1.844,16.9-1.844,23.184-1.669,44a.848.848,0,0,1-.775.839l-13.123.922ZM20,210.559l11.435.765c-.055-5.727-.286-37.027.433-48.656a.848.848,0,0,1,.839-.784h2.425a.839.839,0,0,1,.83.784c.719,11.629.489,42.929.443,48.656l11.426-.765c-.157-20.289-.175-26.615,1.688-43.409,1.6-14.35.8-21.958.489-24.125H17.818c-.314,2.167-1.107,9.766.48,24.125C20.189,183.944,20.161,190.3,20,210.559Z" transform="translate(-1.232 -10.99)"/>
      <path id="Path_392" data-name="Path 392" class="cls-1" d="M4.033,109.36,2.216,150.528a2.259,2.259,0,0,0-.682,1.439l-.406,5.34a6.917,6.917,0,0,0,6.336,7.451,1.7,1.7,0,1,0,.267-3.375,3.089,3.089,0,0,1-2.84-3.311l.194-2.462a1.014,1.014,0,0,1,2.02.157h0L6.947,157.7a1.7,1.7,0,1,0,3.385.258l.157-2.047.074-.922a3.947,3.947,0,0,0-2.545-4l3.8-41.038" transform="translate(-0.099 -8.505)"/>
      <path id="Path_393" data-name="Path 393" class="cls-2" d="M7.563,165.522H7.4a7.737,7.737,0,0,1-7.129-8.3l.406-5.34a3.006,3.006,0,0,1,.692-1.715L3.21,109.286a.839.839,0,1,1,1.669.074L3.035,150.536a.83.83,0,0,1-.258.572,1.411,1.411,0,0,0-.424.922l-.489,5.293a6.1,6.1,0,0,0,5.6,6.529.922.922,0,0,0,.627-.2.867.867,0,0,0-.5-1.512,3.919,3.919,0,0,1-3.6-4.205l.194-2.462a1.85,1.85,0,0,1,3.689.286L7.729,157.7a.858.858,0,0,0,.2.627.849.849,0,0,0,.59.3.867.867,0,0,0,.618-.2.922.922,0,0,0,.3-.59l.231-2.979A3.136,3.136,0,0,0,7.646,151.7a.821.821,0,0,1-.544-.858l3.79-41.029a.793.793,0,0,1,.922-.756.83.83,0,0,1,.756.922L8.835,150.4a4.8,4.8,0,0,1,2.518,4.611l-.267,2.951a2.536,2.536,0,0,1-.876,1.734,2.481,2.481,0,0,1-1.844.6,2.545,2.545,0,0,1-2.333-2.721l.157-1.937a.181.181,0,1,0-.36-.037l-.184,2.472a2.232,2.232,0,0,0,2.057,2.4,2.53,2.53,0,0,1-.184,5.054Z" transform="translate(-0.033 -8.431)"/>
      <path id="Path_394" data-name="Path 394" class="cls-1" d="M66.015,109.61l1.411,41.048a2.213,2.213,0,0,1,.664,1.448l.36,5.321a6.889,6.889,0,0,1-6.455,7.378,1.688,1.688,0,0,1-.231-3.366,3.062,3.062,0,0,0,2.85-3.265l-.138-2.5a1,1,0,1,0-1.992.148h0l.138,1.937a1.691,1.691,0,1,1-3.375.221l-.138-2.038-.065-.922a3.929,3.929,0,0,1,2.6-3.965L58.25,110.145" transform="translate(-4.545 -8.524)"/>
      <path id="Path_395" data-name="Path 395" class="cls-2" d="M61.851,165.534a2.527,2.527,0,0,1-.166-5.044,2.232,2.232,0,0,0,2.075-2.37l-.166-2.462-.184-.157a2.709,2.709,0,0,0-.157.24l.129,1.844a2.527,2.527,0,1,1-5.035.341l-.2-2.97a4.8,4.8,0,0,1,2.573-4.482L57.37,110.156a.83.83,0,0,1,.765-.922.812.812,0,0,1,.922.756l3.394,40.919a.83.83,0,0,1-.544.858,3.1,3.1,0,0,0-2.112,3.117l.194,2.97a.922.922,0,0,0,.922.793.848.848,0,0,0,.793-.922l-.129-1.927a1.847,1.847,0,0,1,1.715-1.974,1.771,1.771,0,0,1,1.337.452,1.844,1.844,0,0,1,.618,1.263L65.411,158a3.9,3.9,0,0,1-3.624,4.15.858.858,0,0,0-.581.286.867.867,0,0,0-.212.627.922.922,0,0,0,.922.793A6.077,6.077,0,0,0,67.56,157.4l-.387-5.312a1.346,1.346,0,0,0-.415-.922.812.812,0,0,1-.249-.572l-1.42-41.048a.839.839,0,0,1,.8-.867.858.858,0,0,1,.867.812l1.411,40.743a3.08,3.08,0,0,1,.673,1.725l.35,5.321a7.7,7.7,0,0,1-7.184,8.226Z" transform="translate(-4.476 -8.452)"/>
      <path id="Path_396" data-name="Path 396" class="cls-5" d="M25.36,8.03C30.949-2.53,49.439-.538,56.448,8.74c3.255,4.288,4.547,9.775,4.74,15.032a36.142,36.142,0,0,1-.507,8.106c-.48,2.555-1.54,4.952-2.057,7.488-1.19,5.874-.775,12.155,2.223,17.467.821,1.448,1.734,2.831,2.6,4.251.507.83,2.573,3.4,2.37,4.371s-2.979,1.227-4.049,1.328c-5.533.526-10.762-1.918-14.6-5.755l-21.81-53" transform="translate(-1.986 -0.069)"/>
      <path id="Path_397" data-name="Path 397" class="cls-2" d="M60.231,67.607A19.366,19.366,0,0,1,46.5,61.548a.784.784,0,0,1-.175-.277L24.513,8.3a.83.83,0,0,1,0-.71C26.856,3.209,31.356.544,37.221.074c7.645-.627,15.761,2.693,19.828,8.088,2.951,3.947,4.685,9.36,4.906,15.512a36.888,36.888,0,0,1-.526,8.3,33.992,33.992,0,0,1-1.07,3.947,34.367,34.367,0,0,0-.987,3.551c-.922,4.4-1.245,10.9,2.13,16.886.544.922,1.125,1.844,1.706,2.813l.922,1.411c.111.184.3.443.516.756,1.236,1.771,2.176,3.2,1.964,4.224-.3,1.448-2.573,1.789-4.676,1.983C61.337,67.58,60.784,67.607,60.231,67.607ZM47.8,60.488c4.012,3.938,8.927,5.856,13.833,5.395,2.7-.258,3.237-.6,3.338-.738a13.833,13.833,0,0,0-1.725-2.859c-.24-.35-.443-.646-.563-.839l-.839-1.393c-.6-.922-1.2-1.909-1.752-2.877-3.634-6.455-3.265-13.372-2.315-18.048A36.544,36.544,0,0,1,58.81,35.44a32.653,32.653,0,0,0,1.024-3.763,35.2,35.2,0,0,0,.5-7.922c-.148-4.076-1.061-9.914-4.611-14.562-3.735-4.943-11.288-8-18.352-7.378-5.118.415-9.065,2.638-11.15,6.271Z" transform="translate(-1.914 0.002)"/>
      <path id="Path_398" data-name="Path 398" class="cls-1" d="M11.7,41.51a3.5,3.5,0,0,0-3.5,3.5v3.449a3.5,3.5,0,0,0,7.009,0V45.014a3.5,3.5,0,0,0-3.5-3.5Z" transform="translate(-0.651 -3.227)"/>
      <path id="Path_399" data-name="Path 399" class="cls-2" d="M11.634,52.736A4.353,4.353,0,0,1,7.3,48.393V44.944a4.344,4.344,0,1,1,8.687,0v3.449a4.344,4.344,0,0,1-4.353,4.344Zm0-10.467a2.674,2.674,0,0,0-2.665,2.674v3.449a2.674,2.674,0,1,0,5.34,0V44.944A2.674,2.674,0,0,0,11.634,42.269Z" transform="translate(-0.581 -3.156)"/>
      <circle id="Ellipse_63" data-name="Ellipse 63" class="cls-2" cx="1.918" cy="1.918" r="1.918" transform="translate(9.144 46.823)"/>
      <path id="Path_400" data-name="Path 400" class="cls-1" d="M58.614,41.51a3.5,3.5,0,0,1,3.5,3.5v3.449a3.5,3.5,0,0,1-7.009,0V45.014a3.5,3.5,0,0,1,3.5-3.5Z" transform="translate(-4.3 -3.227)"/>
      <path id="Path_401" data-name="Path 401" class="cls-2" d="M58.544,52.736A4.353,4.353,0,0,1,54.2,48.393V44.944a4.344,4.344,0,0,1,8.687,0v3.449A4.344,4.344,0,0,1,58.544,52.736Zm0-10.467a2.674,2.674,0,0,0-2.684,2.674v3.449a2.665,2.665,0,0,0,5.33,0V44.944A2.665,2.665,0,0,0,58.544,42.269Z" transform="translate(-4.23 -3.156)"/>
      <circle id="Ellipse_64" data-name="Ellipse 64" class="cls-2" cx="1.918" cy="1.918" r="1.918" transform="translate(52.396 46.823)"/>
      <path id="Path_402" data-name="Path 402" class="cls-1" d="M46.295,79.817a24.375,24.375,0,0,0-2.767-.157H41.776L40.669,68.05H28.219L27.113,79.661H25.361a24.078,24.078,0,0,0-2.721.157L34.463,92.9Z" transform="translate(-1.775 -5.292)"/>
      <path id="Path_403" data-name="Path 403" class="cls-2" d="M34.395,93.666a.867.867,0,0,1-.618-.267l-11.8-13.086a.839.839,0,0,1,.526-1.393,25.611,25.611,0,0,1,2.822-.166h1l1-10.818a.848.848,0,0,1,.83-.756H40.638a.83.83,0,0,1,.83.756L42.51,78.791H43.5a25.611,25.611,0,0,1,2.822.166.839.839,0,0,1,.682.535.83.83,0,0,1-.157.858L35.022,93.4a.922.922,0,0,1-.627.267ZM24.324,80.451,34.395,91.582,44.466,80.451H41.745a.839.839,0,0,1-.83-.756L39.882,68.858H28.917L27.875,79.667a.83.83,0,0,1-.83.756H25.293Z" transform="translate(-1.707 -5.224)"/>
      <path id="Path_404" data-name="Path 404" class="cls-3" d="M45.144,12.158V7.713c0-2.6-4.768-4.713-9.877-4.713S25.39,5.112,25.39,7.713v4.445" transform="translate(-1.989 -0.231)"/>
      <path id="Path_405" data-name="Path 405" class="cls-2" d="M45.073,12.928a.839.839,0,0,1-.839-.839V7.643c0-1.789-3.947-3.883-9.038-3.883s-9.047,2.093-9.047,3.883v4.445a.839.839,0,1,1-1.669,0V7.643c0-3.431,5.533-5.533,10.716-5.533S45.912,4.231,45.912,7.643v4.445A.839.839,0,0,1,45.073,12.928Z" transform="translate(-1.917 -0.162)"/>
      <path id="Path_406" data-name="Path 406" class="cls-1" d="M12.82,36.963V25.131C12.82,15.383,22.909,7.48,33.7,7.48s20.879,7.9,20.879,17.651V38.208c0,16.784-10.467,33.107-20.879,33.107S12.82,54.992,12.82,38.208Z" transform="translate(-1.011 -0.58)"/>
      <path id="Path_407" data-name="Path 407" class="cls-2" d="M33.629,72.088c-10.956,0-21.709-16.812-21.709-33.947V25.064c0-9.849,10.144-18.444,21.709-18.444s21.709,8.6,21.709,18.444V38.141C55.338,55.276,44.594,72.088,33.629,72.088Zm0-63.836c-10.679,0-20.04,7.857-20.04,16.812V38.141c0,15.982,10.144,32.277,20.04,32.277s20.049-16.3,20.049-32.277V25.064C53.678,16.11,44.271,8.252,33.629,8.252Z" transform="translate(-0.941 -0.513)"/>
      <circle id="Ellipse_65" data-name="Ellipse 65" class="cls-2" cx="1.549" cy="1.549" r="1.549" transform="translate(22.691 39.528)"/>
      <path id="Path_408" data-name="Path 408" class="cls-2" d="M35.225,58.973h-.092c-.729-.083-4.408-.572-5.072-2.545s1.669-3.357,2.591-3.883l1.4-5.127a.858.858,0,0,1,1.033-.59.839.839,0,0,1,.581,1.033l-1.494,5.478a.858.858,0,0,1-.443.526c-.968.5-2.259,1.476-2.084,2.01s2.093,1.236,3.689,1.4a.848.848,0,0,1,.747.922.839.839,0,0,1-.858.775Z" transform="translate(-2.343 -3.639)"/>
      <path id="Path_409" data-name="Path 409" class="cls-2" d="M22.04,41.668a.839.839,0,0,1-.581-1.439,5.93,5.93,0,0,1,7-.922.861.861,0,1,1-.839,1.5,4.358,4.358,0,0,0-5,.655.858.858,0,0,1-.581.2Z" transform="translate(-1.663 -2.998)"/>
      <circle id="Ellipse_66" data-name="Ellipse 66" class="cls-2" cx="1.549" cy="1.549" r="1.549" transform="translate(39.596 39.528)"/>
      <path id="Path_410" data-name="Path 410" class="cls-2" d="M48.243,41.664a.867.867,0,0,1-.581-.221,4.307,4.307,0,0,0-5.008-.627.821.821,0,0,1-1.134-.3.83.83,0,0,1,.3-1.144,5.93,5.93,0,0,1,7,.922.83.83,0,0,1-.572,1.429Z" transform="translate(-3.234 -3.003)"/>
      <path id="Path_411" data-name="Path 411" class="cls-2" d="M33.34,41.83a.839.839,0,0,1-.756-.489A.83.83,0,0,1,33,40.235a5.967,5.967,0,0,1,4.371,0,.842.842,0,1,1-.719,1.522,4.224,4.224,0,0,0-2.988,0A.922.922,0,0,1,33.34,41.83Z" transform="translate(-2.542 -3.096)"/>
      <path id="Path_412" data-name="Path 412" class="cls-2" d="M22.545,50.643a6.649,6.649,0,0,1-5.533-2.6,10.034,10.034,0,0,1-1.752-6.031c0-2.84,1.669-6.234,9.72-6.271h.12c2.582,0,4.288.369,5.533,1.2,1.522,1.005,2.259,2.647,2.269,5.008h0c0,4.869-5.533,8.678-10.347,8.7Zm2.564-13.225H25c-5.349,0-8.069,1.559-8.06,4.611a8.374,8.374,0,0,0,1.42,5.017,4.961,4.961,0,0,0,4.187,1.937h0c3.938,0,8.687-3.154,8.678-7.018h0c0-2.352-.922-3.191-1.522-3.624C28.779,37.7,27.313,37.418,25.109,37.418Z" transform="translate(-1.2 -2.778)"/>
      <path id="Path_413" data-name="Path 413" class="cls-2" d="M16.23,44.71a.839.839,0,0,1-.821-.719c-.074-.48-.692-4.768-.138-6.815a.858.858,0,0,1,.646-.6c.258,0,6.382-1.273,11.15-.747a.83.83,0,0,1,.738.922.848.848,0,0,1-.922.738,40.171,40.171,0,0,0-10.089.627,25.721,25.721,0,0,0,.267,5.635.848.848,0,0,1-.7.922Z" transform="translate(-1.184 -2.775)"/>
      <path id="Path_414" data-name="Path 414" class="cls-2" d="M46.786,50.643h0c-4.8,0-10.366-3.827-10.347-8.7h0a5.9,5.9,0,0,1,1.54-4.408c1.263-1.254,3.154-1.752,6.391-1.8,8.051,0,9.729,3.431,9.72,6.271a10.034,10.034,0,0,1-1.752,6.031A6.631,6.631,0,0,1,46.786,50.643ZM44.213,37.418c-2.61,0-4.187.4-5.091,1.3a4.39,4.39,0,0,0-1.051,3.237c0,3.864,4.74,7,8.687,7.018h0a4.943,4.943,0,0,0,4.205-1.927,8.374,8.374,0,0,0,1.42-5.026c0-3.034-2.7-4.611-8.06-4.611Z" transform="translate(-2.847 -2.778)"/>
      <path id="Path_415" data-name="Path 415" class="cls-2" d="M53.506,44.713h-.12a.83.83,0,0,1-.7-.922,26.3,26.3,0,0,0,.267-5.635,40.218,40.218,0,0,0-10.144-.627.839.839,0,0,1-.184-1.66,43.2,43.2,0,0,1,11.15.747.839.839,0,0,1,.646.6c.563,2.047-.065,6.336-.129,6.815A.848.848,0,0,1,53.506,44.713Z" transform="translate(-3.277 -2.778)"/>
      <path id="Path_416" data-name="Path 416" class="cls-5" d="M12.82,30.148V25.131C12.82,15.383,22.909,7.48,33.7,7.48s20.879,7.9,20.879,17.651v6.455a27.666,27.666,0,0,1-8.687-12.072c-9.591,13.63-27.085,11.8-33.052,10.707Z" transform="translate(-1.011 -0.58)"/>
      <path id="Path_417" data-name="Path 417" class="cls-2" d="M54.509,32.377A.848.848,0,0,1,54,32.2a28.423,28.423,0,0,1-8.411-11.067c-10.144,12.837-27.666,10.79-32.978,9.822a.83.83,0,0,1-.673-.7,1.844,1.844,0,0,1,0-.212v-4.98c0-9.849,10.144-18.444,21.709-18.444s21.69,8.6,21.69,18.444V31.52a.83.83,0,0,1-.47.747A.922.922,0,0,1,54.509,32.377Zm-40.919-2.9c7.018,1.171,22.7,2.1,31.549-10.513a.839.839,0,0,1,.8-.35.83.83,0,0,1,.673.572,27.4,27.4,0,0,0,7.064,10.569V25.064c0-8.955-9.407-16.812-20.049-16.812s-20.04,7.857-20.04,16.812Z" transform="translate(-0.942 -0.513)"/>
      <path id="Path_418" data-name="Path 418" class="cls-6" d="M64.4,71.839A10.412,10.412,0,0,1,59.16,65.9" transform="translate(-4.615 -5.124)"/>
      <path id="Path_419" data-name="Path 419" class="cls-2" d="M64.331,72.619A.867.867,0,0,1,64,72.545a11.177,11.177,0,0,1-5.7-6.455.839.839,0,0,1,1.568-.516,9.6,9.6,0,0,0,4.777,5.441.83.83,0,0,1,.433,1.1.839.839,0,0,1-.747.507Z" transform="translate(-4.548 -5.065)"/>
      <path id="Path_420" data-name="Path 420" class="cls-2" d="M35.061,67.366a6.455,6.455,0,0,1-3.274-.8.847.847,0,0,1,.922-1.42h0c.148.083,3.689,2.13,8.457-2.287A.839.839,0,1,1,42.3,64.083C39.451,66.656,36.933,67.366,35.061,67.366Z" transform="translate(-2.456 -4.866)"/>
      <line id="Line_78" data-name="Line 78" class="cls-6" x2="5.718" transform="translate(29.829 151.734)"/>
      <path id="Path_421" data-name="Path 421" class="cls-2" d="M38.014,165.289H32.3a.839.839,0,0,1,0-1.669h5.718a.839.839,0,1,1,0,1.669Z" transform="translate(-2.467 -12.725)"/>
      <path id="Path_422" data-name="Path 422" class="cls-2" d="M17.089,164.35a.849.849,0,0,1-.6-.249.839.839,0,0,1,0-1.18c.055,0,4.851-4.759,4.8-10.532a.83.83,0,0,1,.83-.839.765.765,0,0,1,.848.821c0,6.5-5.1,11.537-5.321,11.749A.812.812,0,0,1,17.089,164.35Z" transform="translate(-1.277 -11.786)"/>
      <path id="Path_423" data-name="Path 423" class="cls-2" d="M20.757,32.585a44.266,44.266,0,0,1-10.439-1.18.83.83,0,0,1-.111-1.568s3.062-1.365,4.039-3.255a.839.839,0,1,1,1.485.765,8.457,8.457,0,0,1-2.84,2.9C19.07,31.331,37.062,33.01,45.98,18.3a.839.839,0,1,1,1.429.867C40.686,30.271,29.177,32.585,20.757,32.585Z" transform="translate(-0.768 -1.385)"/>
      <path id="Path_424" data-name="Path 424" class="cls-2" d="M20.35,32.864a.821.821,0,0,1-.821-.71.839.839,0,0,1,.7-.922c.3,0,7.442-1.217,10.587-9.517a.833.833,0,0,1,1.559.59c-3.5,9.222-11.555,10.532-11.906,10.578Z" transform="translate(-1.532 -1.645)"/>
      <path id="Path_425" data-name="Path 425" class="cls-2" d="M53.263,164.35a.849.849,0,0,1-.581-.231c-.212-.212-5.358-5.247-5.312-11.749a.812.812,0,0,1,.839-.821.83.83,0,0,1,.83.839c0,5.782,4.759,10.476,4.8,10.532a.83.83,0,0,1,0,1.18.821.821,0,0,1-.581.249Z" transform="translate(-3.698 -11.787)"/>
      <path id="Path_426" data-name="Path 426" class="cls-7" d="M49.489,112.045a12.053,12.053,0,0,0,1.374-3.292l13.759-1.42c.6-.065-1.955-8.06-2.158-8.687A37.811,37.811,0,0,0,57.392,88.04a16.876,16.876,0,0,0-12.754-7.23L32.769,93.223,20.946,80.81A16.877,16.877,0,0,0,8.192,88.04,37.58,37.58,0,0,0,3.12,98.646c-.2.627-2.767,8.623-2.158,8.687l13.723,1.42a11.989,11.989,0,0,0,1.365,3.292,15.9,15.9,0,0,1,1.54,2.628,17.089,17.089,0,0,1,.655,6.8,46,46,0,0,1-1.955,10.716,27.537,27.537,0,0,0-1.383,10.089H50.688a27.528,27.528,0,0,0-1.374-10.089,46.019,46.019,0,0,1-1.964-10.716,17.1,17.1,0,0,1,.664-6.8,15.844,15.844,0,0,1,1.476-2.628Z" transform="translate(-0.081 -6.284)"/>
      <path id="Path_427" data-name="Path 427" class="cls-2" d="M50.594,143.035H14.812a.83.83,0,0,1-.83-.775,28.137,28.137,0,0,1,1.411-10.393,45.114,45.114,0,0,0,1.927-10.513A16.6,16.6,0,0,0,16.7,114.9a8.226,8.226,0,0,0-.922-1.669c-.175-.267-.36-.535-.526-.812a13.031,13.031,0,0,1-1.3-2.951L.813,108.092a.922.922,0,0,1-.673-.433c-.138-.24-.636-.922,2.121-9.342A38.558,38.558,0,0,1,7.453,87.481,17.623,17.623,0,0,1,20.815,79.91a.784.784,0,0,1,.664.258L32.7,91.981,43.926,80.168a.765.765,0,0,1,.664-.258,17.642,17.642,0,0,1,13.372,7.571,38.558,38.558,0,0,1,5.192,10.836c2.767,8.383,2.287,9.1,2.112,9.37a.922.922,0,0,1-.655.406L51.451,109.5a13.068,13.068,0,0,1-1.31,2.951c-.166.277-.341.553-.516.821a7.783,7.783,0,0,0-.922,1.66,16.784,16.784,0,0,0-.618,6.455A46.111,46.111,0,0,0,50.013,131.9a28.331,28.331,0,0,1,1.42,10.393A.839.839,0,0,1,50.594,143.035Zm-34.98-1.669H49.8a27.058,27.058,0,0,0-1.383-9,48.065,48.065,0,0,1-2-10.873,18.325,18.325,0,0,1,.71-7.129,9.167,9.167,0,0,1,1.1-2.093c.166-.249.332-.5.48-.756h0a10.9,10.9,0,0,0,1.273-3.071.83.83,0,0,1,.729-.627l13.012-1.346c-.258-1.531-1.457-5.533-2.149-7.673a36.935,36.935,0,0,0-4.961-10.375A16,16,0,0,0,44.858,81.57L33.311,93.734a.922.922,0,0,1-1.208,0L20.548,81.606A16.047,16.047,0,0,0,8.8,88.459,37.147,37.147,0,0,0,3.847,98.833c-.7,2.121-1.844,6.142-2.158,7.673L14.7,107.853a.821.821,0,0,1,.729.627,11.177,11.177,0,0,0,1.273,3.071c.157.258.314.507.48.756a9.167,9.167,0,0,1,1.1,2.02,18.149,18.149,0,0,1,.71,7.129,46.913,46.913,0,0,1-2,10.9,27.187,27.187,0,0,0-1.374,9.01Z" transform="translate(-0.015 -6.214)"/>
      <path id="Path_428" data-name="Path 428" class="cls-8" d="M48.233,92.247a1.559,1.559,0,0,1,1.974,1.319h1.439a1.844,1.844,0,0,1-1.715,2.066c-.581.065-1.153-.138-1.642.1a4.611,4.611,0,0,0-1.051,1.346,4.242,4.242,0,0,0-.729,1.678,2.555,2.555,0,0,0,0,.461c.074.249.378.2.369.59H45.162a1.844,1.844,0,0,0-1.678-1.937c-1.328-.111-2.25.922-2.96,1.448a.553.553,0,0,1,.3.489H39.14a5.127,5.127,0,0,1,1.715-3.154c-.858-.922-.452-3.292,1.088-3.089-.406.286-.922.609-.922,1.217a1.651,1.651,0,0,0,.756,1.282,7.636,7.636,0,0,0,3.689-1.024,3.45,3.45,0,0,0,.922-.655c.221-.277.212-.544.194-1.024a4.482,4.482,0,0,1,.563-2.693A4.8,4.8,0,0,1,48.233,92.247Zm1.485,1.227c.065-.166-.194-.286-.258-.12s.148.3.212.12Z" transform="translate(-3.058 -7.051)"/>
      <path id="Path_429" data-name="Path 429" class="cls-2" d="M51.731,144.554H15.949a.83.83,0,0,1-.83-.775,28.137,28.137,0,0,1,1.411-10.393,45.115,45.115,0,0,0,1.927-10.513,16.6,16.6,0,0,0-.618-6.455,8.3,8.3,0,0,0-.922-1.669c-.166-.267-.35-.535-.516-.812a11.574,11.574,0,0,1-1.734-7.055,20.7,20.7,0,0,1,1.946-6.926.839.839,0,0,1,1.512.719,18.582,18.582,0,0,0-1.789,6.372,9.877,9.877,0,0,0,1.5,6.04c.157.258.314.507.48.756a9.167,9.167,0,0,1,1.1,2.02,18.149,18.149,0,0,1,.71,7.129,46.913,46.913,0,0,1-2,10.9,27.187,27.187,0,0,0-1.374,9.01H50.938a27.058,27.058,0,0,0-1.383-9,48.066,48.066,0,0,1-2-10.891,18.324,18.324,0,0,1,.71-7.129,9.167,9.167,0,0,1,1.1-2.093c.166-.249.332-.5.48-.756a9.822,9.822,0,0,0,1.512-6.04,19.007,19.007,0,0,0-1.789-6.372.833.833,0,1,1,1.5-.719,20.289,20.289,0,0,1,1.946,6.935,11.509,11.509,0,0,1-1.734,7.055c-.166.277-.341.544-.516.812a8.3,8.3,0,0,0-.922,1.669,16.784,16.784,0,0,0-.618,6.455,46.111,46.111,0,0,0,1.927,10.513,28.33,28.33,0,0,1,1.42,10.393A.839.839,0,0,1,51.731,144.554Z" transform="translate(-1.152 -7.732)"/>
    </g>
  </g>
</svg>
