<svg class="sd-svg sd-svg--plant_tall" height="133" width="80" xmlns="http://www.w3.org/2000/svg" viewBox="940 -2894 79.517 132.516">
  <defs>
    <style>
      .sd-svg--plant_tall .cls-1 {
        fill: #008c8c;
      }

      .sd-svg--plant_tall .cls-2 {
        fill: #1f2740;
      }

      .sd-svg--plant_tall .cls-3 {
        fill: #33cb74;
      }

      .sd-svg--plant_tall .cls-4 {
        fill: #fff;
      }

      .sd-svg--plant_tall .cls-5 {
        fill: #bbc1d1;
      }

      .sd-svg--plant_tall .cls-6 {
        fill: #98a0b2;
      }

      .sd-svg--plant_tall .cls-7 {
        fill: #775542;
      }

      .sd-svg--plant_tall .cls-8 {
        fill: #eef1f6;
      }
    </style>
  </defs>
  <g id="Asset_6" data-name="Asset 6" transform="translate(434.013 1074)">
    <g id="Layer_1" data-name="Layer 1" transform="translate(505.987 -3968)">
      <path id="Path_127" data-name="Path 127" class="cls-1" d="M9.61,86.77V11.447a11.6,11.6,0,0,1,23.16,0V86.77" transform="translate(18.912 0.285)"/>
      <path id="Path_128" data-name="Path 128" class="cls-2" d="M33.262,87.99a.741.741,0,0,1-.741-.741V11.926a10.854,10.854,0,0,0-21.678,0V87.249a.741.741,0,0,1-1.483,0V11.926a12.336,12.336,0,0,1,24.643,0V87.249A.741.741,0,0,1,33.262,87.99Z" transform="translate(18.421 -0.194)"/>
      <path id="Path_129" data-name="Path 129" class="cls-3" d="M3.92,95.208V19.885a11.565,11.565,0,1,1,23.131,0V95.208" transform="translate(7.729 15.778)"/>
      <path id="Path_130" data-name="Path 130" class="cls-2" d="M27.542,96.441A.771.771,0,0,1,26.8,95.7V20.377a10.824,10.824,0,1,0-21.648,0V95.7a.771.771,0,0,1-.741.741A.741.741,0,0,1,3.67,95.7V20.377a12.307,12.307,0,1,1,24.613,0V95.7A.741.741,0,0,1,27.542,96.441Z" transform="translate(7.237 15.286)"/>
      <line id="Line_25" data-name="Line 25" class="cls-4" x1="2.402" y1="1.453" transform="translate(34.957 8.173)"/>
      <path id="Path_131" data-name="Path 131" class="cls-2" d="M14.659,5.585a.919.919,0,0,1-.386,0L11.871,4.1a.753.753,0,0,1,.8-1.275L15.044,4.31a.741.741,0,0,1-.386,1.364Z" transform="translate(22.701 4.783)"/>
      <line id="Line_26" data-name="Line 26" class="cls-4" x1="1.572" y2="2.343" transform="translate(34.008 19.234)"/>
      <path id="Path_132" data-name="Path 132" class="cls-2" d="M11.949,10.162a.712.712,0,0,1-.415,0,.741.741,0,0,1-.208-1.008L12.9,6.811a.748.748,0,1,1,1.245.83L12.572,9.984a.771.771,0,0,1-.623.178Z" transform="translate(22.059 12.157)"/>
      <line id="Line_27" data-name="Line 27" class="cls-4" y1="2.58" x2="1.097" transform="translate(43.379 4.644)"/>
      <path id="Path_133" data-name="Path 133" class="cls-2" d="M15.12,5.535a.474.474,0,0,1-.3,0,.712.712,0,0,1-.386-.979l1.1-2.58a.712.712,0,0,1,.949-.386.741.741,0,0,1,.415.979l-1.1,2.58a.741.741,0,0,1-.682.386Z" transform="translate(28.259 2.431)"/>
      <line id="Line_28" data-name="Line 28" class="cls-4" y1="2.61" x2="1.097" transform="translate(19.982 71.071)"/>
      <path id="Path_134" data-name="Path 134" class="cls-2" d="M7.223,27.962h-.3a.741.741,0,0,1-.386-.979l1.1-2.58a.741.741,0,0,1,.979-.415A.771.771,0,0,1,9,24.967l-.979,2.521a.771.771,0,0,1-.8.474Z" transform="translate(12.758 46.46)"/>
      <line id="Line_29" data-name="Line 29" class="cls-4" y1="1.839" x2="2.105" transform="translate(44.803 19.472)"/>
      <path id="Path_135" data-name="Path 135" class="cls-2" d="M15.614,9.831a.8.8,0,0,1-.563-.237.741.741,0,0,1,0-1.038l2.135-1.839a.83.83,0,0,1,1.1,1.245L16.148,9.8a.741.741,0,0,1-.534.03Z" transform="translate(29.189 12.221)"/>
      <line id="Line_30" data-name="Line 30" class="cls-4" y1="1.245" x2="2.491" transform="translate(16.542 66.267)"/>
      <path id="Path_136" data-name="Path 136" class="cls-2" d="M6.072,25.014a.734.734,0,0,1-.356-1.394l2.521-1.246a.712.712,0,0,1,.979.326.682.682,0,0,1-.326.979L6.4,24.955A.682.682,0,0,1,6.072,25.014Z" transform="translate(10.47 43.239)"/>
      <line id="Line_31" data-name="Line 31" class="cls-4" y1="1.839" x2="2.135" transform="translate(28.522 32.787)"/>
      <path id="Path_137" data-name="Path 137" class="cls-2" d="M10.132,14.4a.741.741,0,0,1-.563-.356.712.712,0,0,1,0-1.038l2.105-1.839a.741.741,0,0,1,1.038,0,.771.771,0,0,1,0,1.068l-2.135,1.839A.682.682,0,0,1,10.132,14.4Z" transform="translate(18.39 20.964)"/>
      <line id="Line_32" data-name="Line 32" class="cls-4" x2="2.521" y2="1.275" transform="translate(38.842 24.602)"/>
      <path id="Path_138" data-name="Path 138" class="cls-2" d="M16.141,11.037h-.356L13.354,9.673a.741.741,0,1,1,.652-1.3l2.521,1.275a.741.741,0,0,1-.326,1.394Z" transform="translate(25.221 15.581)"/>
      <line id="Line_33" data-name="Line 33" class="cls-4" x1="0.593" y2="2.728" transform="translate(47.383 28.368)"/>
      <path id="Path_139" data-name="Path 139" class="cls-2" d="M16.5,13.721h-.148a.8.8,0,0,1-.593-.89l.623-2.728a.742.742,0,0,1,1.453.3l-.623,2.758a.741.741,0,0,1-.712.563Z" transform="translate(30.975 18.117)"/>
      <line id="Line_34" data-name="Line 34" class="cls-4" x1="0.593" y2="2.728" transform="translate(16.542 42.247)"/>
      <path id="Path_140" data-name="Path 140" class="cls-2" d="M6.054,18.394H5.906a.741.741,0,0,1-.563-.89l.593-2.728a.741.741,0,0,1,.89-.563.712.712,0,0,1,.563.86L6.766,17.83a.712.712,0,0,1-.712.563Z" transform="translate(10.487 27.322)"/>
      <line id="Line_35" data-name="Line 35" class="cls-4" x1="1.127" y2="2.58" transform="translate(22.65 34.091)"/>
      <path id="Path_141" data-name="Path 141" class="cls-2" d="M8.117,15.436a.534.534,0,0,1-.3,0,.741.741,0,0,1-.386-.949l1.127-2.58a.744.744,0,1,1,1.364.593L8.8,15.05a.712.712,0,0,1-.682.386Z" transform="translate(14.534 21.947)"/>
      <line id="Line_36" data-name="Line 36" class="cls-4" x2="2.699" y2="0.682" transform="translate(39.228 45.627)"/>
      <path id="Path_142" data-name="Path 142" class="cls-2" d="M16.424,17.489h-.178l-2.728-.712a.741.741,0,0,1-.534-.89.771.771,0,0,1,.919-.534l2.728.682a.771.771,0,0,1,.534.919A.741.741,0,0,1,16.424,17.489Z" transform="translate(25.503 29.561)"/>
      <line id="Line_37" data-name="Line 37" class="cls-4" x2="2.728" y2="0.682" transform="translate(21.909 41.802)"/>
      <path id="Path_143" data-name="Path 143" class="cls-2" d="M10.594,16.183h-.178L7.687,15.5a.741.741,0,0,1-.534-.89.712.712,0,0,1,.89-.534l2.728.682a.721.721,0,0,1-.178,1.423Z" transform="translate(14.044 27.042)"/>
      <line id="Line_38" data-name="Line 38" class="cls-4" x1="0.148" y2="2.817" transform="translate(46.849 48.088)"/>
      <path id="Path_144" data-name="Path 144" class="cls-2" d="M16.262,20.558h0a.741.741,0,0,1-.712-.771V16.822a.83.83,0,0,1,.8-.712.741.741,0,0,1,.682.771V19.7a.771.771,0,0,1-.771.86Z" transform="translate(30.587 31.089)"/>
      <line id="Line_39" data-name="Line 39" class="cls-4" x1="0.119" y2="2.788" transform="translate(23.155 47.258)"/>
      <path id="Path_145" data-name="Path 145" class="cls-2" d="M8.273,20.15h0a.712.712,0,0,1-.712-.771V16.592a.771.771,0,0,1,.771-.712.712.712,0,0,1,.712.771v2.788a.741.741,0,0,1-.771.712Z" transform="translate(14.881 30.637)"/>
      <line id="Line_40" data-name="Line 40" class="cls-4" x1="1.512" y2="2.372" transform="translate(40.592 52.181)"/>
      <path id="Path_146" data-name="Path 146" class="cls-2" d="M14.177,21.463a.744.744,0,0,1-.623-1.157L15.1,17.964a.741.741,0,1,1,1.216.8L14.77,21.107a.652.652,0,0,1-.593.356Z" transform="translate(26.415 33.831)"/>
      <line id="Line_41" data-name="Line 41" class="cls-4" x1="1.542" y2="2.343" transform="translate(24.341 57.815)"/>
      <path id="Path_147" data-name="Path 147" class="cls-2" d="M8.727,23.271a.682.682,0,0,1-.415,0,.741.741,0,0,1-.178-1.157l1.542-2.343a.712.712,0,0,1,1.008-.208.771.771,0,0,1,.237,1.038L9.38,22.944a.771.771,0,0,1-.652.326Z" transform="translate(15.614 37.629)"/>
      <line id="Line_42" data-name="Line 42" class="cls-4" x1="2.817" y2="0.267" transform="translate(39.168 60.544)"/>
      <path id="Path_148" data-name="Path 148" class="cls-2" d="M13.693,22.162a.8.8,0,0,1-.741-.682.741.741,0,0,1,.682-.8l2.788-.267A.745.745,0,0,1,16.57,21.9l-2.788.267Z" transform="translate(25.475 39.538)"/>
      <line id="Line_43" data-name="Line 43" class="cls-4" x1="2.788" y2="0.237" transform="translate(28.196 46.962)"/>
      <path id="Path_149" data-name="Path 149" class="cls-2" d="M9.993,17.5A.744.744,0,0,1,9.9,16.021l2.817-.237a.712.712,0,0,1,.8.652.771.771,0,0,1-.682.83l-2.788.237Z" transform="translate(18.203 30.436)"/>
      <line id="Line_44" data-name="Line 44" class="cls-4" x1="2.758" y1="0.474" transform="translate(27.721 71.605)"/>
      <path id="Path_150" data-name="Path 150" class="cls-2" d="M12.518,26.03h0L9.76,25.585a.741.741,0,0,1-.623-.86A.8.8,0,0,1,10,24.1l2.758.474a.741.741,0,0,1,.623.86A.771.771,0,0,1,12.518,26.03Z" transform="translate(17.962 46.79)"/>
      <line id="Line_45" data-name="Line 45" class="cls-4" x1="2.521" y2="1.186" transform="translate(44.595 63.034)"/>
      <path id="Path_151" data-name="Path 151" class="cls-2" d="M15.439,23.756a.712.712,0,0,1-.593-.3.771.771,0,0,1,.356-1.008l2.55-1.157a.741.741,0,0,1,.623,1.334l-2.55,1.186Z" transform="translate(29.067 41.206)"/>
      <line id="Line_46" data-name="Line 46" class="cls-4" x1="2.55" y2="1.186" transform="translate(28.315 62.441)"/>
      <path id="Path_152" data-name="Path 152" class="cls-2" d="M10.038,23.661a.712.712,0,0,1-.682-.415.771.771,0,0,1,.356-1.008l2.55-1.157a.736.736,0,1,1,.623,1.334L10.335,23.6Z" transform="translate(18.277 40.707)"/>
      <line id="Line_47" data-name="Line 47" class="cls-4" x1="1.216" y1="2.521" transform="translate(39.494 68.105)"/>
      <path id="Path_153" data-name="Path 153" class="cls-2" d="M15.024,26.926a.8.8,0,0,1-.682-.415L13.126,23.99a.771.771,0,0,1,.356-1.008.712.712,0,0,1,.979.356l1.216,2.521a.771.771,0,0,1-.326,1.008Z" transform="translate(25.686 44.442)"/>
      <line id="Line_48" data-name="Line 48" class="cls-4" y1="2.105" x2="1.898" transform="translate(15.889 49.008)"/>
      <path id="Path_154" data-name="Path 154" class="cls-2" d="M5.813,20.051a.771.771,0,0,1-.474-.208.712.712,0,0,1,0-1.038L7.207,16.7a.741.741,0,0,1,1.068,0,.712.712,0,0,1,0,1.038L6.406,19.814A.741.741,0,0,1,5.813,20.051Z" transform="translate(10.076 31.803)"/>
      <line id="Line_49" data-name="Line 49" class="cls-4" x1="1.038" y2="2.61" transform="translate(29.441 80.768)"/>
      <path id="Path_155" data-name="Path 155" class="cls-2" d="M10.41,31.232h-.267a.712.712,0,0,1-.415-.949l1.038-2.61a.746.746,0,0,1,1.394.534l-1.038,2.61a.771.771,0,0,1-.712.415Z" transform="translate(19.032 52.887)"/>
      <line id="Line_50" data-name="Line 50" class="cls-4" x1="2.788" y1="0.089" transform="translate(17.253 55.206)"/>
      <path id="Path_156" data-name="Path 156" class="cls-2" d="M9.089,20.073H6.3a.741.741,0,1,1,0-1.483H9.267a.741.741,0,0,1,.712.771.712.712,0,0,1-.89.712Z" transform="translate(10.952 35.963)"/>
      <line id="Line_51" data-name="Line 51" class="cls-4" x2="1.868" y2="2.076" transform="translate(44.921 55.265)"/>
      <path id="Path_157" data-name="Path 157" class="cls-2" d="M17.454,22.176a.741.741,0,0,1-.534-.237l-1.75-2.076a.741.741,0,1,1,1.1-.979l1.9,2.076a.771.771,0,0,1,0,1.068.8.8,0,0,1-.712.148Z" transform="translate(29.336 35.906)"/>
      <line id="Line_52" data-name="Line 52" class="cls-4" x2="1.898" y2="2.076" transform="translate(15.889 75.875)"/>
      <path id="Path_158" data-name="Path 158" class="cls-2" d="M7.761,29.111a.8.8,0,0,1-.563-.237L5.329,26.768a.712.712,0,0,1,0-1.038.741.741,0,0,1,1.038,0l1.868,2.076a.741.741,0,0,1,0,1.068.8.8,0,0,1-.474.237Z" transform="translate(10.056 49.581)"/>
      <line id="Line_53" data-name="Line 53" class="cls-4" x2="1.868" y2="2.076" transform="translate(28.166 52.329)"/>
      <path id="Path_159" data-name="Path 159" class="cls-2" d="M11.817,21.111a.741.741,0,0,1-.534-.237l-1.9-2.105a.741.741,0,0,1,1.1-.979l1.9,2.105a.741.741,0,0,1,0,1.038.8.8,0,0,1-.563.178Z" transform="translate(18.217 34.035)"/>
      <line id="Line_54" data-name="Line 54" class="cls-4" y1="0.623" x2="2.758" transform="translate(33.415 14.43)"/>
      <path id="Path_160" data-name="Path 160" class="cls-2" d="M11.744,6.908A.751.751,0,0,1,11.6,5.425l2.728-.593a.745.745,0,0,1,.326,1.453l-2.728.593Z" transform="translate(21.671 8.887)"/>
      <line id="Line_55" data-name="Line 55" class="cls-4" y1="0.593" x2="2.728" transform="translate(15.474 36.197)"/>
      <path id="Path_161" data-name="Path 161" class="cls-2" d="M5.631,14.219a.741.741,0,0,1-.623-.563.771.771,0,0,1,.593-.89l2.728-.593a.741.741,0,0,1,.89.563.771.771,0,0,1-.563.89L5.9,14.219Z" transform="translate(9.843 23.313)"/>
      <line id="Line_56" data-name="Line 56" class="cls-4" y1="0.593" x2="2.728" transform="translate(24.341 28.576)"/>
      <path id="Path_162" data-name="Path 162" class="cls-2" d="M8.606,11.665a.712.712,0,0,1-.593-.563.741.741,0,0,1,.563-.89L11.3,9.589a.771.771,0,0,1,.89.563.741.741,0,0,1-.563.89l-2.758.623Z" transform="translate(15.735 18.245)"/>
      <line id="Line_57" data-name="Line 57" class="cls-4" x2="2.58" y2="1.068" transform="translate(44.565 36.493)"/>
      <path id="Path_163" data-name="Path 163" class="cls-2" d="M18.1,14.753a.445.445,0,0,1-.267,0l-2.61-1.068a.682.682,0,0,1-.386-.949.741.741,0,0,1,.949-.415l2.61,1.068a.741.741,0,0,1,.415.979A.83.83,0,0,1,18.1,14.753Z" transform="translate(29.046 23.549)"/>
      <line id="Line_58" data-name="Line 58" class="cls-4" x2="2.58" y2="1.068" transform="translate(15.86 59.624)"/>
      <path id="Path_164" data-name="Path 164" class="cls-2" d="M8.423,22.554a.445.445,0,0,1-.267,0l-2.61-1.068a.741.741,0,0,1-.415-.949.771.771,0,0,1,.979-.415L8.72,21.19a.7.7,0,0,1-.3,1.364Z" transform="translate(10.016 38.879)"/>
      <line id="Line_59" data-name="Line 59" class="cls-4" x1="0.979" y1="2.639" transform="translate(40.651 14.757)"/>
      <path id="Path_165" data-name="Path 165" class="cls-2" d="M15.13,9.047a.771.771,0,0,1-.712-.5L13.469,5.9a.741.741,0,0,1,.445-.949.771.771,0,0,1,.949.445l.949,2.639a.712.712,0,0,1-.445.949Z" transform="translate(26.411 9.091)"/>
      <line id="Line_60" data-name="Line 60" class="cls-4" x1="0.949" y1="2.639" transform="translate(19.566 28.635)"/>
      <path id="Path_166" data-name="Path 166" class="cls-2" d="M8.04,13.751a.682.682,0,0,1-.682-.5l-.979-2.639A.755.755,0,0,1,7.8,10.1l.949,2.639a.712.712,0,0,1-.445,1.008Z" transform="translate(12.476 18.294)"/>
      <line id="Line_61" data-name="Line 61" class="cls-4" x1="0.949" y1="2.639" transform="translate(39.613 37.858)"/>
      <path id="Path_167" data-name="Path 167" class="cls-2" d="M14.785,16.835a.741.741,0,0,1-.682-.474l-.949-2.639a.741.741,0,1,1,1.394-.5l.949,2.639a.741.741,0,0,1-.445.949Z" transform="translate(25.777 24.403)"/>
      <line id="Line_62" data-name="Line 62" class="cls-4" x1="0.949" y1="2.639" transform="translate(23.866 66.208)"/>
      <path id="Path_168" data-name="Path 168" class="cls-2" d="M9.477,26.4a.712.712,0,0,1-.682-.474l-.979-2.669a.817.817,0,0,1,1.542-.5l.979,2.669a.771.771,0,0,1-.445.949Z" transform="translate(15.338 43.192)"/>
      <line id="Line_63" data-name="Line 63" class="cls-4" x1="0.949" y1="2.639" transform="translate(29.115 39.192)"/>
      <path id="Path_169" data-name="Path 169" class="cls-2" d="M11.26,17.287a.741.741,0,0,1-.712-.5L9.6,14.143a.741.741,0,0,1,.445-.949.771.771,0,0,1,.949.445l.949,2.639a.771.771,0,0,1-.445.979Z" transform="translate(18.804 25.286)"/>
      <line id="Line_64" data-name="Line 64" class="cls-4" x1="2.758" y2="0.386" transform="translate(45.87 12.651)"/>
      <path id="Path_170" data-name="Path 170" class="cls-2" d="M15.951,6.085a.741.741,0,1,1,0-1.483l2.788-.386a.712.712,0,0,1,.83.623.741.741,0,0,1-.623.83l-2.788.415Z" transform="translate(29.919 7.693)"/>
      <line id="Line_65" data-name="Line 65" class="cls-4" x1="2.788" y2="0.415" transform="translate(23.718 77.358)"/>
      <path id="Path_171" data-name="Path 171" class="cls-2" d="M8.491,28a.741.741,0,1,1,0-1.483l2.639-.5a.682.682,0,0,1,.83.623.712.712,0,0,1-.623.83l-2.847.5Z" transform="translate(15.256 50.516)"/>
      <line id="Line_66" data-name="Line 66" class="cls-4" x1="2.788" y2="0.386" transform="translate(38.961 30.918)"/>
      <path id="Path_172" data-name="Path 172" class="cls-2" d="M13.609,12.243a.746.746,0,0,1-.089-1.483l2.788-.386a.741.741,0,0,1,.83.623.712.712,0,0,1-.623.83l-2.788.415Z" transform="translate(25.352 19.803)"/>
      <path id="Path_173" data-name="Path 173" class="cls-5" d="M5.917,67.932H51.912L56.479,31.99H1.38Z" transform="translate(2.736 62.301)"/>
      <path id="Path_174" data-name="Path 174" class="cls-2" d="M52.409,69.2H6.414a.771.771,0,0,1-.741-.623L1.136,32.551a.652.652,0,0,1,.178-.563.682.682,0,0,1,.563-.267H57.094a.741.741,0,0,1,.563.267.919.919,0,0,1,.178.563L53.15,68.581A.741.741,0,0,1,52.409,69.2ZM7.067,67.721h44.69l4.359-34.459H2.737Z" transform="translate(2.239 61.77)"/>
      <path id="Path_175" data-name="Path 175" class="cls-4" d="M.9,30.18a2.461,2.461,0,0,1,1.9-.89h56.67a2.521,2.521,0,0,1,1.928.89,2.7,2.7,0,0,1,.623,2.046L60.533,43.791a2.55,2.55,0,0,1-2.521,2.254H4.278a2.58,2.58,0,0,1-2.55-2.254L.275,32.226A2.58,2.58,0,0,1,.9,30.18Z" transform="translate(0.52 56.994)"/>
      <path id="Path_176" data-name="Path 176" class="cls-2" d="M58.525,47.356H4.79A3.321,3.321,0,0,1,1.5,44.391L.016,32.885a3.44,3.44,0,0,1,.8-2.639h0A3.262,3.262,0,0,1,3.308,29h56.67a3.321,3.321,0,0,1,2.491,1.127,3.44,3.44,0,0,1,.8,2.639L61.787,44.331A3.292,3.292,0,0,1,58.525,47.356ZM1.943,31.224A2.017,2.017,0,0,0,1.5,32.677l1.483,11.6a1.839,1.839,0,0,0,1.809,1.6H58.525a1.809,1.809,0,0,0,1.779-1.6l1.483-11.6a1.9,1.9,0,0,0-.445-1.453,1.839,1.839,0,0,0-1.364-.623H3.308a1.9,1.9,0,0,0-1.364.623Z" transform="translate(0.008 56.424)"/>
      <path id="Path_177" data-name="Path 177" class="cls-6" d="M2.663,43.468a.593.593,0,0,1,.474-.208H50.288a.593.593,0,0,1,.474.208.741.741,0,0,1,0,.5l-.356,2.788a.652.652,0,0,1-.623.563H3.493a.623.623,0,0,1-.623-.563l-.356-2.788A.623.623,0,0,1,2.663,43.468Z" transform="translate(4.953 84.451)"/>
      <path id="Path_178" data-name="Path 178" class="cls-2" d="M50.428,48.575H3.959a1.394,1.394,0,0,1-1.334-1.216l-.356-2.788A1.3,1.3,0,0,1,2.6,43.5,1.275,1.275,0,0,1,3.633,43H50.784a1.424,1.424,0,0,1,1.038.474,1.334,1.334,0,0,1,.3,1.068l-.356,2.788A1.364,1.364,0,0,1,50.428,48.575ZM3.752,44.513l.356,2.669H50.428l.237-2.728H21.6ZM3.159,43.979Z" transform="translate(4.457 83.94)"/>
      <path id="Path_179" data-name="Path 179" class="cls-3" d="M19.865,28.536c1.987,2.55,7.354,5.219,10.705,2.965s2.7-6.91.712-9.46a6.583,6.583,0,0,0-8.9-1.186C18.916,23.11,17.907,26.016,19.865,28.536Z" transform="translate(37.126 38.027)"/>
      <path id="Path_180" data-name="Path 180" class="cls-2" d="M28.216,33.6a11.862,11.862,0,0,1-8.452-4.122h0a5.012,5.012,0,0,1-1.1-3.944,7.384,7.384,0,0,1,3.677-4.745,7.3,7.3,0,0,1,9.994,1.364,8.9,8.9,0,0,1,1.69,6.554,5.694,5.694,0,0,1-2.4,3.974A5.931,5.931,0,0,1,28.216,33.6ZM20.98,28.561c1.9,2.432,6.821,4.745,9.727,2.965a4.3,4.3,0,0,0,1.928-2.965,7.384,7.384,0,0,0-1.423-5.427A5.931,5.931,0,0,0,23.2,22.126a5.931,5.931,0,0,0-2.965,3.736,3.47,3.47,0,0,0,.8,2.788Z" transform="translate(36.604 37.557)"/>
      <path id="Path_181" data-name="Path 181" class="cls-3" d="M14.738,32.709c1.69,3.47,6.85,8.007,10.616,6.524s3.648-7.058,1.928-10.5a7.206,7.206,0,0,0-9.1-3.944,5.368,5.368,0,0,0-3.44,7.918Z" transform="translate(27.574 47.288)"/>
      <path id="Path_182" data-name="Path 182" class="cls-2" d="M24.274,40.776c-3.8,0-8.066-3.885-9.727-7.206A6.316,6.316,0,0,1,14.1,28.5a7.147,7.147,0,0,1,4.3-3.885,7.829,7.829,0,0,1,10.023,4.3,11.061,11.061,0,0,1,.682,8.363,5.16,5.16,0,0,1-2.965,3.143,4.952,4.952,0,0,1-1.868.356ZM21.308,25.563a6.109,6.109,0,0,0-2.254.445,5.634,5.634,0,0,0-3.44,2.965A4.745,4.745,0,0,0,16,32.828h0c1.661,3.381,6.494,7.414,9.667,6.168a3.944,3.944,0,0,0,2.194-2.313,9.756,9.756,0,0,0-.623-7.176,6.732,6.732,0,0,0-6.05-3.944Z" transform="translate(27.083 46.783)"/>
      <path id="Path_183" data-name="Path 183" class="cls-3" d="M22.3,27.747c-2.165,4.715-2.58,13.285,2.076,14.827S34.758,38.72,36.923,34s1.127-9.578-3.559-11.121A8.452,8.452,0,0,0,22.3,27.747Z" transform="translate(40.797 43.205)"/>
      <path id="Path_184" data-name="Path 184" class="cls-2" d="M26.635,44.2a5.694,5.694,0,0,1-1.987-.326,5.486,5.486,0,0,1-3.292-3.262,17.793,17.793,0,0,1,.652-12.692,9.163,9.163,0,0,1,12.01-5.249,7.384,7.384,0,0,1,4.6,4.063,10.29,10.29,0,0,1-.5,8.155C36.183,39.1,31.29,44.2,26.635,44.2Zm3.914-20.758a7.71,7.71,0,0,0-7.087,5.012,16.34,16.34,0,0,0-.741,11.476,4.122,4.122,0,0,0,2.4,2.432c4.211,1.453,9.608-3.8,11.625-8.185a8.9,8.9,0,0,0,.5-7,5.931,5.931,0,0,0-3.588-3.2,9.816,9.816,0,0,0-3.114-.415Z" transform="translate(40.29 42.673)"/>
      <path id="Path_185" data-name="Path 185" class="cls-3" d="M16.77,36.719c0,6.2,4.478,16.1,11.447,16.1S39.308,44.37,39.308,38.172A10.765,10.765,0,0,0,28.217,26.844C21.248,26.844,16.77,30.521,16.77,36.719Z" transform="translate(32.985 52.175)"/>
      <path id="Path_186" data-name="Path 186" class="cls-2" d="M28.708,54.056c-7.325,0-12.188-10.142-12.188-16.844S21.176,26.6,28.708,26.6A11.447,11.447,0,0,1,40.57,38.665C40.57,44.952,36.329,54.056,28.708,54.056Zm0-25.978c-6.7,0-10.705,3.44-10.705,9.134,0,6.2,4.478,15.361,10.705,15.361s10.379-8.1,10.379-13.908A10.023,10.023,0,0,0,28.708,28.078Z" transform="translate(32.494 51.682)"/>
      <circle id="Ellipse_26" data-name="Ellipse 26" class="cls-2" cx="0.771" cy="0.771" r="0.771" transform="translate(62.803 60.306)"/>
      <circle id="Ellipse_27" data-name="Ellipse 27" class="cls-2" cx="0.771" cy="0.771" r="0.771" transform="translate(60.342 63.123)"/>
      <circle id="Ellipse_28" data-name="Ellipse 28" class="cls-2" cx="0.771" cy="0.771" r="0.771" transform="translate(63.366 63.687)"/>
      <circle id="Ellipse_29" data-name="Ellipse 29" class="cls-2" cx="0.771" cy="0.771" r="0.771" transform="translate(69.92 72.524)"/>
      <circle id="Ellipse_30" data-name="Ellipse 30" class="cls-2" cx="0.771" cy="0.771" r="0.771" transform="translate(65.887 87.767)"/>
      <circle id="Ellipse_31" data-name="Ellipse 31" class="cls-2" cx="0.771" cy="0.771" r="0.771" transform="translate(67.073 92.007)"/>
      <circle id="Ellipse_32" data-name="Ellipse 32" class="cls-2" cx="0.771" cy="0.771" r="0.771" transform="translate(61.676 89.842)"/>
      <circle id="Ellipse_33" data-name="Ellipse 33" class="cls-2" cx="0.771" cy="0.771" r="0.771" transform="translate(59.689 84.801)"/>
      <circle id="Ellipse_34" data-name="Ellipse 34" class="cls-2" cx="0.771" cy="0.771" r="0.771" transform="translate(54.174 89.457)"/>
      <circle id="Ellipse_35" data-name="Ellipse 35" class="cls-2" cx="0.771" cy="0.771" r="0.771" transform="translate(54.796 83.704)"/>
      <circle id="Ellipse_36" data-name="Ellipse 36" class="cls-2" cx="0.771" cy="0.771" r="0.771" transform="translate(64.345 82.933)"/>
      <circle id="Ellipse_37" data-name="Ellipse 37" class="cls-2" cx="0.771" cy="0.771" r="0.771" transform="translate(49.874 76.527)"/>
      <circle id="Ellipse_38" data-name="Ellipse 38" class="cls-2" cx="0.771" cy="0.771" r="0.771" transform="translate(45.989 77.892)"/>
      <circle id="Ellipse_39" data-name="Ellipse 39" class="cls-2" cx="0.771" cy="0.771" r="0.771" transform="translate(69.92 68.876)"/>
      <circle id="Ellipse_40" data-name="Ellipse 40" class="cls-2" cx="0.771" cy="0.771" r="0.771" transform="translate(74.131 71.545)"/>
      <circle id="Ellipse_41" data-name="Ellipse 41" class="cls-2" cx="0.771" cy="0.771" r="0.771" transform="translate(72.737 76.735)"/>
      <circle id="Ellipse_42" data-name="Ellipse 42" class="cls-2" cx="0.771" cy="0.771" r="0.771" transform="translate(65.68 71.753)"/>
      <path id="Path_187" data-name="Path 187" class="cls-7" d="M17.941,35.373a2.966,2.966,0,0,1,1.157.237,4.211,4.211,0,0,1,3.766-2.372,4.122,4.122,0,0,1,2.965,1.334,3.114,3.114,0,0,1,4.3-.8,2.965,2.965,0,0,1,5.308.5,3.143,3.143,0,0,1,1.868-.623,2.965,2.965,0,0,1,2.788,1.75,4.389,4.389,0,0,1,2.283-.682,4.241,4.241,0,0,1,0,8.452c-2.046,0-3.736,1.453-4.122-.474a2.58,2.58,0,0,1-.949.178,3.262,3.262,0,0,1-2.965-1.483,3.143,3.143,0,0,1-3.588,0,3.173,3.173,0,0,1-2.343,1.068,2.788,2.788,0,0,1-1.542-.682c-.623,1.542-2.135-.267-3.914-.267a4.122,4.122,0,0,1-2.639-.979,3.232,3.232,0,0,1-2.283.979,3.173,3.173,0,0,1,0-6.316Z" transform="translate(29.827 63.01)"/>
      <path id="Path_188" data-name="Path 188" class="cls-2" d="M39.776,44.752a1.631,1.631,0,0,1-.919-.237,1.423,1.423,0,0,1-.563-.623,4.152,4.152,0,0,1-3.588-1.216,3.8,3.8,0,0,1-3.262,0,3.559,3.559,0,0,1-3.8.5l-.445.237a2.669,2.669,0,0,1-2.046-.3,4.24,4.24,0,0,0-1.661-.474,4.863,4.863,0,0,1-2.61-.771,3.737,3.737,0,0,1-2.313.771,3.885,3.885,0,1,1,.8-7.71A5.012,5.012,0,0,1,23.5,32.712a4.923,4.923,0,0,1,2.965,1.008,4.033,4.033,0,0,1,4.241-.652,3.974,3.974,0,0,1,5.427.5A3.885,3.885,0,0,1,40.814,34.7a4.864,4.864,0,0,1,2.017-.445,4.982,4.982,0,0,1,0,9.934,6.731,6.731,0,0,0-1.72.3A5.931,5.931,0,0,1,39.776,44.752Zm-1.008-2.491a.831.831,0,0,1,.356,0,.652.652,0,0,1,.356.474c0,.267,0,.386.148.386a2.669,2.669,0,0,0,1.157-.178,8.718,8.718,0,0,1,2.105-.326,3.485,3.485,0,1,0-1.868-6.405.712.712,0,0,1-.593,0,.771.771,0,0,1-.474-.386,2.432,2.432,0,0,0-3.559-.86.712.712,0,0,1-.593,0,.771.771,0,0,1-.5-.356,2.461,2.461,0,0,0-3.885-.089.741.741,0,0,1-.949,0,2.432,2.432,0,0,0-3.262.593.712.712,0,0,1-.563.3.652.652,0,0,1-.593-.208,3.351,3.351,0,0,0-2.521-1.1,3.41,3.41,0,0,0-2.965,1.957.741.741,0,0,1-.949.356,2.4,2.4,0,1,0-.89,4.656,2.461,2.461,0,0,0,1.75-.741.741.741,0,0,1,.8.119,3.47,3.47,0,0,0,2.194.8,5.456,5.456,0,0,1,2.224.593l.919.3a.741.741,0,0,1,1.1-.356h.237c.386.267.593.415.89.415a2.343,2.343,0,0,0,1.779-.83.771.771,0,0,1,.979,0,2.4,2.4,0,0,0,2.728,0,.83.83,0,0,1,.593,0,.89.89,0,0,1,.5.356,2.491,2.491,0,0,0,2.254,1.1,3.56,3.56,0,0,0,.712,0Z" transform="translate(29.165 62.765)"/>
      <path id="Path_189" data-name="Path 189" class="cls-8" d="M18.274,60.436H42.858L45.942,36.06H15.19Z" transform="translate(29.879 70.3)"/>
      <path id="Path_190" data-name="Path 190" class="cls-2" d="M43.275,61.669H18.692a.771.771,0,0,1-.741-.652L14.985,36.64a.741.741,0,0,1,.178-.593.8.8,0,0,1,.563-.237H46.359a.771.771,0,0,1,.563.237.741.741,0,0,1,.178.593L44.135,61.017a.741.741,0,0,1-.86.652ZM19.344,60.1H42.623L45.588,37.2H16.438Z" transform="translate(29.462 69.809)"/>
      <path id="Path_191" data-name="Path 191" class="cls-4" d="M14.853,34.823a1.69,1.69,0,0,1,1.3-.593h31.82a1.69,1.69,0,0,1,1.3.593,1.779,1.779,0,0,1,.415,1.364l-.949,7.859a1.75,1.75,0,0,1-1.72,1.542H17.166a1.72,1.72,0,0,1-1.72-1.542l-1.008-7.859a1.779,1.779,0,0,1,.415-1.364Z" transform="translate(28.378 66.703)"/>
      <path id="Path_192" data-name="Path 192" class="cls-2" d="M47.493,46.781H17.661A2.491,2.491,0,0,1,15.2,44.587l-1.008-7.858a2.58,2.58,0,0,1,.593-1.957A2.491,2.491,0,0,1,16.623,34H48.472a2.491,2.491,0,0,1,1.868.83,2.55,2.55,0,0,1,.593,1.957l-1.008,7.859A2.461,2.461,0,0,1,47.493,46.781ZM16.623,35.424a1.008,1.008,0,0,0-.741.326,1.127,1.127,0,0,0-.237.8l.979,7.859a1.038,1.038,0,0,0,1.008.89H47.493a1.008,1.008,0,0,0,.979-.89l.979-7.859a.89.89,0,0,0-.237-.8.979.979,0,0,0-.741-.326Z" transform="translate(27.883 66.251)"/>
      <path id="Path_193" data-name="Path 193" class="cls-8" d="M16.029,43.772a.474.474,0,0,1,.326,0H41.71a.415.415,0,0,1,.326,0,.445.445,0,0,1,0,.326L41.769,46a.415.415,0,0,1-.415.386H16.563A.445.445,0,0,1,16.029,46V44.1A.326.326,0,0,1,16.029,43.772Z" transform="translate(31.443 85.392)"/>
      <path id="Path_194" data-name="Path 194" class="cls-2" d="M41.988,47.691H17.108a1.157,1.157,0,0,1-1.157-1.038l-.237-1.9a1.3,1.3,0,0,1,.267-.919,1.245,1.245,0,0,1,.89-.386H42.225a1.186,1.186,0,0,1,.89.386,1.157,1.157,0,0,1,.267.919l-.237,1.9a1.157,1.157,0,0,1-1.157,1.038ZM41.691,46.475ZM17.434,46.475Zm0-.267H41.751l.148-1.275H17.226Zm-.86-1.868Z" transform="translate(30.898 84.825)"/>
    </g>
  </g>
</svg>
