<svg xmlns="http://www.w3.org/2000/svg" viewBox="0 0 23 21.702">
  <g id="Symbol_11_1" data-name="Symbol 11 – 1" transform="translate(-704 -641)">
    <path id="Path_700" data-name="Path 700" class="cls-1" d="M8.8,3.721H8.756V1.032A.418.418,0,0,0,8.71.8V.754c0-.046-.046-.093-.093-.139A.045.045,0,0,0,8.57.568L8.431.429h0A.394.394,0,0,0,8.2.29a.923.923,0,0,0-.974.093L.271,6.5a.927.927,0,0,0,0,1.484l6.955,6.12a.891.891,0,0,0,.556.185h0a.279.279,0,0,0,.185-.046c.046,0,.139-.046.185-.046a.876.876,0,0,0,.51-.835V10.537c5.657.371,9.737,2.782,9.737,5.749,0,1.762-1.437,3.431-3.895,4.59a.6.6,0,0,0-.278.7.558.558,0,0,0,.464.325.279.279,0,0,0,.185-.046C19.93,20.042,22.9,16.936,22.9,13.5,23.037,8.636,17.056,4.556,8.8,3.721Z" transform="translate(704.1 640.805)"/>
  </g>
</svg>
