<svg xmlns="http://www.w3.org/2000/svg" viewBox="3047 -2882 143.686 147.211">
  <defs>
    <style>
      .cls-1 {
        fill: #004b51;
      }

      .cls-2 {
        fill: #1f2740;
      }

      .cls-3 {
        fill: #008c8c;
      }

      .cls-4 {
        fill: #015555;
      }

      .cls-5 {
        fill: #fff;
      }
    </style>
  </defs>
  <g id="Layer_1" data-name="Layer 1" transform="translate(3047 -2882)">
    <path id="Path_237" data-name="Path 237" class="cls-1" d="M60.944,2.671A20.9,20.9,0,0,0,50.283.263c-4.078.289-8.06,1.028-12.17.931S30.021.552,25.911.263A20.9,20.9,0,0,0,15.25,2.671V32.213H60.944Z" transform="translate(33.725 0.585)"/>
    <path id="Path_238" data-name="Path 238" class="cls-2" d="M61.453,33.538H15.759a.739.739,0,0,1-.739-.739V3.225a.739.739,0,0,1,.417-.674A21.29,21.29,0,0,1,26.484.014c1.381,0,2.729.257,4.11.385a55.134,55.134,0,0,0,8,.546A60.3,60.3,0,0,0,46.65.464c1.349,0,2.7-.289,4.078-.385A21.225,21.225,0,0,1,61.774,2.487a.739.739,0,0,1,.417.674V32.8a.739.739,0,0,1-.739.739ZM16.5,32.029H60.714V3.643a19.845,19.845,0,0,0-9.858-2.087c-1.381,0-2.7.257-4.046.385a57.8,57.8,0,0,1-8.22.546A57.512,57.512,0,0,1,30.4,1.941c-1.317-.128-2.6-.289-4.014-.385A20.005,20.005,0,0,0,16.5,3.643Z" transform="translate(33.216 0.031)"/>
    <path id="Path_239" data-name="Path 239" class="cls-3" d="M114.706,68.949a101.022,101.022,0,0,0,27.68-15.7l-2.344-3.95h0L119.459,14.681l-25.3-12.01h0A20.9,20.9,0,0,0,83.494.263c-4.078.289-8.06,1.028-12.17.931S63.232.552,59.122.263A20.9,20.9,0,0,0,48.461,2.671L44.447,4.566h0L23.157,14.681,2.7,49.3h0L.23,53.246a100.8,100.8,0,0,0,27.712,15.7L30.254,65l3.5-5.427A44.956,44.956,0,0,1,35.2,70.586q0,15.8,0,31.629c0,15.124.193,24.34.257,39.465a155.418,155.418,0,0,0,71.9,0v-.289c0-24.469-.385-43,.193-67.433a96.779,96.779,0,0,1,1.124-14.322L112.362,65Z" transform="translate(0.514 0.585)"/>
    <path id="Path_240" data-name="Path 240" class="cls-2" d="M71.836,147.188A157.144,157.144,0,0,1,35.7,142.978a.8.8,0,0,1-.567-.736V71.148a39.882,39.882,0,0,0-1.028-9.12l-2.537,3.95L29.257,69.9a.739.739,0,0,1-.9.321A100.669,100.669,0,0,1,.293,54.386.739.739,0,0,1,.1,53.423L2.38,49.57h0L23.027,14.857a1.381,1.381,0,0,1,.321-.289l25.3-12.074A21.29,21.29,0,0,1,59.7.022c1.381,0,2.729.257,4.078.385A60.563,60.563,0,0,0,71.8.953a51.378,51.378,0,0,0,8.06-.482l4.078-.45A21.226,21.226,0,0,1,94.988,2.43l25.3,12.074a.931.931,0,0,1,.321.289l20.68,34.68,2.28,3.821a.739.739,0,0,1-.161.963A101.632,101.632,0,0,1,115.6,70.217a.706.706,0,0,1-.9-.321l-2.312-3.95-2.6-3.789a102.978,102.978,0,0,0-.931,12.331c-.353,15.028-.289,27.68-.225,41.07v26.684a.739.739,0,0,1-.578.739,157.054,157.054,0,0,1-36.221,4.207Zm-35.322-5.523a155.225,155.225,0,0,0,70.42,0c0-9.344,0-17.854,0-26.106,0-13.39,0-26.074.225-41.1a100.8,100.8,0,0,1,1.22-14.386.8.8,0,0,1,.578-.61.739.739,0,0,1,.771.321l3.693,5.363,2.184,3.468a99.32,99.32,0,0,0,26.4-15l-2.023-3.372h0L119.457,15.821,94.346,3.843a19.748,19.748,0,0,0-10.276-2.28c-1.349,0-2.7.257-4.014.385a58.41,58.41,0,0,1-8.253.546,57.511,57.511,0,0,1-8.188-.546c-1.349,0-2.665-.289-4.014-.385a19.877,19.877,0,0,0-10.308,2.28L24.183,15.821,3.793,50.115h0l-2.087,3.5a99.931,99.931,0,0,0,26.428,15l2.023-3.436,3.5-5.427a.706.706,0,0,1,.739-.353.8.8,0,0,1,.61.578A44.666,44.666,0,0,1,36.45,71.148v51.346c0,6.069.128,11.849.161,19.17Z" transform="translate(0.002 0.023)"/>
    <path id="Path_241" data-name="Path 241" class="cls-2" d="M35.63,32.512a.739.739,0,0,1-.257-1.413A100.861,100.861,0,0,0,62.86,15.493a.706.706,0,0,1,1.028,0,.771.771,0,0,1,0,1.06,102.466,102.466,0,0,1-27.9,15.831Z" transform="translate(77.246 33.811)"/>
    <path id="Path_242" data-name="Path 242" class="cls-2" d="M29.117,32.445H28.86A101.631,101.631,0,0,1,.955,16.582a.771.771,0,0,1,0-1.06.706.706,0,0,1,1.028,0,100.861,100.861,0,0,0,27.391,15.51.726.726,0,0,1-.257,1.413Z" transform="translate(1.651 33.878)"/>
    <path id="Path_243" data-name="Path 243" class="cls-2" d="M55.938,145.508A157.144,157.144,0,0,1,19.8,141.3a.8.8,0,0,1-.567-.736V69.469a67.433,67.433,0,0,0-4.656-21.707,120.19,120.19,0,0,1-3.693-12.395c-1.477-6.775-2.729-14.1-3.693-21.707a.771.771,0,0,1,.417-.771L32.754.815a.771.771,0,0,1,1,.353.771.771,0,0,1-.353,1L8.574,14.013c.963,7.386,2.184,14.45,3.629,21.033a119.841,119.841,0,0,0,3.6,12.266,67.819,67.819,0,0,1,4.752,22.157v70.612a155.226,155.226,0,0,0,70.42,0V113.975c0-13.39,0-26.074.225-41.1a87.054,87.054,0,0,1,2.28-19.267,57.8,57.8,0,0,1,3.018-8.381,60.241,60.241,0,0,0,3.211-8.574,224.775,224.775,0,0,0,3.725-22.478L78.448,2.164a.771.771,0,0,1-.353-1,.8.8,0,0,1,1-.353l25.3,12.074a.771.771,0,0,1,.417.771,229.1,229.1,0,0,1-3.821,23.216,57.478,57.478,0,0,1-3.211,8.831,64.025,64.025,0,0,0-2.858,8,87.6,87.6,0,0,0-2.216,19.01c-.353,15.028-.289,27.68-.225,41.07v26.684a.739.739,0,0,1-.578.739,157.055,157.055,0,0,1-35.964,4.3Z" transform="translate(15.9 1.703)"/>
    <path id="Path_244" data-name="Path 244" class="cls-2" d="M35.778,21.927a.739.739,0,0,1-.514,0L21.457,9.34a17.436,17.436,0,0,1-5.106-8.124.706.706,0,0,1,.482-.931.739.739,0,0,1,.931.482,16.056,16.056,0,0,0,4.688,7.418L35.778,20.29,49.072,8.184A15.831,15.831,0,0,0,53.857.766a.739.739,0,0,1,.931-.482.771.771,0,0,1,.514.931,18.046,18.046,0,0,1-5.138,8.092l-13.9,12.62A.706.706,0,0,1,35.778,21.927Z" transform="translate(36.06 0.596)"/>
    <path id="Path_245" data-name="Path 245" class="cls-4" d="M21.32,8.752,35.128,21.339,48.9,8.752h0a16.505,16.505,0,0,0,4.913-7.707A17.822,17.822,0,0,0,47.395.274c-4.078.289-8.06,1.028-12.17.931S27.132.563,23.022.274a17.822,17.822,0,0,0-6.422.771,16.794,16.794,0,0,0,4.913,7.707Z" transform="translate(36.71 0.574)"/>
    <path id="Path_246" data-name="Path 246" class="cls-2" d="M35.79,22.509a.739.739,0,0,1-.514,0L21.468,9.954a17.6,17.6,0,0,1-5.106-8.124.706.706,0,0,1,0-.578A.706.706,0,0,1,16.812.9a18.881,18.881,0,0,1,6.84-.867c1.381,0,2.729.257,4.078.385a60.176,60.176,0,0,0,8.028.546,51.378,51.378,0,0,0,8.06-.482L47.9.031a18.368,18.368,0,0,1,6.808.8.739.739,0,0,1,.417.353.706.706,0,0,1,0,.578,17.6,17.6,0,0,1-5.106,8.06L36.272,22.509A.706.706,0,0,1,35.79,22.509ZM18.032,2.118a16.056,16.056,0,0,0,4.431,6.647h0L35.79,20.871,49.084,8.765a15.8,15.8,0,0,0,4.431-6.647,15.735,15.735,0,0,0-5.491-.546c-1.349,0-2.7.257-4.014.385a58.09,58.09,0,0,1-8.253.546,57.511,57.511,0,0,1-8.188-.546c-1.349,0-2.665-.289-4.014-.385a16.056,16.056,0,0,0-5.523.546Z" transform="translate(36.048 0.014)"/>
    <path id="Path_247" data-name="Path 247" class="cls-2" d="M38.665,27.173a.706.706,0,0,1-.45,0L30.733,20.3c-1.06-1-2.216-1.959-3.211-2.922C22.288,12.98,16.99,8.42,15.031,1.741a.706.706,0,0,1,.482-.931.771.771,0,0,1,.931.482c1.927,6.422,7.064,10.693,12.01,14.964,1.156.963,2.28,1.959,3.372,2.954l6.968,6.422.225-.225v-.161L51.092,14.328A29.767,29.767,0,0,0,61.014,1.484.771.771,0,0,1,61.945,1a.706.706,0,0,1,.482.931,31.34,31.34,0,0,1-10.34,13.615L39.917,26.4C39.275,26.98,38.954,27.173,38.665,27.173Z" transform="translate(33.141 1.773)"/>
    <path id="Path_248" data-name="Path 248" class="cls-5" d="M46.025,11.273H43.777c-.193-.225-.321-2.055-2.216-2.055h-.867A7.578,7.578,0,0,0,39.056,6.81a7.771,7.771,0,0,0-.8,4.785c0,1.927-5.395,3.757-7.546,3.5a2.119,2.119,0,0,1,.417-3.789c-1.188-.674-3.661,1.991-1.734,4.72a7.931,7.931,0,0,0-2.6,4.881h2.569c0-.385-.225-.706-.514-.706a7.032,7.032,0,0,1,4.367-2.28,2.922,2.922,0,0,1,2.858,2.986h2.6c0-.385-.225-.706-.482-.706-.417-1.573,1.381-4.046,2.248-5.2s1.8-.546,2.633-.546a2.794,2.794,0,0,0,2.89-2.5C46.089,11.659,46.153,11.562,46.025,11.273Zm-3.853-.642a.289.289,0,0,1-.289-.289.305.305,0,1,1,.61,0,.289.289,0,0,1-.321.289Z" transform="translate(59.241 15.103)"/>
  </g>
</svg>
