<svg xmlns="http://www.w3.org/2000/svg" viewBox="0 0 22.226 21">
  <path id="Path_721" data-name="Path 721" class="cls-1" d="M22.214,7.964a.669.669,0,0,0-.623-.445l-7.386-.133L11.759.445a.658.658,0,0,0-1.246,0l-2.447,6.9L.68,7.519a.669.669,0,0,0-.623.445A.7.7,0,0,0,.28,8.72l5.917,4.4-2.18,7.03a.613.613,0,0,0,.222.712.6.6,0,0,0,.756,0l6.14-4.182,6.1,4.182a.667.667,0,0,0,.8,0,.633.633,0,0,0,.222-.712l-2.136-6.985,5.917-4.4A.881.881,0,0,0,22.214,7.964Zm-7.3,4.4a.633.633,0,0,0-.222.712l1.691,5.606-4.894-3.381a.6.6,0,0,0-.756,0L5.841,18.686l1.735-5.606a.613.613,0,0,0-.222-.712L2.638,8.809l5.917-.133a.669.669,0,0,0,.623-.445l1.958-5.561,1.958,5.561a.669.669,0,0,0,.623.445l5.917.133Z" transform="translate(-0.023)"/>
</svg>
