<svg class="sd-svg sd-svg--star-x" width="12" height="12" xmlns="http://www.w3.org/2000/svg" viewBox="1014.757 -3124.243 10.486 10.485">
  <path id="Union_3" data-name="Union 3" class="cls-1" d="M-462.808,3442.606l-2.828-2.828a1,1,0,0,1,0-1.415,1,1,0,0,1,1.414,0l2.829,2.829a1,1,0,0,1,0,1.414,1,1,0,0,1-.707.293A1,1,0,0,1-462.808,3442.606Zm-8.485,0a1,1,0,0,1,0-1.414l2.829-2.829a1,1,0,0,1,1.414,0,1,1,0,0,1,0,1.415l-2.828,2.828a1,1,0,0,1-.707.293A1,1,0,0,1-471.293,3442.606Zm5.657-5.656a1,1,0,0,1,0-1.414l2.828-2.829a1,1,0,0,1,1.415,0,1,1,0,0,1,0,1.414l-2.829,2.829a1,1,0,0,1-.707.293A1,1,0,0,1-465.636,3436.95Zm-2.829,0-2.829-2.829a1,1,0,0,1,0-1.414,1,1,0,0,1,1.415,0l2.828,2.829a1,1,0,0,1,0,1.414,1,1,0,0,1-.707.293A1,1,0,0,1-468.464,3436.95Z" transform="translate(1486.343 -6556.657)"/>
</svg>
