<svg xmlns="http://www.w3.org/2000/svg" viewBox="40 -6036 178.196 48"><defs><style>.a{fill:#1f2740;font-size:20px;font-family:HelveticaNeue-Medium, Helvetica Neue;font-weight:500;}.b{fill:#0072ff;}</style></defs><text class="a" transform="translate(108.196 -5996)"><tspan x="0" y="0">StaffingDog</tspan></text><g transform="translate(-572.804 -6274)"><g transform="translate(612.804 238)"><path class="b" d="M65.455,15.273H57.766c-.677-.775-1.121-7.088-7.481-7.065H47.273C46.611,7.117,45.091,3.013,41.766,0c-4.135,5.988-2.805,15.065-2.805,16.312.1,6.517-18.286,12.75-25.558,11.948-8.042-7.21-.048-12.629,1.351-12.883-4-2.092-12.288,6.678-5.818,16A27.239,27.239,0,0,0,0,48H8.727c0-1.321-.744-2.39-1.662-2.39,4.26-4.141,9.542-7.781,14.857-7.792A9.927,9.927,0,0,1,31.584,48h8.831c0-1.321-.744-2.39-1.662-2.39-1.434-5.4,4.779-13.818,7.688-17.766,1.906-2.654,6.056-1.776,8.935-1.766,5.195,0,9.861-4.1,9.87-8.519A2.5,2.5,0,0,0,65.455,15.273Zm-11.221-.1a1.039,1.039,0,1,1,1.039-1.039A1.039,1.039,0,0,1,54.234,15.169Z"/></g></g></svg>