<svg xmlns="http://www.w3.org/2000/svg" xmlns:xlink="http://www.w3.org/1999/xlink" viewBox="0 0 27.775 30">
  <defs>
    <style>
      .cls-1 {
        fill: url(#linear-gradient);
      }
    </style>
    <linearGradient id="linear-gradient" y1="0.125" x2="0" y2="0.721" gradientUnits="objectBoundingBox">
      <stop offset="0" stop-color="#9800ff"/>
      <stop offset="1" stop-color="#eb00ff"/>
    </linearGradient>
  </defs>
  <g id="Group_324" data-name="Group 324" transform="translate(0.005 -0.026)">
    <path id="Path_47" data-name="Path 47" class="cls-1" d="M41.265,23.385a.562.562,0,0,1-.425-.9A16.222,16.222,0,0,0,45.2,9.839,12.469,12.469,0,0,0,39.991.968a.476.476,0,0,1-.106-.744.644.644,0,0,1,.8-.106,13.37,13.37,0,0,1,5.631,9.615A17.646,17.646,0,0,1,41.69,23.226.6.6,0,0,1,41.265,23.385Z" transform="translate(-18.638 0)"/>
    <path id="Path_48" data-name="Path 48" class="cls-1" d="M13.786,30.815a.483.483,0,0,1-.425-.212.571.571,0,0,1,.106-.744,53.531,53.531,0,0,0,9.456-8.765A13.213,13.213,0,0,0,26.482,11a9.187,9.187,0,0,0-3.825-6.534C18.2,1.333,12.033,2.608,7.677,7.548a.569.569,0,0,1-.744.053.516.516,0,0,1-.053-.744C11.662,1.492,18.408.164,23.3,3.617a10.2,10.2,0,0,1,4.25,7.331,14.122,14.122,0,0,1-3.825,10.89,55.269,55.269,0,0,1-9.615,8.924A.674.674,0,0,1,13.786,30.815Z" transform="translate(-3.164 -0.79)"/>
    <path id="Path_49" data-name="Path 49" class="cls-1" d="M21.906,33.714a.483.483,0,0,1-.425-.212.513.513,0,0,1,.053-.744,58.942,58.942,0,0,0,5.79-5.79,9.972,9.972,0,0,0,2.762-7.49.528.528,0,0,1,.478-.584.5.5,0,0,1,.584.478,10.934,10.934,0,0,1-2.975,8.34,51.049,51.049,0,0,1-5.9,5.9A1.351,1.351,0,0,1,21.906,33.714Z" transform="translate(-10.009 -8.841)"/>
    <path id="Path_50" data-name="Path 50" class="cls-1" d="M.529,18.571A.483.483,0,0,1,.1,18.359a.52.52,0,0,1,.106-.744,38.7,38.7,0,0,0,6-5.684c3.665-4.143,8.5-5.206,12.059-2.709a.531.531,0,1,1-.637.85C14.553,7.894,10.3,8.956,7.01,12.622A38.388,38.388,0,0,1,.9,18.465,1.351,1.351,0,0,1,.529,18.571Z" transform="translate(0 -3.685)"/>
    <path id="Path_51" data-name="Path 51" class="cls-1" d="M5.377,32.325a.483.483,0,0,1-.425-.212.571.571,0,0,1,.106-.744,50.111,50.111,0,0,0,9.827-8.818A6.535,6.535,0,0,0,16.8,17.61,2.667,2.667,0,0,0,15.736,15.7c-1.859-1.328-4.515.053-6.268,2.072a42.37,42.37,0,0,1-8.606,7.7.571.571,0,0,1-.744-.106.571.571,0,0,1,.106-.744,44.111,44.111,0,0,0,8.446-7.6c2.5-2.815,5.578-3.665,7.649-2.231a3.569,3.569,0,0,1,1.487,2.656,7.637,7.637,0,0,1-2.178,5.737,50.14,50.14,0,0,1-9.987,8.978A.292.292,0,0,1,5.377,32.325Z" transform="translate(-0.014 -6.602)"/>
    <path id="Path_52" data-name="Path 52" class="cls-1" d="M4.843,33.317a.483.483,0,0,1-.425-.212.562.562,0,0,1,.106-.744A45.861,45.861,0,0,0,15.2,22.534a.527.527,0,1,1,.8.691A48.5,48.5,0,0,1,5.162,33.211.755.755,0,0,1,4.843,33.317Z" transform="translate(-2.03 -10.463)"/>
  </g>
</svg>
